<svg width="245" height="111" viewBox="0 0 245 111" fill="none" xmlns="http://www.w3.org/2000/svg">
<path d="M81.5623 24H82.8176C82.7805 24.0119 82.7557 24.0212 82.7189 24.0287C82.5147 24.0701 81.7234 24.1014 81.5623 24Z" fill="#007AFF"/>
<path d="M49.0909 36.0649C48.7512 35.8751 48.3953 35.7193 48.0704 35.5017C47.2291 34.9383 46.4823 33.9536 46.1993 32.9805C45.8425 31.7534 46.1717 30.4344 46.7757 29.3417C47.1039 28.7476 47.6745 28.0959 48.3457 27.9C48.7525 27.7813 49.1662 27.7751 49.5475 27.9845C49.8599 28.156 50.1186 28.4602 50.212 28.8082C50.2636 29.0003 50.2707 29.2487 50.1724 29.428C49.8099 30.0892 48.7795 29.8663 48.4807 31.3752C48.3968 31.7989 48.3957 32.2346 48.4987 32.6551C48.7333 33.6138 49.5259 34.3804 50.3436 34.8739C52.1628 35.9717 54.3839 35.9621 56.3866 35.4475C58.5516 34.8912 61.3005 33.4467 62.4672 31.4679C62.8228 30.8647 63.158 30.1552 62.9704 29.441C62.7373 28.5532 61.8545 27.8982 61.6482 27.2745C61.5845 27.0817 61.601 26.8795 61.6975 26.701C61.8119 26.4893 62.0716 26.2309 62.3035 26.1684C62.5855 26.0924 62.9107 26.1669 63.1568 26.3153C63.8191 26.7149 64.2135 27.7107 64.3718 28.4314C64.7016 29.9334 64.5998 31.3688 63.7584 32.686C62.5722 34.5428 60.1133 35.5283 58.0452 35.9686C57.6578 36.0511 56.1246 36.2015 55.9355 36.3472C55.8898 36.4446 55.8747 36.4575 55.8945 36.5673C55.9698 36.6594 56.0485 36.7004 56.1618 36.7355C56.4527 36.826 56.7727 36.8398 57.0722 36.8972C58.0093 37.0768 58.6933 37.2278 59.6639 37.3233C60.0903 37.3644 60.5176 37.3918 60.9458 37.4054C61.3739 37.4192 61.8021 37.4191 62.2303 37.4053C62.6584 37.3915 63.0858 37.3641 63.5122 37.3229C63.9386 37.2817 64.3633 37.2269 64.7862 37.1585C68.1866 36.6154 73.6417 34.6435 76.3029 32.4331C77.3615 31.5539 78.2269 30.5068 78.83 29.2632C79.0514 28.8065 79.2313 28.3212 79.3815 27.8364C79.6794 26.8754 79.9685 25.1663 80.7953 24.5523C81.1558 24.2846 82.1747 24.2977 82.6297 24.3353C82.9745 24.3638 83.235 24.5029 83.4575 24.7677C83.9335 25.3345 84.1058 26.0751 84.0418 26.8024C83.8383 29.116 81.8096 30.6807 80.1642 32.049C78.4178 33.5014 76.7139 34.9572 74.7368 36.0932C74.2263 36.3873 73.6955 36.6376 73.1443 36.8443C72.7444 36.9903 72.324 37.0995 71.9325 37.2657C71.8185 37.3142 71.7191 37.345 71.6437 37.446C71.6478 37.5365 71.6364 37.5832 71.72 37.6398C71.8928 37.757 72.3583 37.7115 72.5711 37.7105C75.1592 37.6987 78.1194 36.9198 80.5565 36.0562C81.6143 35.6814 82.6487 35.2642 83.6504 34.7544C85.8159 33.6522 89.4581 31.2506 90.5509 28.9742C90.7936 28.4688 90.7968 27.9782 90.9024 27.4404C90.9443 27.2268 91.0312 27.0249 91.0886 26.8154C91.2576 26.198 91.4745 25.717 92.112 25.4792C92.359 25.387 92.613 25.4097 92.8473 25.5265C93.2329 25.7187 93.4889 26.0961 93.6108 26.5018C93.8751 27.382 93.5555 28.3607 93.1326 29.1328C92.8088 29.7239 92.3729 30.2766 91.8884 30.7428C91.2276 31.3787 90.4331 31.9113 89.6952 32.4519C88.1985 33.5592 86.6654 34.613 85.0958 35.6133C84.8432 35.7722 84.1175 36.0848 84.2186 36.4446C84.3836 37.0322 85.6247 37.868 86.1793 38.1353C87.5827 38.8121 89.0697 38.5575 90.4767 38.0452C91.0514 37.8358 92.0769 37.2184 92.67 37.4846C92.893 37.5849 93.1413 37.8099 93.224 38.0458C93.2759 38.1937 93.2487 38.3497 93.176 38.4855C92.7924 39.2017 91.5569 39.722 90.8166 39.9188C90.2433 40.0712 89.6262 40.191 89.0322 40.1716C87.0653 40.1076 84.762 38.7689 82.7958 38.371C81.8529 38.1801 80.7677 38.2018 79.8118 38.303C79.2622 38.3774 78.7106 38.4428 78.1618 38.5235C77.8094 38.5754 77.4521 38.655 77.0967 38.679C76.0824 38.7471 73.5653 38.5494 72.7935 38.8425C72.3386 39.1749 72.09 39.472 71.9153 40.014C71.9755 40.3161 72.0592 40.6171 72.2155 40.8847C72.8688 42.0028 74.2773 41.6005 75.3259 41.8843C75.4064 42.11 75.4554 42.3268 75.4914 42.5636C75.3743 42.8755 75.2247 43.1053 74.9434 43.2923C74.5473 43.5556 74.0795 43.5449 73.6306 43.4606C73.1039 43.3616 72.6089 43.1011 72.174 42.7936C71.6362 42.4133 71.146 41.927 70.7381 41.4096C70.3686 40.9409 70.0438 40.4402 69.7201 39.9391C69.5145 39.6208 69.3143 39.2704 69.0605 38.9885C68.9124 38.824 68.7408 38.6843 68.5356 38.5976C67.7665 38.2729 64.3023 38.4725 63.1879 38.4559C62.3514 38.4423 61.5158 38.4067 60.6811 38.3492C59.8464 38.2918 59.0138 38.2124 58.1832 38.1113C57.3527 38.0101 56.5253 37.8873 55.7011 37.7427C54.8769 37.5982 54.0571 37.4321 53.2415 37.2446C53.0568 37.202 52.874 37.1494 52.6909 37.1002C52.4801 37.0635 52.2697 37.0282 52.0575 37.0004C51.0416 36.7757 50.0471 36.4772 49.0909 36.0649Z" fill="#007AFF"/>
<path d="M35.4495 66.3019C35.4977 66.7282 35.5677 67.1448 35.7031 67.5528L35.7942 67.6507C36.1213 67.7582 36.4775 67.7505 36.8188 67.7757C36.9695 67.781 37.1227 67.7803 37.272 67.8022C38.0977 67.8931 39.3144 67.9364 40.0747 68.2028C39.4105 68.4198 37.7318 68.424 36.937 68.5002L34.6951 68.7186C34.3791 68.7518 34.0487 68.8251 33.7329 68.835C32.5556 69.0279 31.3979 69.243 30.2364 69.5176C29.3125 69.8042 28.3729 70.0228 27.4561 70.3403C26.3142 70.7356 25.1702 71.2517 24 71.5422V71.6499C24.2218 71.667 24.4429 71.6805 24.6615 71.7241C24.7711 72.0522 24.8861 72.3784 25.0064 72.7027C25.1268 73.027 25.2525 73.3491 25.3835 73.6692C25.5145 73.9893 25.6507 74.3071 25.7922 74.6226C25.9337 74.9381 26.0804 75.2512 26.2322 75.5619C26.384 75.8726 26.5409 76.1806 26.7029 76.486C26.8649 76.7914 27.0318 77.094 27.2038 77.3938C27.3758 77.6937 27.5526 77.9906 27.7344 78.2846C27.9161 78.5785 28.1027 78.8694 28.2941 79.1572C28.4854 79.4448 28.6815 79.7293 28.8822 80.0105C29.083 80.2917 29.2883 80.5695 29.4982 80.8438C29.7081 81.1182 29.9225 81.389 30.1413 81.6562C30.3602 81.9234 30.5834 82.1868 30.8109 82.4466C31.0384 82.7064 31.2702 82.9623 31.5062 83.2143C31.7421 83.4664 31.9822 83.7144 32.2264 83.9584C32.4706 84.2025 32.7187 84.4424 32.9708 84.6781C33.2228 84.9139 33.4787 85.1454 33.7384 85.3726C34.0524 85.651 35.0802 86.6936 35.3533 86.8534C35.4038 86.8829 35.4471 86.8875 35.5041 86.8898C35.5487 86.8307 35.5716 86.8156 35.5626 86.7372C35.5529 86.6515 35.5012 86.5635 35.4523 86.4945C35.3205 86.3084 35.1543 86.1523 35.0148 85.9727L34.9356 85.8707C34.4932 85.301 34.0462 84.7253 33.6338 84.1352C32.8232 82.9785 32.0781 81.7806 31.3984 80.5416C31.1919 80.1636 30.9511 79.7594 30.7946 79.3589C30.2283 78.2934 29.755 77.1241 29.2834 76.0124C28.9781 75.1097 27.834 72.5226 27.9331 71.6976C27.9429 71.6903 27.952 71.6821 27.9624 71.6758C28.0439 71.6278 28.1529 71.6219 28.243 71.6457C28.8755 71.8121 29.1577 72.7813 29.4489 73.283C29.5375 73.3424 29.6506 73.3492 29.7546 73.3587C30.087 73.389 30.4293 73.3759 30.7634 73.3886C31.489 73.4166 32.866 73.4925 33.5521 73.6322C34.317 73.7878 35.0915 73.8872 35.8559 74.0384C36.2229 74.1111 36.5836 74.2141 36.9504 74.2884C37.3399 74.3671 37.7361 74.4084 38.1265 74.4823L38.2207 74.5001C39.6139 74.7636 41.0281 75.0311 42.4372 75.1818C45.4124 75.4999 48.514 75.3053 51.4609 74.8133C53.0708 74.5447 54.6976 74.175 56.2704 73.7371C58.9135 73.0013 61.352 71.9272 64.1632 72.3186C66.5051 72.6445 68.653 74.6648 70.4529 76.0853C74.001 78.8855 76.1543 79.2201 80.5463 79.4897C81.9899 79.5782 83.5889 79.7349 84.959 80.2275C86.6664 80.8411 88.2502 81.8542 89.8046 82.7773C91.7292 83.9204 93.7083 85.1275 95.8068 85.9182C96.2844 86.0982 96.7808 86.2201 97.2671 86.3733C98.0257 86.6122 98.7792 86.9149 99.5766 87L99.5771 86.9863C99.5795 86.9116 99.5802 86.8898 99.5109 86.8329C99.3066 86.6654 98.0486 86.1059 97.6781 85.9117C94.0759 84.0226 89.6862 81.3482 87.2338 78.0584C86.838 77.5274 86.4925 76.911 86.1751 76.3292C86.0632 76.124 85.9826 75.894 85.8542 75.7003C85.6306 75.6406 85.3164 75.9301 85.0757 75.9772C84.8093 76.0291 84.514 76.0194 84.2433 76.0254C83.697 76.0376 83.1306 75.9914 82.6113 75.81C82.0998 75.6314 81.6226 75.3301 81.1855 75.0136C79.5877 73.8566 78.4699 72.2282 77.3078 70.6606C76.9636 70.1962 76.5933 69.7482 76.2393 69.2906C75.2585 68.0228 74.208 66.7603 72.777 65.9922C70.6153 64.8315 68.2014 65.3496 65.8854 65.5024C64.7469 65.5775 63.5887 65.5641 62.4692 65.3218C59.783 64.7402 57.903 62.7526 55.583 61.4499C54.0284 60.5769 52.3352 59.9825 50.8645 58.9598C49.6861 58.1404 48.8217 57.12 48.567 55.6735C48.1241 53.1588 49.2887 48.771 50.2154 46.435C50.5679 45.5466 51.0025 44.6871 51.4676 43.8534C51.8276 43.2083 52.2029 42.593 52.6411 41.9974C52.8418 41.7248 53.0997 41.4775 53.2784 41.1928C53.4137 40.9773 52.9081 40.6592 52.8506 40.4063C52.8294 40.3134 52.8501 40.2325 52.9034 40.1545C52.9839 40.0365 53.1666 39.9594 53.2952 39.9149C54.4957 39.4996 55.6616 41.2707 56.9102 41.1089C57.0506 41.0895 57.1891 41.0611 57.3259 41.0236C57.4626 40.9862 57.5963 40.94 57.727 40.8851C58.1215 40.7209 59.156 40.1417 59.3865 39.8026C59.4474 39.713 59.4531 39.6693 59.4393 39.5641C59.1933 39.4748 58.3867 39.6727 58.0871 39.6995C57.7837 39.7267 57.5021 39.7191 57.2088 39.7812C55.3321 40.1784 49.05 36.4586 46.1943 35.8216C45.5515 35.6782 44.9168 35.4792 44.2775 35.3177C43.3151 35.0814 42.3467 34.8731 41.3724 34.693C40.876 34.6019 40.3721 34.606 39.8767 34.5294C39.5723 34.4823 39.3215 34.3007 39.0032 34.3441C38.8754 34.4374 38.8376 34.8136 38.8143 34.9679C38.6504 36.0598 38.6077 37.8602 39.2994 38.7764C39.4774 39.0122 39.7018 39.1668 39.9976 39.2042C40.9749 39.3282 41.9611 38.3195 42.6198 38.3943C42.8079 38.4156 43.0126 38.5332 43.1807 38.6178C43.5977 38.8274 43.9432 39.1378 44.2373 39.4985C45.3372 40.8474 46.1136 42.4951 48.0379 42.7053C48.1002 42.7126 48.1625 42.7184 48.2249 42.7226C48.2873 42.7269 48.3498 42.7295 48.4124 42.7306C48.4751 42.7318 48.5377 42.7313 48.6002 42.7294C48.6628 42.7274 48.7253 42.7239 48.7877 42.7189C48.85 42.7137 48.9123 42.7071 48.9743 42.6989C49.0365 42.6908 49.0983 42.6811 49.1598 42.6699C49.2215 42.6587 49.2828 42.646 49.3437 42.6316C49.4047 42.6174 49.4653 42.6016 49.5255 42.5844C49.5857 42.5672 49.6454 42.5484 49.7047 42.5282C49.764 42.5079 49.8227 42.4862 49.8809 42.4631C49.9391 42.44 49.9968 42.4154 50.0538 42.3894C50.1108 42.3634 50.1671 42.336 50.2228 42.3073C50.2785 42.2784 50.3334 42.2482 50.3876 42.2167C50.4417 42.1852 50.4951 42.1524 50.5476 42.1183C50.6003 42.0841 50.652 42.0486 50.7028 42.0119C50.7536 41.9752 50.8035 41.9372 50.8525 41.898C51.205 41.612 51.5591 41.1797 51.9922 41.0263L52.0508 41.0479C52.0254 41.3687 51.4624 41.8668 51.2338 42.0627C49.9324 43.1776 48.1618 43.2755 46.7727 44.2309C45.4969 45.1084 44.5143 46.3713 43.4524 47.4856C40.5578 50.5229 37.223 53.7147 36.1831 57.9471C36.0888 58.331 35.9532 58.7467 35.9172 59.1401C35.9062 59.2589 35.8933 59.3556 35.9648 59.4524C36.0611 59.4419 36.0893 59.4309 36.1674 59.3713C36.3787 59.2097 36.5509 58.9688 36.7305 58.773C36.9487 58.5353 37.1903 58.3164 37.4357 58.1074C38.6197 57.0991 40.2776 56.0428 41.8219 55.7527C42.0676 55.7067 42.3345 55.7031 42.5842 55.6887C42.8037 55.676 43.2324 55.622 43.4102 55.7668C43.4577 55.8055 43.4473 55.8218 43.456 55.8788C43.1825 56.2249 42.2163 56.2684 41.8029 56.3658C41.4255 56.4548 41.0069 56.5656 40.6533 56.7263C39.7861 57.1204 38.9453 57.6385 38.2694 58.3177C36.4048 60.1911 35.1522 63.6727 35.4495 66.3019Z" fill="#007AFF"/>
<path d="M112.778 31.2998V34.8998H118.778V31.2998H119.978V39.6998H118.778V36.0998H112.778V39.6998H111.578V31.2998H112.778Z" fill="#090628"/>
<path d="M123.936 39.6998V31.2998H125.136V37.9598L131.136 31.2998H132.336V39.6998H131.136V32.9198L125.136 39.6998H123.936Z" fill="#090628"/>
<path d="M140.733 34.4918V31.2998H141.933V34.4918L145.533 32.4998V31.2998H146.733V33.2078L142.569 35.5118L146.733 37.8158V39.6998H145.533V38.5238L141.933 36.5318V39.6998H140.733V36.5318L137.133 38.5238V39.6998H135.933V37.8158L140.097 35.5118L135.933 33.2078V31.2998H137.133V32.4998L140.733 34.4918Z" fill="#090628"/>
<path d="M151.539 32.4998V34.8998H157.539V36.0998H151.539V38.4998H158.739V39.6998H150.339V31.2998H158.739V32.4998H151.539Z" fill="#090628"/>
<path d="M169.662 32.4998H163.662V39.6998H162.462V31.2998H169.662V32.4998Z" fill="#090628"/>
<path d="M179.872 37.2998V33.6998C179.872 33.0398 179.332 32.4998 178.672 32.4998H175.072C174.412 32.4998 173.872 33.0398 173.872 33.6998V37.2998C173.872 37.9598 174.412 38.4998 175.072 38.4998H178.672C179.332 38.4998 179.872 37.9598 179.872 37.2998ZM181.072 33.6998V37.2998C181.072 38.6198 179.992 39.6998 178.672 39.6998H175.072C173.74 39.6998 172.672 38.6318 172.672 37.2998V33.6998C172.672 32.3798 173.752 31.2998 175.072 31.2998H178.672C179.944 31.2998 181.072 32.3918 181.072 33.6998Z" fill="#090628"/>
<path d="M192.115 34.8998V33.6998C192.115 33.0398 191.575 32.4998 190.915 32.4998H186.115V36.0998H190.915C191.575 36.0998 192.115 35.5598 192.115 34.8998ZM193.315 33.6998V34.8998C193.315 36.1718 192.259 37.2998 190.915 37.2998H186.115V39.6998H184.915V31.2998H190.915C192.199 31.2998 193.279 32.3678 193.315 33.6998Z" fill="#090628"/>
<path d="M204.119 37.2998V33.6998C204.119 33.0398 203.579 32.4998 202.919 32.4998H199.319C198.659 32.4998 198.119 33.0398 198.119 33.6998V37.2998C198.119 37.9598 198.659 38.4998 199.319 38.4998H202.919C203.579 38.4998 204.119 37.9598 204.119 37.2998ZM205.319 33.6998V37.2998C205.319 38.6198 204.239 39.6998 202.919 39.6998H199.319C197.987 39.6998 196.919 38.6318 196.919 37.2998V33.6998C196.919 32.3798 197.999 31.2998 199.319 31.2998H202.919C204.191 31.2998 205.319 32.3918 205.319 33.6998Z" fill="#090628"/>
<path d="M210.962 33.6998V38.4998H216.962V32.4998H212.162C211.502 32.4998 210.962 33.0398 210.962 33.6998ZM208.562 39.6998V38.4998H209.762V33.6998C209.762 32.4278 210.818 31.2998 212.162 31.2998H218.162V38.4998H219.362V39.6998H208.562Z" fill="#090628"/>
<path d="M117.178 45.6997H125.578C128.574 45.6997 131.094 48.1917 131.178 51.2997H128.378C128.378 49.7597 127.118 48.4997 125.578 48.4997H117.178C115.638 48.4997 114.378 49.7597 114.378 51.2997V59.6997C114.378 61.2397 115.638 62.4997 117.178 62.4997H125.578C127.118 62.4997 128.378 61.2397 128.378 59.6997H131.178C131.178 62.6677 128.714 65.2997 125.578 65.2997H117.178C114.182 65.2997 111.578 62.8637 111.578 59.6997V51.2997C111.578 48.2757 114.042 45.7837 117.178 45.6997Z" fill="#007AFF"/>
<path d="M152.725 48.4997H144.325V65.2997H141.525V48.4997H133.125V45.6997H152.725V48.4997Z" fill="#007AFF"/>
<path d="M168.704 48.4997H160.304C158.764 48.4997 157.504 49.7597 157.504 51.2997V56.8997H171.504V51.2997C171.504 49.7597 170.244 48.4997 168.704 48.4997ZM174.304 51.2997V65.2997H171.504V59.6997H157.504V65.2997H154.704V51.2997C154.704 48.3317 157.168 45.6997 160.304 45.6997H168.704C171.7 45.6997 174.22 48.1917 174.304 51.2997Z" fill="#007AFF"/>
<path d="M183.818 45.6997H197.818V65.2997H195.018V48.4997H183.818C182.278 48.4997 181.018 49.7597 181.018 51.2997V65.2997H178.218V51.2997C178.218 48.2757 180.682 45.7837 183.818 45.6997Z" fill="#007AFF"/>
<path d="M218.533 59.6997V58.2997C218.533 56.7597 217.273 55.4997 215.733 55.4997H204.533V62.4997H215.733C217.273 62.4997 218.533 61.2397 218.533 59.6997ZM221.333 58.2997V59.6997C221.333 62.6677 218.869 65.2997 215.733 65.2997H201.733V45.6997H204.533V52.6997H215.733C218.729 52.6997 221.249 55.1917 221.333 58.2997Z" fill="#007AFF"/>
<path d="M113.978 71.2998H117.578C118.862 71.2998 119.942 72.3678 119.978 73.6998H118.778C118.778 73.0398 118.238 72.4998 117.578 72.4998H113.978C113.318 72.4998 112.778 73.0398 112.778 73.6998V77.2998C112.778 77.9598 113.318 78.4998 113.978 78.4998H117.578C118.238 78.4998 118.778 77.9598 118.778 77.2998H119.978C119.978 78.5718 118.922 79.6998 117.578 79.6998H113.978C112.694 79.6998 111.578 78.6558 111.578 77.2998V73.6998C111.578 72.4038 112.634 71.3358 113.978 71.2998Z" fill="#090628"/>
<path d="M128.493 72.4998V74.8998H134.493V76.0998H128.493V78.4998H135.693V79.6998H127.293V71.2998H135.693V72.4998H128.493Z" fill="#090628"/>
<path d="M150.216 74.8998V73.6998C150.216 73.0398 149.676 72.4998 149.016 72.4998H144.216V76.0998H149.016C149.676 76.0998 150.216 75.5598 150.216 74.8998ZM151.416 73.6998V74.8998C151.416 76.1718 150.36 77.2998 149.016 77.2998H144.216V79.6998H143.016V71.2998H149.016C150.3 71.2998 151.38 72.3678 151.416 73.6998Z" fill="#090628"/>
<path d="M164.739 79.6998H158.739V71.2998H164.739C165.999 71.2998 167.139 72.3678 167.139 73.6998C167.139 74.4198 166.863 75.0198 166.323 75.4998C166.863 75.9798 167.139 76.5798 167.139 77.2998C167.139 78.5958 166.083 79.6638 164.739 79.6998ZM164.739 76.0998H159.939V78.4998H164.739C165.399 78.4998 165.939 77.9598 165.939 77.2998C165.939 76.6398 165.399 76.0998 164.739 76.0998ZM159.939 72.4998V74.8998H164.739C165.399 74.8998 165.939 74.3598 165.939 73.6998C165.939 73.0398 165.399 72.4998 164.739 72.4998H159.939Z" fill="#090628"/>
<path d="M174.58 79.6998V71.2998H175.78V77.9598L181.78 71.2998H182.98V79.6998H181.78V72.9198L175.78 79.6998H174.58Z" fill="#090628"/>
<path d="M192.817 71.2998H196.417C197.701 71.2998 198.781 72.3678 198.817 73.6998H197.617C197.617 73.0398 197.077 72.4998 196.417 72.4998H192.817C192.157 72.4998 191.617 73.0398 191.617 73.6998V77.2998C191.617 77.9598 192.157 78.4998 192.817 78.4998H196.417C197.077 78.4998 197.617 77.9598 197.617 77.2998H198.817C198.817 78.5718 197.761 79.6998 196.417 79.6998H192.817C191.533 79.6998 190.417 78.6558 190.417 77.2998V73.6998C190.417 72.4038 191.473 71.3358 192.817 71.2998Z" fill="#090628"/>
</svg>
