<svg width="198" height="80" viewBox="0 0 198 80" fill="none" xmlns="http://www.w3.org/2000/svg">
<path d="M57.5623 8H58.8176C58.7805 8.01187 58.7557 8.02124 58.7189 8.02871C58.5147 8.07005 57.7234 8.10136 57.5623 8Z" fill="#007AFF"/>
<path d="M25.0909 20.0649C24.7512 19.8751 24.3953 19.7193 24.0704 19.5017C23.2291 18.9383 22.4823 17.9536 22.1993 16.9805C21.8425 15.7534 22.1717 14.4344 22.7757 13.3417C23.1039 12.7476 23.6745 12.0959 24.3457 11.9C24.7525 11.7813 25.1662 11.7751 25.5475 11.9845C25.8599 12.156 26.1186 12.4602 26.212 12.8082C26.2636 13.0003 26.2707 13.2487 26.1724 13.428C25.8099 14.0892 24.7795 13.8663 24.4807 15.3752C24.3968 15.7989 24.3957 16.2346 24.4987 16.6551C24.7333 17.6138 25.5259 18.3804 26.3436 18.8739C28.1628 19.9717 30.3839 19.9621 32.3866 19.4475C34.5516 18.8912 37.3005 17.4467 38.4672 15.4679C38.8228 14.8647 39.158 14.1552 38.9704 13.441C38.7373 12.5532 37.8545 11.8982 37.6482 11.2745C37.5845 11.0817 37.601 10.8795 37.6975 10.701C37.8119 10.4893 38.0716 10.2309 38.3035 10.1684C38.5855 10.0924 38.9107 10.1669 39.1568 10.3153C39.8191 10.7149 40.2135 11.7107 40.3718 12.4314C40.7016 13.9334 40.5998 15.3688 39.7584 16.686C38.5722 18.5428 36.1133 19.5283 34.0452 19.9686C33.6578 20.0511 32.1246 20.2015 31.9355 20.3472C31.8898 20.4446 31.8747 20.4575 31.8945 20.5673C31.9698 20.6594 32.0485 20.7004 32.1618 20.7355C32.4527 20.826 32.7727 20.8398 33.0722 20.8972C34.0093 21.0768 34.6933 21.2278 35.6639 21.3233C36.0903 21.3644 36.5176 21.3918 36.9458 21.4054C37.3739 21.4192 37.8021 21.4191 38.2303 21.4053C38.6584 21.3915 39.0858 21.3641 39.5122 21.3229C39.9386 21.2817 40.3633 21.2269 40.7862 21.1585C44.1866 20.6154 49.6417 18.6435 52.3029 16.4331C53.3615 15.5539 54.2269 14.5068 54.83 13.2632C55.0514 12.8065 55.2313 12.3212 55.3815 11.8364C55.6794 10.8754 55.9685 9.16628 56.7953 8.5523C57.1558 8.28458 58.1747 8.29765 58.6297 8.33531C58.9745 8.36384 59.235 8.50292 59.4575 8.76772C59.9335 9.33447 60.1058 10.0751 60.0418 10.8024C59.8383 13.116 57.8096 14.6807 56.1642 16.049C54.4178 17.5014 52.7139 18.9572 50.7368 20.0932C50.2263 20.3873 49.6955 20.6376 49.1443 20.8443C48.7444 20.9903 48.324 21.0995 47.9325 21.2657C47.8185 21.3142 47.7191 21.345 47.6437 21.446C47.6478 21.5365 47.6364 21.5832 47.72 21.6398C47.8928 21.757 48.3583 21.7115 48.5711 21.7105C51.1592 21.6987 54.1194 20.9198 56.5565 20.0562C57.6143 19.6814 58.6487 19.2642 59.6504 18.7544C61.8159 17.6522 65.4581 15.2506 66.5509 12.9742C66.7936 12.4688 66.7968 11.9782 66.9024 11.4404C66.9443 11.2268 67.0312 11.0249 67.0886 10.8154C67.2576 10.198 67.4745 9.71696 68.112 9.47915C68.359 9.387 68.613 9.40975 68.8473 9.52654C69.2329 9.71868 69.4889 10.0961 69.6108 10.5018C69.8751 11.382 69.5555 12.3607 69.1326 13.1328C68.8088 13.7239 68.3729 14.2766 67.8884 14.7428C67.2276 15.3787 66.4331 15.9113 65.6952 16.4519C64.1985 17.5592 62.6654 18.613 61.0958 19.6133C60.8432 19.7722 60.1175 20.0848 60.2186 20.4446C60.3836 21.0322 61.6247 21.868 62.1793 22.1353C63.5827 22.8121 65.0697 22.5575 66.4767 22.0452C67.0514 21.8358 68.0769 21.2184 68.67 21.4846C68.893 21.5849 69.1413 21.8099 69.224 22.0458C69.2759 22.1937 69.2487 22.3497 69.176 22.4855C68.7924 23.2017 67.5569 23.722 66.8166 23.9188C66.2433 24.0712 65.6262 24.191 65.0322 24.1716C63.0653 24.1076 60.762 22.7689 58.7958 22.371C57.8529 22.1801 56.7677 22.2018 55.8118 22.303C55.2622 22.3774 54.7106 22.4428 54.1618 22.5235C53.8094 22.5754 53.4521 22.655 53.0967 22.679C52.0824 22.7471 49.5653 22.5494 48.7935 22.8425C48.3386 23.1749 48.09 23.472 47.9153 24.014C47.9755 24.3161 48.0592 24.6171 48.2155 24.8847C48.8688 26.0028 50.2773 25.6005 51.3259 25.8843C51.4064 26.11 51.4554 26.3268 51.4914 26.5636C51.3743 26.8755 51.2247 27.1053 50.9434 27.2923C50.5473 27.5556 50.0795 27.5449 49.6306 27.4606C49.1039 27.3616 48.6089 27.1011 48.174 26.7936C47.6362 26.4133 47.146 25.927 46.7381 25.4096C46.3686 24.9409 46.0438 24.4402 45.7201 23.9391C45.5145 23.6208 45.3143 23.2704 45.0605 22.9885C44.9124 22.824 44.7408 22.6843 44.5356 22.5976C43.7665 22.2729 40.3023 22.4725 39.1879 22.4559C38.3514 22.4423 37.5158 22.4067 36.6811 22.3492C35.8464 22.2918 35.0138 22.2124 34.1832 22.1113C33.3527 22.0101 32.5253 21.8873 31.7011 21.7427C30.8769 21.5982 30.0571 21.4321 29.2415 21.2446C29.0568 21.202 28.874 21.1494 28.6909 21.1002C28.4801 21.0635 28.2697 21.0282 28.0575 21.0004C27.0416 20.7757 26.0471 20.4772 25.0909 20.0649Z" fill="#007AFF"/>
<path d="M11.4495 50.3019C11.4977 50.7282 11.5677 51.1448 11.7031 51.5528L11.7942 51.6507C12.1213 51.7582 12.4775 51.7505 12.8188 51.7757C12.9695 51.781 13.1227 51.7803 13.272 51.8022C14.0977 51.8931 15.3144 51.9364 16.0747 52.2028C15.4105 52.4198 13.7318 52.424 12.937 52.5002L10.6951 52.7186C10.3791 52.7518 10.0487 52.8251 9.73291 52.835C8.55555 53.0279 7.39788 53.243 6.2364 53.5176C5.31248 53.8042 4.37289 54.0228 3.45608 54.3403C2.3142 54.7356 1.17019 55.2517 0 55.5422V55.6499C0.221833 55.667 0.442854 55.6805 0.661462 55.7241C0.77107 56.0522 0.886059 56.3784 1.00643 56.7027C1.1268 57.027 1.25248 57.3491 1.38349 57.6692C1.51449 57.9893 1.65073 58.3071 1.79222 58.6226C1.93371 58.9381 2.08036 59.2512 2.23217 59.5619C2.38399 59.8726 2.54089 60.1806 2.70287 60.486C2.86485 60.7914 3.03182 61.094 3.20378 61.3938C3.37575 61.6937 3.55262 61.9906 3.73438 62.2846C3.91614 62.5785 4.1027 62.8694 4.29406 63.1572C4.48542 63.4448 4.68147 63.7293 4.88221 64.0105C5.08295 64.2917 5.28828 64.5695 5.49819 64.8438C5.7081 65.1182 5.92247 65.389 6.14132 65.6562C6.36017 65.9234 6.58336 66.1868 6.8109 66.4466C7.03843 66.7064 7.27019 66.9623 7.50617 67.2143C7.74215 67.4664 7.98222 67.7144 8.22639 67.9584C8.47055 68.2025 8.71867 68.4424 8.97075 68.6781C9.22284 68.9139 9.47873 69.1454 9.73845 69.3726C10.0524 69.651 11.0802 70.6936 11.3533 70.8534C11.4038 70.8829 11.4471 70.8875 11.5041 70.8898C11.5487 70.8307 11.5716 70.8156 11.5626 70.7372C11.5529 70.6515 11.5012 70.5635 11.4523 70.4945C11.3205 70.3084 11.1543 70.1523 11.0148 69.9727L10.9356 69.8707C10.4932 69.301 10.0462 68.7253 9.63382 68.1352C8.82322 66.9785 8.07808 65.7806 7.39843 64.5416C7.19188 64.1636 6.95112 63.7594 6.79465 63.3589C6.22829 62.2934 5.75504 61.1241 5.28344 60.0124C4.97808 59.1097 3.83395 56.5226 3.93311 55.6976C3.94289 55.6903 3.95197 55.6821 3.96245 55.6758C4.0439 55.6278 4.15286 55.6219 4.24304 55.6457C4.87552 55.8121 5.15768 56.7813 5.44888 57.283C5.53753 57.3424 5.65057 57.3492 5.7546 57.3587C6.08702 57.389 6.42925 57.3759 6.76341 57.3886C7.48904 57.4166 8.86601 57.4925 9.55215 57.6322C10.317 57.7878 11.0915 57.8872 11.8559 58.0384C12.2229 58.1111 12.5836 58.2141 12.9504 58.2884C13.3399 58.3671 13.7361 58.4084 14.1265 58.4823L14.2207 58.5001C15.6139 58.7636 17.0281 59.0311 18.4372 59.1818C21.4124 59.4999 24.514 59.3053 27.4609 58.8133C29.0708 58.5447 30.6976 58.175 32.2704 57.7371C34.9135 57.0013 37.352 55.9272 40.1632 56.3186C42.5051 56.6445 44.653 58.6648 46.4529 60.0853C50.001 62.8855 52.1543 63.2201 56.5463 63.4897C57.9899 63.5782 59.5889 63.7349 60.959 64.2275C62.6664 64.8411 64.2502 65.8542 65.8046 66.7773C67.7292 67.9204 69.7083 69.1275 71.8068 69.9182C72.2844 70.0982 72.7808 70.2201 73.2671 70.3733C74.0257 70.6122 74.7792 70.9149 75.5766 71L75.5771 70.9863C75.5795 70.9116 75.5802 70.8898 75.5109 70.8329C75.3066 70.6654 74.0486 70.1059 73.6781 69.9117C70.0759 68.0226 65.6862 65.3482 63.2338 62.0584C62.838 61.5274 62.4925 60.911 62.1751 60.3292C62.0632 60.124 61.9826 59.894 61.8542 59.7003C61.6306 59.6406 61.3164 59.9301 61.0757 59.9772C60.8093 60.0291 60.514 60.0194 60.2433 60.0254C59.697 60.0376 59.1306 59.9914 58.6113 59.81C58.0998 59.6314 57.6226 59.3301 57.1855 59.0136C55.5877 57.8566 54.4699 56.2282 53.3078 54.6606C52.9636 54.1962 52.5933 53.7482 52.2393 53.2906C51.2585 52.0228 50.208 50.7603 48.777 49.9922C46.6153 48.8315 44.2014 49.3496 41.8854 49.5024C40.7469 49.5775 39.5887 49.5641 38.4692 49.3218C35.783 48.7402 33.903 46.7526 31.583 45.4499C30.0284 44.5769 28.3352 43.9825 26.8645 42.9598C25.6861 42.1404 24.8217 41.12 24.567 39.6735C24.1241 37.1588 25.2887 32.771 26.2154 30.435C26.5679 29.5466 27.0025 28.6871 27.4676 27.8534C27.8276 27.2083 28.2029 26.593 28.6411 25.9974C28.8418 25.7248 29.0997 25.4775 29.2784 25.1928C29.4137 24.9773 28.9081 24.6592 28.8506 24.4063C28.8294 24.3134 28.8501 24.2325 28.9034 24.1545C28.9839 24.0365 29.1666 23.9594 29.2952 23.9149C30.4957 23.4996 31.6616 25.2707 32.9102 25.1089C33.0506 25.0895 33.1891 25.0611 33.3259 25.0236C33.4626 24.9862 33.5963 24.94 33.727 24.8851C34.1215 24.7209 35.156 24.1417 35.3865 23.8026C35.4474 23.713 35.4531 23.6693 35.4393 23.5641C35.1933 23.4748 34.3867 23.6727 34.0871 23.6995C33.7837 23.7267 33.5021 23.7191 33.2088 23.7812C31.3321 24.1784 25.05 20.4586 22.1943 19.8216C21.5515 19.6782 20.9168 19.4792 20.2775 19.3177C19.3151 19.0814 18.3467 18.8731 17.3724 18.693C16.876 18.6019 16.3721 18.606 15.8767 18.5294C15.5723 18.4823 15.3215 18.3007 15.0032 18.3441C14.8754 18.4374 14.8376 18.8136 14.8143 18.9679C14.6504 20.0598 14.6077 21.8602 15.2994 22.7764C15.4774 23.0122 15.7018 23.1668 15.9976 23.2042C16.9749 23.3282 17.9611 22.3195 18.6198 22.3943C18.8079 22.4156 19.0126 22.5332 19.1807 22.6178C19.5977 22.8274 19.9432 23.1378 20.2373 23.4985C21.3372 24.8474 22.1136 26.4951 24.0379 26.7053C24.1002 26.7126 24.1625 26.7184 24.2249 26.7226C24.2873 26.7269 24.3498 26.7295 24.4124 26.7306C24.4751 26.7318 24.5377 26.7313 24.6002 26.7294C24.6628 26.7274 24.7253 26.7239 24.7877 26.7189C24.85 26.7137 24.9123 26.7071 24.9743 26.6989C25.0365 26.6908 25.0983 26.6811 25.1598 26.6699C25.2215 26.6587 25.2828 26.646 25.3437 26.6316C25.4047 26.6174 25.4653 26.6016 25.5255 26.5844C25.5857 26.5672 25.6454 26.5484 25.7047 26.5282C25.764 26.5079 25.8227 26.4862 25.8809 26.4631C25.9391 26.44 25.9968 26.4154 26.0538 26.3894C26.1108 26.3634 26.1671 26.336 26.2228 26.3073C26.2785 26.2784 26.3334 26.2482 26.3876 26.2167C26.4417 26.1852 26.4951 26.1524 26.5476 26.1183C26.6003 26.0841 26.652 26.0486 26.7028 26.0119C26.7536 25.9752 26.8035 25.9372 26.8525 25.898C27.205 25.612 27.5591 25.1797 27.9922 25.0263L28.0508 25.0479C28.0254 25.3687 27.4624 25.8668 27.2338 26.0627C25.9324 27.1776 24.1618 27.2755 22.7727 28.2309C21.4969 29.1084 20.5143 30.3713 19.4524 31.4856C16.5578 34.5229 13.223 37.7147 12.1831 41.9471C12.0888 42.331 11.9532 42.7467 11.9172 43.1401C11.9062 43.2589 11.8933 43.3556 11.9648 43.4524C12.0611 43.4419 12.0893 43.4309 12.1674 43.3713C12.3787 43.2097 12.5509 42.9688 12.7305 42.773C12.9487 42.5353 13.1903 42.3164 13.4357 42.1074C14.6197 41.0991 16.2776 40.0428 17.8219 39.7527C18.0676 39.7067 18.3345 39.7031 18.5842 39.6887C18.8037 39.676 19.2324 39.622 19.4102 39.7668C19.4577 39.8055 19.4473 39.8218 19.456 39.8788C19.1825 40.2249 18.2163 40.2684 17.8029 40.3658C17.4255 40.4548 17.0069 40.5656 16.6533 40.7263C15.7861 41.1204 14.9453 41.6385 14.2694 42.3177C12.4048 44.1911 11.1522 47.6727 11.4495 50.3019Z" fill="#007AFF"/>
<path d="M88.7779 15.2998V18.8998H94.7779V15.2998H95.9779V23.6998H94.7779V20.0998H88.7779V23.6998H87.5779V15.2998H88.7779Z" fill="#090628"/>
<path d="M99.9355 23.6998V15.2998H101.136V21.9598L107.136 15.2998H108.336V23.6998H107.136V16.9198L101.136 23.6998H99.9355Z" fill="#090628"/>
<path d="M116.733 18.4918V15.2998H117.933V18.4918L121.533 16.4998V15.2998H122.733V17.2078L118.569 19.5118L122.733 21.8158V23.6998H121.533V22.5238L117.933 20.5318V23.6998H116.733V20.5318L113.133 22.5238V23.6998H111.933V21.8158L116.097 19.5118L111.933 17.2078V15.2998H113.133V16.4998L116.733 18.4918Z" fill="#090628"/>
<path d="M127.538 16.4998V18.8998H133.538V20.0998H127.538V22.4998H134.738V23.6998H126.338V15.2998H134.738V16.4998H127.538Z" fill="#090628"/>
<path d="M145.662 16.4998H139.662V23.6998H138.462V15.2998H145.662V16.4998Z" fill="#090628"/>
<path d="M155.872 21.2998V17.6998C155.872 17.0398 155.332 16.4998 154.672 16.4998H151.072C150.412 16.4998 149.872 17.0398 149.872 17.6998V21.2998C149.872 21.9598 150.412 22.4998 151.072 22.4998H154.672C155.332 22.4998 155.872 21.9598 155.872 21.2998ZM157.072 17.6998V21.2998C157.072 22.6198 155.992 23.6998 154.672 23.6998H151.072C149.74 23.6998 148.672 22.6318 148.672 21.2998V17.6998C148.672 16.3798 149.752 15.2998 151.072 15.2998H154.672C155.944 15.2998 157.072 16.3918 157.072 17.6998Z" fill="#090628"/>
<path d="M168.115 18.8998V17.6998C168.115 17.0398 167.575 16.4998 166.915 16.4998H162.115V20.0998H166.915C167.575 20.0998 168.115 19.5598 168.115 18.8998ZM169.315 17.6998V18.8998C169.315 20.1718 168.259 21.2998 166.915 21.2998H162.115V23.6998H160.915V15.2998H166.915C168.199 15.2998 169.279 16.3678 169.315 17.6998Z" fill="#090628"/>
<path d="M180.119 21.2998V17.6998C180.119 17.0398 179.579 16.4998 178.919 16.4998H175.319C174.659 16.4998 174.119 17.0398 174.119 17.6998V21.2998C174.119 21.9598 174.659 22.4998 175.319 22.4998H178.919C179.579 22.4998 180.119 21.9598 180.119 21.2998ZM181.319 17.6998V21.2998C181.319 22.6198 180.239 23.6998 178.919 23.6998H175.319C173.987 23.6998 172.919 22.6318 172.919 21.2998V17.6998C172.919 16.3798 173.999 15.2998 175.319 15.2998H178.919C180.191 15.2998 181.319 16.3918 181.319 17.6998Z" fill="#090628"/>
<path d="M186.962 17.6998V22.4998H192.962V16.4998H188.162C187.502 16.4998 186.962 17.0398 186.962 17.6998ZM184.562 23.6998V22.4998H185.762V17.6998C185.762 16.4278 186.818 15.2998 188.162 15.2998H194.162V22.4998H195.362V23.6998H184.562Z" fill="#090628"/>
<path d="M93.1779 29.7002H101.578C104.574 29.7002 107.094 32.1922 107.178 35.3002H104.378C104.378 33.7602 103.118 32.5002 101.578 32.5002H93.1779C91.6379 32.5002 90.3779 33.7602 90.3779 35.3002V43.7002C90.3779 45.2402 91.6379 46.5002 93.1779 46.5002H101.578C103.118 46.5002 104.378 45.2402 104.378 43.7002H107.178C107.178 46.6682 104.714 49.3002 101.578 49.3002H93.1779C90.1819 49.3002 87.5779 46.8642 87.5779 43.7002V35.3002C87.5779 32.2762 90.0419 29.7842 93.1779 29.7002Z" fill="#007AFF"/>
<path d="M128.725 32.5002H120.325V49.3002H117.525V32.5002H109.125V29.7002H128.725V32.5002Z" fill="#007AFF"/>
<path d="M144.703 32.5002H136.303C134.763 32.5002 133.503 33.7602 133.503 35.3002V40.9002H147.503V35.3002C147.503 33.7602 146.243 32.5002 144.703 32.5002ZM150.303 35.3002V49.3002H147.503V43.7002H133.503V49.3002H130.703V35.3002C130.703 32.3322 133.167 29.7002 136.303 29.7002H144.703C147.699 29.7002 150.219 32.1922 150.303 35.3002Z" fill="#007AFF"/>
<path d="M159.818 29.7002H173.818V49.3002H171.018V32.5002H159.818C158.278 32.5002 157.018 33.7602 157.018 35.3002V49.3002H154.218V35.3002C154.218 32.2762 156.682 29.7842 159.818 29.7002Z" fill="#007AFF"/>
<path d="M194.532 43.7002V42.3002C194.532 40.7602 193.272 39.5002 191.732 39.5002H180.532V46.5002H191.732C193.272 46.5002 194.532 45.2402 194.532 43.7002ZM197.332 42.3002V43.7002C197.332 46.6682 194.868 49.3002 191.732 49.3002H177.732V29.7002H180.532V36.7002H191.732C194.728 36.7002 197.248 39.1922 197.332 42.3002Z" fill="#007AFF"/>
<path d="M89.9779 55.2998H93.5779C94.8619 55.2998 95.9419 56.3678 95.9779 57.6998H94.7779C94.7779 57.0398 94.2379 56.4998 93.5779 56.4998H89.9779C89.3179 56.4998 88.7779 57.0398 88.7779 57.6998V61.2998C88.7779 61.9598 89.3179 62.4998 89.9779 62.4998H93.5779C94.2379 62.4998 94.7779 61.9598 94.7779 61.2998H95.9779C95.9779 62.5718 94.9219 63.6998 93.5779 63.6998H89.9779C88.6939 63.6998 87.5779 62.6558 87.5779 61.2998V57.6998C87.5779 56.4038 88.6339 55.3358 89.9779 55.2998Z" fill="#090628"/>
<path d="M104.492 56.4998V58.8998H110.492V60.0998H104.492V62.4998H111.692V63.6998H103.292V55.2998H111.692V56.4998H104.492Z" fill="#090628"/>
<path d="M126.216 58.8998V57.6998C126.216 57.0398 125.676 56.4998 125.016 56.4998H120.216V60.0998H125.016C125.676 60.0998 126.216 59.5598 126.216 58.8998ZM127.416 57.6998V58.8998C127.416 60.1718 126.36 61.2998 125.016 61.2998H120.216V63.6998H119.016V55.2998H125.016C126.3 55.2998 127.38 56.3678 127.416 57.6998Z" fill="#090628"/>
<path d="M140.739 63.6998H134.739V55.2998H140.739C141.999 55.2998 143.139 56.3678 143.139 57.6998C143.139 58.4198 142.863 59.0198 142.323 59.4998C142.863 59.9798 143.139 60.5798 143.139 61.2998C143.139 62.5958 142.083 63.6638 140.739 63.6998ZM140.739 60.0998H135.939V62.4998H140.739C141.399 62.4998 141.939 61.9598 141.939 61.2998C141.939 60.6398 141.399 60.0998 140.739 60.0998ZM135.939 56.4998V58.8998H140.739C141.399 58.8998 141.939 58.3598 141.939 57.6998C141.939 57.0398 141.399 56.4998 140.739 56.4998H135.939Z" fill="#090628"/>
<path d="M150.579 63.6998V55.2998H151.779V61.9598L157.779 55.2998H158.979V63.6998H157.779V56.9198L151.779 63.6998H150.579Z" fill="#090628"/>
<path d="M168.817 55.2998H172.417C173.701 55.2998 174.781 56.3678 174.817 57.6998H173.617C173.617 57.0398 173.077 56.4998 172.417 56.4998H168.817C168.157 56.4998 167.617 57.0398 167.617 57.6998V61.2998C167.617 61.9598 168.157 62.4998 168.817 62.4998H172.417C173.077 62.4998 173.617 61.9598 173.617 61.2998H174.817C174.817 62.5718 173.761 63.6998 172.417 63.6998H168.817C167.533 63.6998 166.417 62.6558 166.417 61.2998V57.6998C166.417 56.4038 167.473 55.3358 168.817 55.2998Z" fill="#090628"/>
</svg>
