<svg width="200" height="92" viewBox="0 0 200 92" fill="none" xmlns="http://www.w3.org/2000/svg">
<rect width="200" height="91" transform="translate(0 0.5)" fill="white"/>
<path d="M57.4566 23.5H58.3535C58.327 23.5085 58.3093 23.5152 58.283 23.5205C58.1371 23.55 57.5717 23.5724 57.4566 23.5Z" fill="#007AFF"/>
<path d="M34.2559 32.1178C34.0132 31.9822 33.7589 31.871 33.5268 31.7155C32.9257 31.3131 32.3922 30.6097 32.1899 29.9147C31.935 29.0382 32.1702 28.096 32.6017 27.3155C32.8363 26.8911 33.244 26.4257 33.7235 26.2857C34.0142 26.2009 34.3097 26.1965 34.5822 26.3461C34.8054 26.4686 34.9902 26.6858 35.057 26.9344C35.0938 27.0717 35.0989 27.2491 35.0287 27.3771C34.7696 27.8494 34.0335 27.6902 33.82 28.768C33.76 29.0706 33.7593 29.3819 33.8328 29.6822C34.0005 30.367 34.5668 30.9145 35.151 31.267C36.4508 32.0512 38.0378 32.0443 39.4687 31.6768C41.0156 31.2794 42.9797 30.2476 43.8132 28.8342C44.0674 28.4034 44.3068 27.8966 44.1728 27.3864C44.0062 26.7523 43.3755 26.2844 43.2281 25.839C43.1826 25.7012 43.1943 25.5568 43.2633 25.4293C43.3451 25.2781 43.5306 25.0935 43.6963 25.0489C43.8978 24.9946 44.1302 25.0478 44.306 25.1538C44.7792 25.4392 45.061 26.1505 45.1741 26.6653C45.4097 27.7381 45.337 28.7634 44.7358 29.7043C43.8883 31.0306 42.1314 31.7345 40.6538 32.049C40.3769 32.1079 39.2815 32.2153 39.1464 32.3194C39.1138 32.389 39.1029 32.3982 39.1171 32.4767C39.1709 32.5425 39.2271 32.5717 39.3081 32.5968C39.5159 32.6614 39.7446 32.6713 39.9585 32.7123C40.6281 32.8406 41.1168 32.9484 41.8103 33.0167C42.115 33.046 42.4203 33.0656 42.7262 33.0753C43.0321 33.0851 43.338 33.0851 43.644 33.0752C43.9499 33.0654 44.2552 33.0458 44.5599 33.0164C44.8646 32.9869 45.168 32.9478 45.4702 32.8989C47.8997 32.511 51.7974 31.1025 53.6988 29.5237C54.4552 28.8956 55.0735 28.1477 55.5044 27.2594C55.6626 26.9332 55.7911 26.5866 55.8984 26.2403C56.1113 25.5539 56.3179 24.3331 56.9086 23.8945C57.1662 23.7033 57.8942 23.7126 58.2193 23.7395C58.4656 23.7599 58.6518 23.8592 58.8108 24.0484C59.1509 24.4532 59.2739 24.9822 59.2282 25.5017C59.0828 27.1543 57.6333 28.2719 56.4577 29.2493C55.2099 30.2867 53.9925 31.3266 52.5798 32.138C52.2151 32.3481 51.8358 32.5269 51.442 32.6745C51.1563 32.7788 50.8559 32.8568 50.5762 32.9755C50.4947 33.0102 50.4237 33.0322 50.3699 33.1043C50.3728 33.1689 50.3646 33.2023 50.4243 33.2427C50.5478 33.3264 50.8804 33.2939 51.0325 33.2932C52.8816 33.2848 54.9967 32.7284 56.738 32.1116C57.4938 31.8439 58.2328 31.5459 58.9485 31.1817C60.4958 30.3944 63.0982 28.679 63.879 27.053C64.0523 26.692 64.0546 26.3416 64.1301 25.9575C64.16 25.8049 64.2221 25.6606 64.2631 25.511C64.3839 25.07 64.5388 24.7264 64.9943 24.5565C65.1708 24.4907 65.3523 24.507 65.5197 24.5904C65.7952 24.7276 65.9781 24.9972 66.0652 25.287C66.2541 25.9157 66.0257 26.6148 65.7235 27.1663C65.4922 27.5885 65.1807 27.9833 64.8345 28.3163C64.3624 28.7705 63.7948 29.151 63.2676 29.5371C62.1981 30.328 61.1027 31.0807 59.9813 31.7952C59.8008 31.9087 59.2823 32.132 59.3545 32.389C59.4724 32.8087 60.3592 33.4057 60.7555 33.5966C61.7582 34.0801 62.8206 33.8982 63.8259 33.5323C64.2365 33.3827 64.9692 32.9417 65.393 33.1319C65.5524 33.2035 65.7298 33.3642 65.7889 33.5327C65.826 33.6384 65.8065 33.7498 65.7545 33.8468C65.4805 34.3583 64.5977 34.73 64.0688 34.8705C63.6592 34.9794 63.2182 35.065 62.7938 35.0511C61.3885 35.0055 59.7428 34.0492 58.3379 33.765C57.6642 33.6287 56.8889 33.6442 56.2059 33.7164C55.8132 33.7696 55.4191 33.8163 55.027 33.874C54.7752 33.911 54.5199 33.9679 54.266 33.985C53.5413 34.0337 51.7428 33.8924 51.1914 34.1018C50.8663 34.3392 50.6887 34.5514 50.5639 34.9386C50.6069 35.1544 50.6667 35.3694 50.7784 35.5605C51.2452 36.3591 52.2515 36.0718 53.0008 36.2745C53.0583 36.4357 53.0933 36.5906 53.119 36.7597C53.0353 36.9825 52.9285 37.1466 52.7274 37.2802C52.4444 37.4683 52.1102 37.4607 51.7895 37.4004C51.4132 37.3297 51.0595 37.1436 50.7487 36.924C50.3645 36.6523 50.0143 36.305 49.7228 35.9355C49.4588 35.6006 49.2267 35.243 48.9954 34.8851C48.8485 34.6577 48.7054 34.4075 48.5242 34.2061C48.4183 34.0886 48.2958 33.9888 48.1491 33.9269C47.5996 33.6949 45.1244 33.8375 44.3282 33.8257C43.7305 33.8159 43.1335 33.7905 42.5371 33.7494C41.9407 33.7084 41.3458 33.6517 40.7524 33.5795C40.159 33.5072 39.5678 33.4195 38.9789 33.3162C38.39 33.213 37.8043 33.0944 37.2216 32.9604C37.0896 32.93 36.959 32.8924 36.8282 32.8573C36.6775 32.8311 36.5272 32.8059 36.3756 32.786C35.6497 32.6255 34.9391 32.4123 34.2559 32.1178Z" fill="#007AFF"/>
<path d="M24.5092 53.7157C24.5436 54.0201 24.5937 54.3177 24.6904 54.6092L24.7555 54.6791C24.9892 54.7559 25.2438 54.7504 25.4876 54.7683C25.5952 54.7721 25.7047 54.7717 25.8114 54.7873C26.4013 54.8522 27.2707 54.8831 27.8139 55.0735C27.3394 55.2284 26.14 55.2314 25.5721 55.2858L23.9702 55.4418C23.7444 55.4656 23.5084 55.5179 23.2827 55.525C22.4415 55.6628 21.6144 55.8164 20.7845 56.0126C20.1244 56.2173 19.453 56.3734 18.798 56.6002C17.9821 56.8826 17.1647 57.2512 16.3286 57.4587V57.5357C16.4871 57.5479 16.645 57.5575 16.8012 57.5887C16.8796 57.823 16.9617 58.056 17.0477 58.2877C17.1337 58.5193 17.2235 58.7494 17.3171 58.978C17.4107 59.2066 17.5081 59.4336 17.6092 59.659C17.7102 59.8844 17.815 60.108 17.9235 60.3299C18.032 60.5518 18.1441 60.7718 18.2598 60.99C18.3755 61.2081 18.4948 61.4243 18.6177 61.6385C18.7406 61.8526 18.867 62.0647 18.9968 62.2747C19.1267 62.4847 19.26 62.6924 19.3967 62.898C19.5334 63.1034 19.6735 63.3066 19.8169 63.5075C19.9604 63.7084 20.1071 63.9068 20.2571 64.1027C20.407 64.2987 20.5602 64.4922 20.7166 64.683C20.8729 64.8738 21.0324 65.062 21.195 65.2476C21.3575 65.4331 21.5231 65.6159 21.6917 65.7959C21.8604 65.976 22.0319 66.1531 22.2063 66.3274C22.3808 66.5018 22.5581 66.6731 22.7382 66.8415C22.9183 67.0099 23.1011 67.1753 23.2867 67.3376C23.511 67.5364 24.2454 68.2812 24.4405 68.3953C24.4766 68.4163 24.5075 68.4197 24.5482 68.4213C24.5801 68.3791 24.5965 68.3683 24.5901 68.3123C24.5831 68.2511 24.5462 68.1882 24.5112 68.1389C24.4171 68.006 24.2983 67.8945 24.1987 67.7662L24.1421 67.6934C23.826 67.2864 23.5066 66.8752 23.2119 66.4537C22.6328 65.6275 22.1004 64.7718 21.6148 63.8868C21.4672 63.6168 21.2952 63.3282 21.1834 63.0421C20.7787 62.281 20.4406 61.4458 20.1036 60.6517C19.8854 60.0069 19.068 58.159 19.1388 57.5697C19.1458 57.5645 19.1523 57.5586 19.1598 57.5542C19.218 57.5198 19.2958 57.5156 19.3603 57.5326C19.8122 57.6515 20.0138 58.3438 20.2218 58.7021C20.2852 58.7445 20.3659 58.7494 20.4403 58.7562C20.6778 58.7778 20.9223 58.7685 21.161 58.7776C21.6795 58.7975 22.6633 58.8518 23.1536 58.9515C23.7001 59.0627 24.2535 59.1337 24.7996 59.2417C25.0619 59.2936 25.3195 59.3672 25.5816 59.4203C25.8599 59.4765 26.143 59.506 26.4219 59.5588L26.4893 59.5715C27.4847 59.7597 28.4952 59.9508 29.5019 60.0584C31.6277 60.2857 33.8438 60.1466 35.9493 59.7952C37.0996 59.6033 38.2619 59.3393 39.3857 59.0265C41.2742 58.5009 43.0165 57.7337 45.0251 58.0133C46.6983 58.2461 48.233 59.6892 49.519 60.7038C52.0541 62.7039 53.5926 62.9429 56.7307 63.1355C57.7622 63.1987 58.9046 63.3107 59.8836 63.6625C61.1035 64.1008 62.2351 64.8245 63.3457 65.4838C64.7208 66.3002 66.1349 67.1625 67.6342 67.7273C67.9755 67.8558 68.3302 67.9429 68.6776 68.0523C69.2196 68.223 69.758 68.4392 70.3278 68.5L70.3281 68.4902C70.3298 68.4368 70.3303 68.4213 70.2808 68.3806C70.1349 68.261 69.236 67.8614 68.9713 67.7226C66.3976 66.3733 63.2611 64.463 61.5089 62.1131C61.2261 61.7339 60.9792 61.2936 60.7525 60.878C60.6725 60.7314 60.6149 60.5671 60.5232 60.4288C60.3634 60.3862 60.1389 60.5929 59.9669 60.6265C59.7766 60.6636 59.5656 60.6567 59.3722 60.661C58.9818 60.6697 58.5772 60.6367 58.2061 60.5071C57.8407 60.3796 57.4997 60.1643 57.1874 59.9383C56.0458 59.1119 55.2471 57.9487 54.4168 56.829C54.1708 56.4973 53.9063 56.1773 53.6533 55.8504C52.9526 54.9449 52.202 54.0431 51.1796 53.4944C49.635 52.6654 47.9103 53.0354 46.2556 53.1446C45.4421 53.1982 44.6146 53.1887 43.8147 53.0155C41.8954 52.6001 40.5522 51.1804 38.8945 50.25C37.7838 49.6264 36.574 49.2018 35.5232 48.4713C34.6812 47.886 34.0636 47.1572 33.8816 46.124C33.5652 44.3277 34.3973 41.1936 35.0594 39.525C35.3113 38.8905 35.6218 38.2765 35.9541 37.681C36.2113 37.2202 36.4795 36.7807 36.7926 36.3553C36.936 36.1606 37.1203 35.9839 37.2479 35.7806C37.3446 35.6267 36.9833 35.3994 36.9422 35.2188C36.9271 35.1525 36.9419 35.0946 36.9799 35.0389C37.0375 34.9546 37.168 34.8995 37.2599 34.8678C38.1177 34.5711 38.9507 35.8362 39.8428 35.7207C39.9431 35.7068 40.0421 35.6865 40.1398 35.6597C40.2375 35.633 40.333 35.6 40.4264 35.5608C40.7082 35.4435 41.4474 35.0298 41.6121 34.7876C41.6556 34.7235 41.6597 34.6924 41.6498 34.6172C41.4741 34.5534 40.8978 34.6948 40.6837 34.7139C40.4669 34.7334 40.2657 34.728 40.0561 34.7723C38.7153 35.056 34.2268 32.399 32.1864 31.944C31.7271 31.8416 31.2736 31.6994 30.8168 31.5841C30.1292 31.4153 29.4373 31.2665 28.7411 31.1379C28.3865 31.0728 28.0264 31.0757 27.6724 31.021C27.4549 30.9874 27.2758 30.8576 27.0483 30.8887C26.957 30.9553 26.93 31.224 26.9134 31.3342C26.7963 32.1142 26.7657 33.4001 27.26 34.0546C27.3871 34.223 27.5475 34.3334 27.7588 34.3602C28.4571 34.4487 29.1617 33.7282 29.6324 33.7816C29.7668 33.7969 29.913 33.8809 30.0332 33.9413C30.3311 34.091 30.5779 34.3127 30.7881 34.5703C31.5739 35.5339 32.1287 36.7108 33.5036 36.8609C33.5481 36.8662 33.5926 36.8703 33.6372 36.8733C33.6818 36.8763 33.7265 36.8782 33.7712 36.879C33.816 36.8798 33.8607 36.8795 33.9053 36.8782C33.95 36.8767 33.9947 36.8742 34.0393 36.8706C34.0839 36.867 34.1283 36.8622 34.1727 36.8564C34.2171 36.8506 34.2612 36.8436 34.3052 36.8356C34.3492 36.8276 34.393 36.8185 34.4366 36.8083C34.4801 36.7981 34.5234 36.7869 34.5665 36.7745C34.6095 36.7623 34.6522 36.7489 34.6945 36.7344C34.7369 36.72 34.7788 36.7045 34.8204 36.6879C34.862 36.6714 34.9032 36.6538 34.944 36.6352C34.9847 36.6167 35.0249 36.5972 35.0647 36.5766C35.1045 36.556 35.1437 36.5344 35.1824 36.5119C35.2211 36.4894 35.2593 36.466 35.2968 36.4416C35.3344 36.4172 35.3714 36.3919 35.4077 36.3656C35.444 36.3394 35.4796 36.3123 35.5146 36.2843C35.7664 36.08 36.0195 35.7712 36.3289 35.6616L36.3708 35.6771C36.3527 35.9062 35.9504 36.262 35.7871 36.402C34.8572 37.1983 33.5921 37.2682 32.5996 37.9506C31.6881 38.5774 30.986 39.4795 30.2273 40.2754C28.1591 42.4449 25.7764 44.7248 25.0334 47.7479C24.966 48.0222 24.8691 48.3191 24.8434 48.6001C24.8356 48.6849 24.8263 48.754 24.8774 48.8231C24.9462 48.8156 24.9664 48.8078 25.0221 48.7652C25.1731 48.6498 25.2962 48.4777 25.4245 48.3378C25.5804 48.168 25.753 48.0117 25.9284 47.8624C26.7743 47.1422 27.9589 46.3877 29.0623 46.1805C29.2378 46.1476 29.4285 46.1451 29.6069 46.1348C29.7638 46.1257 30.0701 46.0872 30.1971 46.1905C30.231 46.2182 30.2236 46.2299 30.2299 46.2706C30.0344 46.5178 29.3441 46.5488 29.0487 46.6184C28.7791 46.682 28.48 46.7611 28.2273 46.876C27.6077 47.1574 27.007 47.5275 26.524 48.0126C25.1918 49.3508 24.2968 51.8376 24.5092 53.7157Z" fill="#007AFF"/>
<path d="M83.4443 23.5001V26.8472H89.0228V23.5001H90.1385V31.31H89.0228V27.9629H83.4443V31.31H82.3286V23.5001H83.4443Z" fill="#007AFF"/>
<path d="M93.8182 31.31V23.5001H94.9339V29.6922L100.512 23.5001H101.628V31.31H100.512V25.0063L94.9339 31.31H93.8182Z" fill="#007AFF"/>
<path d="M109.436 26.4679V23.5001H110.551V26.4679L113.899 24.6158V23.5001H115.014V25.2741L111.143 27.4162L115.014 29.5584V31.31H113.899V30.2166L110.551 28.3646V31.31H109.436V28.3646L106.089 30.2166V31.31H104.973V29.5584L108.844 27.4162L104.973 25.2741V23.5001H106.089V24.6158L109.436 26.4679Z" fill="#007AFF"/>
<path d="M119.482 24.6158V26.8472H125.06V27.9629H119.482V30.1943H126.176V31.31H118.366V23.5001H126.176V24.6158H119.482Z" fill="#007AFF"/>
<path d="M136.332 24.6158H130.753V31.31H129.638V23.5001H136.332V24.6158Z" fill="#007AFF"/>
<path d="M145.825 29.0786V25.7315C145.825 25.1179 145.323 24.6158 144.709 24.6158H141.362C140.749 24.6158 140.247 25.1179 140.247 25.7315V29.0786C140.247 29.6922 140.749 30.1943 141.362 30.1943H144.709C145.323 30.1943 145.825 29.6922 145.825 29.0786ZM146.941 25.7315V29.0786C146.941 30.3059 145.937 31.31 144.709 31.31H141.362C140.124 31.31 139.131 30.317 139.131 29.0786V25.7315C139.131 24.5042 140.135 23.5001 141.362 23.5001H144.709C145.892 23.5001 146.941 24.5154 146.941 25.7315Z" fill="#007AFF"/>
<path d="M157.208 26.8472V25.7315C157.208 25.1179 156.706 24.6158 156.093 24.6158H151.63V27.9629H156.093C156.706 27.9629 157.208 27.4608 157.208 26.8472ZM158.324 25.7315V26.8472C158.324 28.0298 157.342 29.0786 156.093 29.0786H151.63V31.31H150.514V23.5001H156.093C157.286 23.5001 158.29 24.4931 158.324 25.7315Z" fill="#007AFF"/>
<path d="M168.368 29.0786V25.7315C168.368 25.1179 167.866 24.6158 167.253 24.6158H163.905C163.292 24.6158 162.79 25.1179 162.79 25.7315V29.0786C162.79 29.6922 163.292 30.1943 163.905 30.1943H167.253C167.866 30.1943 168.368 29.6922 168.368 29.0786ZM169.484 25.7315V29.0786C169.484 30.3059 168.48 31.31 167.253 31.31H163.905C162.667 31.31 161.674 30.317 161.674 29.0786V25.7315C161.674 24.5042 162.678 23.5001 163.905 23.5001H167.253C168.435 23.5001 169.484 24.5154 169.484 25.7315Z" fill="#007AFF"/>
<path d="M174.731 25.7315V30.1943H180.309V24.6158H175.847C175.233 24.6158 174.731 25.1179 174.731 25.7315ZM172.499 31.31V30.1943H173.615V25.7315C173.615 24.5489 174.597 23.5001 175.847 23.5001H181.425V30.1943H182.541V31.31H172.499Z" fill="#007AFF"/>
<path d="M87.5352 36.8885H95.3451C98.1307 36.8885 100.474 39.2054 100.552 42.0951H97.9484C97.9484 40.6633 96.777 39.4918 95.3451 39.4918H87.5352C86.1034 39.4918 84.9319 40.6633 84.9319 42.0951V49.905C84.9319 51.3368 86.1034 52.5083 87.5352 52.5083H95.3451C96.777 52.5083 97.9484 51.3368 97.9484 49.905H100.552C100.552 52.6645 98.2608 55.1116 95.3451 55.1116H87.5352C84.7497 55.1116 82.3286 52.8467 82.3286 49.905V42.0951C82.3286 39.2835 84.6195 36.9666 87.5352 36.8885Z" fill="#007AFF"/>
<path d="M120.585 39.4918H112.775V55.1116H110.172V39.4918H102.362V36.8885H120.585V39.4918Z" fill="#007AFF"/>
<path d="M135.441 39.4918H127.631C126.199 39.4918 125.028 40.6633 125.028 42.0951V47.3017H138.044V42.0951C138.044 40.6633 136.873 39.4918 135.441 39.4918ZM140.648 42.0951V55.1116H138.044V49.905H125.028V55.1116H122.425V42.0951C122.425 39.3356 124.715 36.8885 127.631 36.8885H135.441C138.227 36.8885 140.57 39.2054 140.648 42.0951Z" fill="#007AFF"/>
<path d="M149.494 36.8885H162.51V55.1116H159.907V39.4918H149.494C148.062 39.4918 146.89 40.6633 146.89 42.0951V55.1116H144.287V42.0951C144.287 39.2835 146.578 36.9666 149.494 36.8885Z" fill="#007AFF"/>
<path d="M181.77 49.905V48.6034C181.77 47.1715 180.598 46.0001 179.166 46.0001H168.753V52.5083H179.166C180.598 52.5083 181.77 51.3368 181.77 49.905ZM184.373 48.6034V49.905C184.373 52.6645 182.082 55.1116 179.166 55.1116H166.15V36.8885H168.753V43.3968H179.166C181.952 43.3968 184.295 45.7137 184.373 48.6034Z" fill="#007AFF"/>
<path d="M84.56 60.6902H87.9071C89.1009 60.6902 90.1051 61.6832 90.1385 62.9216H89.0228C89.0228 62.308 88.5208 61.8059 87.9071 61.8059H84.56C83.9464 61.8059 83.4443 62.308 83.4443 62.9216V66.2687C83.4443 66.8823 83.9464 67.3844 84.56 67.3844H87.9071C88.5208 67.3844 89.0228 66.8823 89.0228 66.2687H90.1385C90.1385 67.4513 89.1567 68.5001 87.9071 68.5001H84.56C83.3662 68.5001 82.3286 67.5294 82.3286 66.2687V62.9216C82.3286 61.7166 83.3105 60.7237 84.56 60.6902Z" fill="#007AFF"/>
<path d="M98.0548 61.8059V64.0373H103.633V65.153H98.0548V67.3844H104.749V68.5001H96.9391V60.6902H104.749V61.8059H98.0548Z" fill="#007AFF"/>
<path d="M118.252 64.0373V62.9216C118.252 62.308 117.75 61.8059 117.136 61.8059H112.674V65.153H117.136C117.75 65.153 118.252 64.6509 118.252 64.0373ZM119.368 62.9216V64.0373C119.368 65.2199 118.386 66.2687 117.136 66.2687H112.674V68.5001H111.558V60.6902H117.136C118.33 60.6902 119.334 61.6832 119.368 62.9216Z" fill="#007AFF"/>
<path d="M131.755 68.5001H126.177V60.6902H131.755C132.927 60.6902 133.986 61.6832 133.986 62.9216C133.986 63.591 133.73 64.1489 133.228 64.5951C133.73 65.0414 133.986 65.5993 133.986 66.2687C133.986 67.4737 133.005 68.4666 131.755 68.5001ZM131.755 65.153H127.292V67.3844H131.755C132.369 67.3844 132.871 66.8823 132.871 66.2687C132.871 65.6551 132.369 65.153 131.755 65.153ZM127.292 61.8059V64.0373H131.755C132.369 64.0373 132.871 63.5352 132.871 62.9216C132.871 62.308 132.369 61.8059 131.755 61.8059H127.292Z" fill="#007AFF"/>
<path d="M140.904 68.5001V60.6902H142.02V66.8823L147.598 60.6902H148.714V68.5001H147.598V62.1964L142.02 68.5001H140.904Z" fill="#007AFF"/>
<path d="M157.861 60.6902H161.208C162.402 60.6902 163.406 61.6832 163.439 62.9216H162.323C162.323 62.308 161.821 61.8059 161.208 61.8059H157.861C157.247 61.8059 156.745 62.308 156.745 62.9216V66.2687C156.745 66.8823 157.247 67.3844 157.861 67.3844H161.208C161.821 67.3844 162.323 66.8823 162.323 66.2687H163.439C163.439 67.4513 162.457 68.5001 161.208 68.5001H157.861C156.667 68.5001 155.629 67.5294 155.629 66.2687V62.9216C155.629 61.7166 156.611 60.7237 157.861 60.6902Z" fill="#007AFF"/>
</svg>
