<svg width="200" height="92" viewBox="0 0 200 92" fill="none" xmlns="http://www.w3.org/2000/svg">
<rect width="200" height="91" transform="translate(0 0.5)" fill="#007AFF"/>
<path d="M57.4571 23.5H58.354C58.3275 23.5085 58.3098 23.5152 58.2835 23.5205C58.1376 23.55 57.5722 23.5724 57.4571 23.5Z" fill="white"/>
<path d="M34.2564 32.1178C34.0137 31.9822 33.7594 31.871 33.5273 31.7155C32.9262 31.3131 32.3926 30.6097 32.1904 29.9147C31.9355 29.0382 32.1707 28.096 32.6022 27.3155C32.8367 26.8911 33.2444 26.4257 33.724 26.2857C34.0146 26.2009 34.3102 26.1965 34.5827 26.3461C34.8059 26.4686 34.9907 26.6858 35.0575 26.9344C35.0943 27.0717 35.0994 27.2491 35.0291 27.3771C34.7701 27.8494 34.0339 27.6902 33.8205 28.768C33.7605 29.0706 33.7597 29.3819 33.8333 29.6822C34.001 30.367 34.5673 30.9145 35.1515 31.267C36.4513 32.0512 38.0383 32.0443 39.4692 31.6768C41.0161 31.2794 42.9802 30.2476 43.8137 28.8342C44.0678 28.4034 44.3073 27.8966 44.1733 27.3864C44.0067 26.7523 43.3759 26.2844 43.2286 25.839C43.183 25.7012 43.1948 25.5568 43.2638 25.4293C43.3456 25.2781 43.5311 25.0935 43.6968 25.0489C43.8983 24.9946 44.1306 25.0478 44.3064 25.1538C44.7797 25.4392 45.0615 26.1505 45.1746 26.6653C45.4102 27.7381 45.3375 28.7634 44.7363 29.7043C43.8888 31.0306 42.1319 31.7345 40.6542 32.049C40.3774 32.1079 39.282 32.2153 39.1469 32.3194C39.1142 32.389 39.1034 32.3982 39.1176 32.4767C39.1713 32.5425 39.2276 32.5717 39.3086 32.5968C39.5164 32.6614 39.7451 32.6713 39.959 32.7123C40.6286 32.8406 41.1173 32.9484 41.8108 33.0167C42.1154 33.046 42.4207 33.0656 42.7267 33.0753C43.0326 33.0851 43.3385 33.0851 43.6445 33.0752C43.9504 33.0654 44.2557 33.0458 44.5604 33.0164C44.8651 32.9869 45.1685 32.9478 45.4707 32.8989C47.9002 32.511 51.7979 31.1025 53.6993 29.5237C54.4557 28.8956 55.074 28.1477 55.5049 27.2594C55.6631 26.9332 55.7916 26.5866 55.8989 26.2403C56.1118 25.5539 56.3183 24.3331 56.9091 23.8945C57.1667 23.7033 57.8946 23.7126 58.2198 23.7395C58.4661 23.7599 58.6523 23.8592 58.8112 24.0484C59.1513 24.4532 59.2744 24.9822 59.2287 25.5017C59.0833 27.1543 57.6338 28.2719 56.4582 29.2493C55.2103 30.2867 53.993 31.3266 52.5803 32.138C52.2156 32.3481 51.8363 32.5269 51.4425 32.6745C51.1567 32.7788 50.8563 32.8568 50.5767 32.9755C50.4952 33.0102 50.4242 33.0322 50.3703 33.1043C50.3733 33.1689 50.3651 33.2023 50.4248 33.2427C50.5483 33.3264 50.8809 33.2939 51.033 33.2932C52.8821 33.2848 54.9972 32.7284 56.7385 32.1116C57.4943 31.8439 58.2333 31.5459 58.949 31.1817C60.4963 30.3944 63.0986 28.679 63.8794 27.053C64.0528 26.692 64.0551 26.3416 64.1305 25.9575C64.1605 25.8049 64.2226 25.6606 64.2636 25.511C64.3844 25.07 64.5393 24.7264 64.9948 24.5565C65.1713 24.4907 65.3528 24.507 65.5202 24.5904C65.7957 24.7276 65.9786 24.9972 66.0657 25.287C66.2546 25.9157 66.0262 26.6148 65.724 27.1663C65.4927 27.5885 65.1812 27.9833 64.835 28.3163C64.3629 28.7705 63.7953 29.151 63.2681 29.5371C62.1986 30.328 61.1032 31.0807 59.9818 31.7952C59.8013 31.9087 59.2828 32.132 59.355 32.389C59.4729 32.8087 60.3597 33.4057 60.7559 33.5966C61.7587 34.0801 62.8211 33.8982 63.8264 33.5323C64.237 33.3827 64.9697 32.9417 65.3935 33.1319C65.5529 33.2035 65.7303 33.3642 65.7893 33.5327C65.8264 33.6384 65.807 33.7498 65.755 33.8468C65.481 34.3583 64.5982 34.73 64.0692 34.8705C63.6596 34.9794 63.2187 35.065 62.7943 35.0511C61.389 35.0055 59.7432 34.0492 58.3384 33.765C57.6647 33.6287 56.8894 33.6442 56.2063 33.7164C55.8137 33.7696 55.4195 33.8163 55.0275 33.874C54.7757 33.911 54.5203 33.9679 54.2665 33.985C53.5417 34.0337 51.7433 33.8924 51.1919 34.1018C50.8668 34.3392 50.6891 34.5514 50.5643 34.9386C50.6074 35.1544 50.6672 35.3694 50.7788 35.5605C51.2456 36.3591 52.252 36.0718 53.0012 36.2745C53.0587 36.4357 53.0938 36.5906 53.1195 36.7597C53.0358 36.9825 52.9289 37.1466 52.7279 37.2802C52.4449 37.4683 52.1107 37.4607 51.7899 37.4004C51.4136 37.3297 51.0599 37.1436 50.7492 36.924C50.365 36.6523 50.0147 36.305 49.7233 35.9355C49.4593 35.6006 49.2272 35.243 48.9959 34.8851C48.849 34.6577 48.7059 34.4075 48.5246 34.2061C48.4188 34.0886 48.2962 33.9888 48.1496 33.9269C47.6001 33.6949 45.1249 33.8375 44.3287 33.8257C43.731 33.8159 43.134 33.7905 42.5376 33.7494C41.9412 33.7084 41.3463 33.6517 40.7529 33.5795C40.1595 33.5072 39.5683 33.4195 38.9794 33.3162C38.3905 33.213 37.8047 33.0944 37.222 32.9604C37.09 32.93 36.9595 32.8924 36.8286 32.8573C36.678 32.8311 36.5277 32.8059 36.3761 32.786C35.6502 32.6255 34.9396 32.4123 34.2564 32.1178Z" fill="white"/>
<path d="M24.5097 53.7157C24.5441 54.0201 24.5942 54.3177 24.6909 54.6092L24.756 54.6791C24.9897 54.7559 25.2442 54.7504 25.4881 54.7683C25.5957 54.7721 25.7052 54.7717 25.8119 54.7873C26.4018 54.8522 27.2712 54.8831 27.8144 55.0735C27.3399 55.2284 26.1404 55.2314 25.5725 55.2858L23.9707 55.4418C23.7449 55.4656 23.5089 55.5179 23.2832 55.525C22.442 55.6628 21.6149 55.8164 20.785 56.0126C20.1248 56.2173 19.4535 56.3734 18.7985 56.6002C17.9826 56.8826 17.1652 57.2512 16.3291 57.4587V57.5357C16.4876 57.5479 16.6455 57.5575 16.8017 57.5887C16.88 57.823 16.9622 58.056 17.0482 58.2877C17.1342 58.5193 17.224 58.7494 17.3176 58.978C17.4112 59.2066 17.5085 59.4336 17.6096 59.659C17.7107 59.8844 17.8155 60.108 17.924 60.3299C18.0324 60.5518 18.1446 60.7718 18.2603 60.99C18.376 61.2081 18.4953 61.4243 18.6182 61.6385C18.7411 61.8526 18.8674 62.0647 18.9973 62.2747C19.1272 62.4847 19.2605 62.6924 19.3972 62.898C19.5339 63.1034 19.674 63.3066 19.8174 63.5075C19.9608 63.7084 20.1076 63.9068 20.2575 64.1027C20.4075 64.2987 20.5607 64.4922 20.717 64.683C20.8734 64.8738 21.0329 65.062 21.1955 65.2476C21.358 65.4331 21.5236 65.6159 21.6922 65.7959C21.8608 65.976 22.0324 66.1531 22.2068 66.3274C22.3813 66.5018 22.5586 66.6731 22.7387 66.8415C22.9188 67.0099 23.1016 67.1753 23.2872 67.3376C23.5115 67.5364 24.2459 68.2812 24.441 68.3953C24.4771 68.4163 24.508 68.4197 24.5487 68.4213C24.5806 68.3791 24.597 68.3683 24.5905 68.3123C24.5836 68.2511 24.5467 68.1882 24.5117 68.1389C24.4176 68.006 24.2988 67.8945 24.1991 67.7662L24.1426 67.6934C23.8264 67.2864 23.507 66.8752 23.2124 66.4537C22.6332 65.6275 22.1009 64.7719 21.6152 63.8868C21.4677 63.6168 21.2956 63.3282 21.1838 63.0421C20.7792 62.281 20.441 61.4458 20.1041 60.6517C19.8859 60.0069 19.0684 58.159 19.1393 57.5697C19.1463 57.5645 19.1528 57.5586 19.1603 57.5542C19.2184 57.5198 19.2963 57.5156 19.3607 57.5326C19.8126 57.6515 20.0142 58.3438 20.2223 58.7021C20.2856 58.7445 20.3664 58.7494 20.4407 58.7562C20.6783 58.7778 20.9228 58.7685 21.1615 58.7776C21.68 58.7975 22.6638 58.8518 23.1541 58.9515C23.7006 59.0627 24.2539 59.1337 24.8001 59.2417C25.0623 59.2936 25.32 59.3672 25.5821 59.4203C25.8604 59.4765 26.1435 59.506 26.4224 59.5588L26.4897 59.5715C27.4852 59.7597 28.4956 59.9508 29.5024 60.0584C31.6281 60.2857 33.8443 60.1466 35.9498 59.7952C37.1001 59.6033 38.2624 59.3393 39.3862 59.0265C41.2746 58.5009 43.0169 57.7337 45.0256 58.0133C46.6988 58.2461 48.2334 59.6892 49.5195 60.7038C52.0546 62.7039 53.5931 62.9429 56.7312 63.1355C57.7626 63.1987 58.9051 63.3107 59.884 63.6625C61.1039 64.1008 62.2356 64.8245 63.3462 65.4838C64.7213 66.3003 66.1354 67.1625 67.6347 67.7273C67.976 67.8558 68.3306 67.9429 68.6781 68.0523C69.2201 68.223 69.7585 68.4392 70.3283 68.5L70.3286 68.4902C70.3303 68.4368 70.3308 68.4213 70.2813 68.3806C70.1353 68.261 69.2365 67.8614 68.9718 67.7226C66.398 66.3733 63.2616 64.463 61.5094 62.1131C61.2265 61.7339 60.9797 61.2936 60.7529 60.878C60.673 60.7314 60.6154 60.5671 60.5236 60.4288C60.3639 60.3862 60.1394 60.5929 59.9674 60.6265C59.7771 60.6636 59.5661 60.6567 59.3726 60.661C58.9823 60.6697 58.5777 60.6367 58.2066 60.5071C57.8412 60.3796 57.5002 60.1643 57.1879 59.9383C56.0463 59.1119 55.2476 57.9487 54.4173 56.829C54.1713 56.4973 53.9068 56.1773 53.6538 55.8504C52.9531 54.9449 52.2025 54.0431 51.1801 53.4944C49.6355 52.6654 47.9108 53.0354 46.2561 53.1446C45.4426 53.1982 44.6151 53.1887 43.8151 53.0155C41.8959 52.6001 40.5527 51.1804 38.895 50.25C37.7842 49.6264 36.5744 49.2018 35.5236 48.4713C34.6817 47.886 34.0641 47.1572 33.8821 46.124C33.5656 44.3277 34.3978 41.1936 35.0599 39.525C35.3117 38.8905 35.6223 38.2765 35.9546 37.681C36.2118 37.2202 36.4799 36.7807 36.7931 36.3553C36.9364 36.1606 37.1207 35.9839 37.2484 35.7806C37.345 35.6267 36.9838 35.3994 36.9427 35.2188C36.9276 35.1525 36.9424 35.0946 36.9804 35.0389C37.038 34.9546 37.1685 34.8995 37.2604 34.8678C38.1182 34.5711 38.9511 35.8362 39.8433 35.7207C39.9436 35.7068 40.0426 35.6865 40.1403 35.6597C40.2379 35.633 40.3335 35.6 40.4269 35.5608C40.7087 35.4435 41.4479 35.0298 41.6126 34.7876C41.6561 34.7235 41.6602 34.6924 41.6503 34.6172C41.4746 34.5534 40.8982 34.6948 40.6842 34.7139C40.4674 34.7334 40.2662 34.728 40.0566 34.7723C38.7158 35.056 34.2272 32.399 32.1868 31.944C31.7275 31.8416 31.274 31.6994 30.8173 31.5841C30.1297 31.4153 29.4378 31.2665 28.7416 31.1379C28.3869 31.0728 28.0269 31.0757 27.6729 31.021C27.4554 30.9874 27.2763 30.8576 27.0488 30.8887C26.9575 30.9553 26.9305 31.224 26.9139 31.3342C26.7967 32.1142 26.7662 33.4001 27.2604 34.0546C27.3876 34.223 27.5479 34.3334 27.7593 34.3602C28.4576 34.4487 29.1622 33.7282 29.6329 33.7816C29.7673 33.7969 29.9135 33.8809 30.0336 33.9413C30.3316 34.091 30.5784 34.3127 30.7886 34.5703C31.5744 35.5339 32.1292 36.7108 33.5041 36.8609C33.5486 36.8662 33.5931 36.8703 33.6377 36.8733C33.6823 36.8763 33.727 36.8782 33.7717 36.879C33.8164 36.8798 33.8611 36.8795 33.9058 36.8782C33.9505 36.8767 33.9952 36.8742 34.0398 36.8706C34.0843 36.867 34.1288 36.8622 34.1731 36.8564C34.2175 36.8506 34.2617 36.8436 34.3057 36.8356C34.3497 36.8276 34.3935 36.8185 34.4371 36.8083C34.4806 36.7981 34.5239 36.7869 34.5669 36.7745C34.61 36.7623 34.6526 36.7489 34.695 36.7344C34.7373 36.72 34.7793 36.7045 34.8209 36.6879C34.8625 36.6714 34.9037 36.6538 34.9444 36.6352C34.9851 36.6167 35.0254 36.5972 35.0651 36.5766C35.1049 36.556 35.1442 36.5344 35.1829 36.5119C35.2216 36.4894 35.2597 36.466 35.2973 36.4416C35.3349 36.4172 35.3718 36.3919 35.4082 36.3656C35.4444 36.3394 35.4801 36.3123 35.5151 36.2843C35.7669 36.08 36.0199 35.7712 36.3294 35.6616L36.3713 35.677C36.3531 35.9062 35.9509 36.262 35.7876 36.402C34.8577 37.1983 33.5926 37.2682 32.6001 37.9506C31.6886 38.5774 30.9865 39.4795 30.2277 40.2754C28.1596 42.4449 25.7768 44.7248 25.0339 47.7479C24.9665 48.0222 24.8696 48.3191 24.8439 48.6001C24.836 48.6849 24.8268 48.754 24.8779 48.8231C24.9467 48.8156 24.9669 48.8078 25.0226 48.7652C25.1736 48.6498 25.2967 48.4777 25.425 48.3378C25.5809 48.168 25.7535 48.0117 25.9289 47.8624C26.7748 47.1422 27.9594 46.3877 29.0628 46.1805C29.2383 46.1476 29.429 46.1451 29.6074 46.1348C29.7643 46.1257 30.0706 46.0872 30.1976 46.1905C30.2315 46.2182 30.2241 46.2299 30.2303 46.2706C30.0349 46.5178 29.3446 46.5488 29.0492 46.6184C28.7796 46.682 28.4804 46.7611 28.2278 46.876C27.6082 47.1574 27.0074 47.5275 26.5245 48.0126C25.1923 49.3508 24.2973 51.8376 24.5097 53.7157Z" fill="white"/>
<path d="M83.4448 23.5001V26.8472H89.0233V23.5001H90.139V31.31H89.0233V27.9629H83.4448V31.31H82.3291V23.5001H83.4448Z" fill="white"/>
<path d="M93.8186 31.31V23.5001H94.9343V29.6922L100.513 23.5001H101.629V31.31H100.513V25.0063L94.9343 31.31H93.8186Z" fill="white"/>
<path d="M109.436 26.4679V23.5001H110.552V26.4679L113.899 24.6158V23.5001H115.015V25.2741L111.143 27.4162L115.015 29.5583V31.31H113.899V30.2166L110.552 28.3645V31.31H109.436V28.3645L106.089 30.2166V31.31H104.973V29.5583L108.845 27.4162L104.973 25.2741V23.5001H106.089V24.6158L109.436 26.4679Z" fill="white"/>
<path d="M119.482 24.6158V26.8472H125.061V27.9629H119.482V30.1943H126.177V31.31H118.367V23.5001H126.177V24.6158H119.482Z" fill="white"/>
<path d="M136.332 24.6158H130.754V31.31H129.638V23.5001H136.332V24.6158Z" fill="white"/>
<path d="M145.826 29.0786V25.7315C145.826 25.1179 145.323 24.6158 144.71 24.6158H141.363C140.749 24.6158 140.247 25.1179 140.247 25.7315V29.0786C140.247 29.6922 140.749 30.1943 141.363 30.1943H144.71C145.323 30.1943 145.826 29.6922 145.826 29.0786ZM146.941 25.7315V29.0786C146.941 30.3059 145.937 31.31 144.71 31.31H141.363C140.124 31.31 139.131 30.317 139.131 29.0786V25.7315C139.131 24.5042 140.135 23.5001 141.363 23.5001H144.71C145.892 23.5001 146.941 24.5154 146.941 25.7315Z" fill="white"/>
<path d="M157.209 26.8472V25.7315C157.209 25.1179 156.707 24.6158 156.093 24.6158H151.63V27.9629H156.093C156.707 27.9629 157.209 27.4608 157.209 26.8472ZM158.324 25.7315V26.8472C158.324 28.0298 157.343 29.0786 156.093 29.0786H151.63V31.31H150.514V23.5001H156.093C157.287 23.5001 158.291 24.4931 158.324 25.7315Z" fill="white"/>
<path d="M168.369 29.0786V25.7315C168.369 25.1179 167.867 24.6158 167.253 24.6158H163.906C163.292 24.6158 162.79 25.1179 162.79 25.7315V29.0786C162.79 29.6922 163.292 30.1943 163.906 30.1943H167.253C167.867 30.1943 168.369 29.6922 168.369 29.0786ZM169.484 25.7315V29.0786C169.484 30.3059 168.48 31.31 167.253 31.31H163.906C162.668 31.31 161.675 30.317 161.675 29.0786V25.7315C161.675 24.5042 162.679 23.5001 163.906 23.5001H167.253C168.436 23.5001 169.484 24.5154 169.484 25.7315Z" fill="white"/>
<path d="M174.731 25.7315V30.1943H180.31V24.6158H175.847C175.233 24.6158 174.731 25.1179 174.731 25.7315ZM172.5 31.31V30.1943H173.616V25.7315C173.616 24.5488 174.597 23.5001 175.847 23.5001H181.425V30.1943H182.541V31.31H172.5Z" fill="white"/>
<path d="M87.5357 36.8885H95.3456C98.1311 36.8885 100.474 39.2054 100.552 42.0951H97.9489C97.9489 40.6633 96.7774 39.4918 95.3456 39.4918H87.5357C86.1039 39.4918 84.9324 40.6633 84.9324 42.0951V49.905C84.9324 51.3368 86.1039 52.5083 87.5357 52.5083H95.3456C96.7774 52.5083 97.9489 51.3368 97.9489 49.905H100.552C100.552 52.6645 98.2613 55.1116 95.3456 55.1116H87.5357C84.7502 55.1116 82.3291 52.8467 82.3291 49.905V42.0951C82.3291 39.2835 84.62 36.9666 87.5357 36.8885Z" fill="white"/>
<path d="M120.585 39.4918H112.776V55.1116H110.172V39.4918H102.362V36.8885H120.585V39.4918Z" fill="white"/>
<path d="M135.442 39.4918H127.632C126.2 39.4918 125.028 40.6633 125.028 42.0951V47.3017H138.045V42.0951C138.045 40.6633 136.873 39.4918 135.442 39.4918ZM140.648 42.0951V55.1116H138.045V49.905H125.028V55.1116H122.425V42.0951C122.425 39.3356 124.716 36.8885 127.632 36.8885H135.442C138.227 36.8885 140.57 39.2054 140.648 42.0951Z" fill="white"/>
<path d="M149.494 36.8885H162.511V55.1116H159.907V39.4918H149.494C148.062 39.4918 146.891 40.6633 146.891 42.0951V55.1116H144.288V42.0951C144.288 39.2835 146.579 36.9666 149.494 36.8885Z" fill="white"/>
<path d="M181.77 49.905V48.6033C181.77 47.1715 180.599 46 179.167 46H168.754V52.5083H179.167C180.599 52.5083 181.77 51.3368 181.77 49.905ZM184.373 48.6033V49.905C184.373 52.6645 182.082 55.1116 179.167 55.1116H166.15V36.8885H168.754V43.3967H179.167C181.952 43.3967 184.295 45.7137 184.373 48.6033Z" fill="white"/>
<path d="M84.5605 60.6902H87.9076C89.1014 60.6902 90.1055 61.6832 90.139 62.9216H89.0233C89.0233 62.308 88.5212 61.8059 87.9076 61.8059H84.5605C83.9469 61.8059 83.4448 62.308 83.4448 62.9216V66.2687C83.4448 66.8823 83.9469 67.3844 84.5605 67.3844H87.9076C88.5212 67.3844 89.0233 66.8823 89.0233 66.2687H90.139C90.139 67.4513 89.1572 68.5001 87.9076 68.5001H84.5605C83.3667 68.5001 82.3291 67.5294 82.3291 66.2687V62.9216C82.3291 61.7166 83.3109 60.7237 84.5605 60.6902Z" fill="white"/>
<path d="M98.0552 61.8059V64.0373H103.634V65.153H98.0552V67.3844H104.749V68.5001H96.9395V60.6902H104.749V61.8059H98.0552Z" fill="white"/>
<path d="M118.252 64.0373V62.9216C118.252 62.308 117.75 61.8059 117.137 61.8059H112.674V65.153H117.137C117.75 65.153 118.252 64.6509 118.252 64.0373ZM119.368 62.9216V64.0373C119.368 65.2199 118.386 66.2687 117.137 66.2687H112.674V68.5001H111.558V60.6902H117.137C118.331 60.6902 119.335 61.6832 119.368 62.9216Z" fill="white"/>
<path d="M131.755 68.5001H126.177V60.6902H131.755C132.927 60.6902 133.987 61.6832 133.987 62.9216C133.987 63.591 133.73 64.1489 133.228 64.5951C133.73 65.0414 133.987 65.5993 133.987 66.2687C133.987 67.4736 133.005 68.4666 131.755 68.5001ZM131.755 65.153H127.293V67.3844H131.755C132.369 67.3844 132.871 66.8823 132.871 66.2687C132.871 65.6551 132.369 65.153 131.755 65.153ZM127.293 61.8059V64.0373H131.755C132.369 64.0373 132.871 63.5352 132.871 62.9216C132.871 62.308 132.369 61.8059 131.755 61.8059H127.293Z" fill="white"/>
<path d="M140.905 68.5001V60.6902H142.02V66.8823L147.599 60.6902H148.715V68.5001H147.599V62.1964L142.02 68.5001H140.905Z" fill="white"/>
<path d="M157.861 60.6902H161.208C162.402 60.6902 163.406 61.6832 163.44 62.9216H162.324C162.324 62.308 161.822 61.8059 161.208 61.8059H157.861C157.247 61.8059 156.745 62.308 156.745 62.9216V66.2687C156.745 66.8823 157.247 67.3844 157.861 67.3844H161.208C161.822 67.3844 162.324 66.8823 162.324 66.2687H163.44C163.44 67.4513 162.458 68.5001 161.208 68.5001H157.861C156.667 68.5001 155.63 67.5294 155.63 66.2687V62.9216C155.63 61.7166 156.612 60.7237 157.861 60.6902Z" fill="white"/>
</svg>
