<svg width="200" height="152" viewBox="0 0 200 152" fill="none" xmlns="http://www.w3.org/2000/svg">
<rect width="200" height="151.4" fill="white"/>
<path d="M119.773 14H121.029C120.991 14.0119 120.967 14.0212 120.93 14.0287C120.726 14.0701 119.934 14.1014 119.773 14Z" fill="#007AFF"/>
<path d="M87.3018 26.0649C86.9621 25.8751 86.6062 25.7193 86.2813 25.5017C85.44 24.9383 84.6933 23.9536 84.4102 22.9805C84.0535 21.7534 84.3827 20.4344 84.9866 19.3417C85.3148 18.7476 85.8855 18.0959 86.5566 17.9C86.9634 17.7813 87.3771 17.7751 87.7584 17.9845C88.0708 18.156 88.3295 18.4602 88.423 18.8082C88.4745 19.0003 88.4816 19.2487 88.3833 19.428C88.0208 20.0892 86.9904 19.8663 86.6917 21.3752C86.6078 21.7989 86.6067 22.2346 86.7096 22.6551C86.9443 23.6138 87.7369 24.3804 88.5546 24.8739C90.3737 25.9717 92.5949 25.9621 94.5976 25.4475C96.7626 24.8912 99.5115 23.4467 100.678 21.4679C101.034 20.8647 101.369 20.1552 101.181 19.441C100.948 18.5532 100.065 17.8982 99.8592 17.2745C99.7954 17.0817 99.8119 16.8795 99.9084 16.701C100.023 16.4893 100.283 16.2309 100.514 16.1684C100.796 16.0924 101.122 16.1669 101.368 16.3153C102.03 16.7149 102.424 17.7107 102.583 18.4314C102.912 19.9334 102.811 21.3688 101.969 22.686C100.783 24.5428 98.3243 25.5283 96.2561 25.9686C95.8687 26.0511 94.3355 26.2015 94.1465 26.3472C94.1008 26.4446 94.0856 26.4575 94.1054 26.5673C94.1807 26.6594 94.2594 26.7004 94.3727 26.7355C94.6637 26.826 94.9837 26.8398 95.2831 26.8972C96.2203 27.0768 96.9042 27.2278 97.8748 27.3233C98.3012 27.3644 98.7285 27.3918 99.1567 27.4054C99.5849 27.4192 100.013 27.4191 100.441 27.4053C100.869 27.3915 101.297 27.3641 101.723 27.3229C102.15 27.2817 102.574 27.2269 102.997 27.1585C106.398 26.6154 111.853 24.6435 114.514 22.4331C115.572 21.5539 116.438 20.5068 117.041 19.2632C117.262 18.8065 117.442 18.3212 117.592 17.8364C117.89 16.8754 118.179 15.1663 119.006 14.5523C119.367 14.2846 120.386 14.2977 120.841 14.3353C121.185 14.3638 121.446 14.5029 121.668 14.7677C122.144 15.3345 122.317 16.0751 122.253 16.8024C122.049 19.116 120.021 20.6807 118.375 22.049C116.629 23.5014 114.925 24.9572 112.948 26.0932C112.437 26.3873 111.906 26.6376 111.355 26.8443C110.955 26.9903 110.535 27.0995 110.143 27.2657C110.029 27.3142 109.93 27.345 109.855 27.446C109.859 27.5365 109.847 27.5832 109.931 27.6398C110.104 27.757 110.569 27.7115 110.782 27.7105C113.37 27.6987 116.33 26.9198 118.767 26.0562C119.825 25.6814 120.86 25.2642 121.861 24.7544C124.027 23.6522 127.669 21.2506 128.762 18.9742C129.005 18.4688 129.008 17.9782 129.113 17.4404C129.155 17.2268 129.242 17.0249 129.3 16.8154C129.469 16.198 129.685 15.717 130.323 15.4792C130.57 15.387 130.824 15.4097 131.058 15.5265C131.444 15.7187 131.7 16.0961 131.822 16.5018C132.086 17.382 131.766 18.3607 131.344 19.1328C131.02 19.7239 130.584 20.2766 130.099 20.7428C129.439 21.3787 128.644 21.9113 127.906 22.4519C126.409 23.5592 124.876 24.613 123.307 25.6133C123.054 25.7722 122.328 26.0848 122.43 26.4446C122.595 27.0322 123.836 27.868 124.39 28.1353C125.794 28.8121 127.281 28.5575 128.688 28.0452C129.262 27.8358 130.288 27.2184 130.881 27.4846C131.104 27.5849 131.352 27.8099 131.435 28.0458C131.487 28.1937 131.46 28.3497 131.387 28.4855C131.003 29.2017 129.768 29.722 129.028 29.9188C128.454 30.0712 127.837 30.191 127.243 30.1716C125.276 30.1076 122.973 28.7689 121.007 28.371C120.064 28.1801 118.979 28.2018 118.023 28.303C117.473 28.3774 116.921 28.4428 116.373 28.5235C116.02 28.5754 115.663 28.655 115.308 28.679C114.293 28.7471 111.776 28.5494 111.004 28.8425C110.55 29.1749 110.301 29.472 110.126 30.014C110.186 30.3161 110.27 30.6171 110.426 30.8847C111.08 32.0028 112.488 31.6005 113.537 31.8843C113.617 32.11 113.666 32.3268 113.702 32.5636C113.585 32.8755 113.436 33.1053 113.154 33.2923C112.758 33.5556 112.29 33.5449 111.842 33.4606C111.315 33.3616 110.82 33.1011 110.385 32.7936C109.847 32.4133 109.357 31.927 108.949 31.4096C108.58 30.9409 108.255 30.4402 107.931 29.9391C107.725 29.6208 107.525 29.2704 107.271 28.9885C107.123 28.824 106.952 28.6843 106.747 28.5976C105.977 28.2729 102.513 28.4725 101.399 28.4559C100.562 28.4423 99.7267 28.4067 98.892 28.3492C98.0574 28.2918 97.2248 28.2124 96.3942 28.1113C95.5636 28.0101 94.7363 27.8873 93.912 27.7427C93.0879 27.5982 92.268 27.4321 91.4525 27.2446C91.2677 27.202 91.085 27.1494 90.9019 27.1002C90.691 27.0635 90.4807 27.0282 90.2685 27.0004C89.2525 26.7757 88.258 26.4772 87.3018 26.0649Z" fill="#007AFF"/>
<path d="M73.6604 56.3019C73.7086 56.7282 73.7787 57.1448 73.914 57.5528L74.0051 57.6507C74.3322 57.7582 74.6885 57.7505 75.0297 57.7757C75.1804 57.781 75.3336 57.7803 75.4829 57.8022C76.3086 57.8931 77.5254 57.9364 78.2856 58.2028C77.6215 58.4198 75.9428 58.424 75.148 58.5002L72.906 58.7186C72.59 58.7518 72.2597 58.8251 71.9439 58.835C70.7665 59.0279 69.6088 59.243 68.4473 59.5176C67.5234 59.8042 66.5838 60.0228 65.667 60.3403C64.5251 60.7356 63.3811 61.2517 62.2109 61.5422V61.6499C62.4328 61.667 62.6538 61.6805 62.8724 61.7241C62.982 62.0522 63.097 62.3784 63.2174 62.7027C63.3377 63.027 63.4634 63.3491 63.5944 63.6692C63.7254 63.9893 63.8617 64.3071 64.0032 64.6226C64.1446 64.9381 64.2913 65.2512 64.4431 65.5619C64.5949 65.8726 64.7518 66.1806 64.9138 66.486C65.0758 66.7914 65.2428 67.094 65.4147 67.3938C65.5867 67.6937 65.7636 67.9906 65.9453 68.2846C66.1271 68.5785 66.3136 68.8694 66.505 69.1572C66.6964 69.4448 66.8924 69.7293 67.0931 70.0105C67.2939 70.2917 67.4992 70.5695 67.7091 70.8438C67.919 71.1182 68.1334 71.389 68.3523 71.6562C68.5711 71.9234 68.7943 72.1868 69.0218 72.4466C69.2494 72.7064 69.4811 72.9623 69.7171 73.2143C69.9531 73.4664 70.1932 73.7144 70.4373 73.9584C70.6815 74.2025 70.9296 74.4424 71.1817 74.6781C71.4338 74.9139 71.6897 75.1454 71.9494 75.3726C72.2633 75.651 73.2912 76.6936 73.5642 76.8534C73.6147 76.8829 73.658 76.8875 73.715 76.8898C73.7596 76.8307 73.7825 76.8156 73.7736 76.7372C73.7638 76.6515 73.7121 76.5635 73.6632 76.4945C73.5315 76.3084 73.3652 76.1523 73.2257 75.9727L73.1466 75.8707C72.7041 75.301 72.2571 74.7253 71.8448 74.1352C71.0342 72.9785 70.289 71.7806 69.6094 70.5416C69.4028 70.1636 69.1621 69.7594 69.0056 69.3589C68.4392 68.2934 67.966 67.1241 67.4944 66.0124C67.189 65.1097 66.0449 62.5226 66.1441 61.6976C66.1538 61.6903 66.1629 61.6821 66.1734 61.6758C66.2548 61.6278 66.3638 61.6219 66.454 61.6457C67.0865 61.8121 67.3686 62.7813 67.6598 63.283C67.7485 63.3424 67.8615 63.3492 67.9655 63.3587C68.298 63.389 68.6402 63.3759 68.9743 63.3886C69.7 63.4166 71.0769 63.4925 71.7631 63.6322C72.528 63.7878 73.3024 63.8872 74.0668 64.0384C74.4339 64.1111 74.7945 64.2141 75.1614 64.2884C75.5508 64.3671 75.9471 64.4084 76.3374 64.4823L76.4317 64.5001C77.8249 64.7636 79.2391 65.0311 80.6481 65.1818C83.6233 65.4999 86.725 65.3053 89.6718 64.8133C91.2818 64.5447 92.9086 64.175 94.4813 63.7371C97.1244 63.0013 99.5629 61.9272 102.374 62.3186C104.716 62.6445 106.864 64.6648 108.664 66.0853C112.212 68.8855 114.365 69.2201 118.757 69.4897C120.201 69.5782 121.8 69.7349 123.17 70.2275C124.877 70.8411 126.461 71.8542 128.016 72.7773C129.94 73.9204 131.919 75.1275 134.018 75.9182C134.495 76.0982 134.992 76.2201 135.478 76.3733C136.237 76.6122 136.99 76.9149 137.788 77L137.788 76.9863C137.79 76.9116 137.791 76.8898 137.722 76.8329C137.518 76.6654 136.26 76.1059 135.889 75.9117C132.287 74.0226 127.897 71.3482 125.445 68.0584C125.049 67.5274 124.703 66.911 124.386 66.3292C124.274 66.124 124.194 65.894 124.065 65.7003C123.842 65.6406 123.527 65.9301 123.287 65.9772C123.02 66.0291 122.725 66.0194 122.454 66.0254C121.908 66.0376 121.342 65.9914 120.822 65.81C120.311 65.6314 119.834 65.3301 119.396 65.0136C117.799 63.8566 116.681 62.2282 115.519 60.6606C115.174 60.1962 114.804 59.7482 114.45 59.2906C113.469 58.0228 112.419 56.7603 110.988 55.9922C108.826 54.8315 106.412 55.3496 104.096 55.5024C102.958 55.5775 101.8 55.5641 100.68 55.3218C97.9939 54.7402 96.114 52.7526 93.7939 51.4499C92.2393 50.5769 90.5461 49.9825 89.0754 48.9598C87.897 48.1404 87.0326 47.12 86.7779 45.6735C86.335 43.1588 87.4996 38.771 88.4264 36.435C88.7788 35.5466 89.2134 34.6871 89.6786 33.8534C90.0386 33.2083 90.4138 32.593 90.8521 31.9974C91.0528 31.7248 91.3107 31.4775 91.4893 31.1928C91.6246 30.9773 91.1191 30.6592 91.0615 30.4063C91.0404 30.3134 91.0611 30.2325 91.1143 30.1545C91.1949 30.0365 91.3775 29.9594 91.5062 29.9149C92.7067 29.4996 93.8725 31.2707 95.1212 31.1089C95.2615 31.0895 95.4001 31.0611 95.5368 31.0236C95.6735 30.9862 95.8072 30.94 95.938 30.8851C96.3324 30.7209 97.367 30.1417 97.5974 29.8026C97.6583 29.713 97.6641 29.6693 97.6502 29.5641C97.4043 29.4748 96.5976 29.6727 96.2981 29.6995C95.9946 29.7267 95.7131 29.7191 95.4197 29.7812C93.5431 30.1784 87.261 26.4586 84.4052 25.8216C83.7624 25.6782 83.1277 25.4792 82.4884 25.3177C81.526 25.0814 80.5577 24.8731 79.5833 24.693C79.087 24.6019 78.5831 24.606 78.0876 24.5294C77.7832 24.4823 77.5325 24.3007 77.2141 24.3441C77.0864 24.4374 77.0485 24.8136 77.0253 24.9679C76.8613 26.0598 76.8186 27.8602 77.5103 28.7764C77.6883 29.0122 77.9127 29.1668 78.2085 29.2042C79.1858 29.3282 80.172 28.3195 80.8308 28.3943C81.0188 28.4156 81.2235 28.5332 81.3917 28.6178C81.8087 28.8274 82.1541 29.1378 82.4483 29.4985C83.5481 30.8474 84.3245 32.4951 86.2489 32.7053C86.3111 32.7126 86.3734 32.7184 86.4358 32.7226C86.4983 32.7269 86.5608 32.7295 86.6234 32.7306C86.686 32.7318 86.7486 32.7313 86.8111 32.7294C86.8737 32.7274 86.9362 32.7239 86.9986 32.7189C87.061 32.7137 87.1232 32.7071 87.1853 32.6989C87.2474 32.6908 87.3092 32.6811 87.3708 32.6699C87.4324 32.6587 87.4937 32.646 87.5547 32.6316C87.6156 32.6174 87.6762 32.6016 87.7364 32.5844C87.7966 32.5672 87.8564 32.5484 87.9156 32.5282C87.9749 32.5079 88.0336 32.4862 88.0919 32.4631C88.1501 32.44 88.2077 32.4154 88.2648 32.3894C88.3217 32.3634 88.378 32.336 88.4337 32.3073C88.4894 32.2784 88.5443 32.2482 88.5985 32.2167C88.6527 32.1852 88.706 32.1524 88.7586 32.1183C88.8112 32.0841 88.8629 32.0486 88.9138 32.0119C88.9646 31.9752 89.0144 31.9372 89.0634 31.898C89.4159 31.612 89.77 31.1797 90.2032 31.0263L90.2617 31.0479C90.2364 31.3687 89.6734 31.8668 89.4448 32.0627C88.1433 33.1776 86.3728 33.2755 84.9836 34.2309C83.7079 35.1084 82.7252 36.3713 81.6633 37.4856C78.7687 40.5229 75.4339 43.7147 74.394 47.9471C74.2997 48.331 74.1641 48.7467 74.1281 49.1401C74.1172 49.2589 74.1042 49.3556 74.1757 49.4524C74.272 49.4419 74.3003 49.4309 74.3783 49.3713C74.5896 49.2097 74.7619 48.9688 74.9414 48.773C75.1596 48.5353 75.4012 48.3164 75.6467 48.1074C76.8307 47.0991 78.4885 46.0428 80.0329 45.7527C80.2785 45.7067 80.5454 45.7031 80.7951 45.6887C81.0146 45.676 81.4434 45.622 81.6211 45.7668C81.6686 45.8055 81.6582 45.8218 81.667 45.8788C81.3934 46.2249 80.4273 46.2684 80.0138 46.3658C79.6365 46.4548 79.2178 46.5656 78.8643 46.7263C77.9971 47.1204 77.1562 47.6385 76.4803 48.3177C74.6157 50.1911 73.3631 53.6727 73.6604 56.3019Z" fill="#007AFF"/>
<path d="M47.3084 89V92.6H53.3084V89H54.5084V97.4H53.3084V93.8H47.3084V97.4H46.1084V89H47.3084Z" fill="#42474B"/>
<path d="M58.4661 97.4V89H59.6661V95.66L65.6661 89H66.8661V97.4H65.6661V90.62L59.6661 97.4H58.4661Z" fill="#42474B"/>
<path d="M75.2637 92.192V89H76.4637V92.192L80.0637 90.2V89H81.2637V90.908L77.0997 93.212L81.2637 95.516V97.4H80.0637V96.224L76.4637 94.232V97.4H75.2637V94.232L71.6637 96.224V97.4H70.4637V95.516L74.6277 93.212L70.4637 90.908V89H71.6637V90.2L75.2637 92.192Z" fill="#42474B"/>
<path d="M86.0689 90.2V92.6H92.0689V93.8H86.0689V96.2H93.2689V97.4H84.8689V89H93.2689V90.2H86.0689Z" fill="#42474B"/>
<path d="M104.192 90.2H98.1922V97.4H96.9921V89H104.192V90.2Z" fill="#42474B"/>
<path d="M114.402 95V91.4C114.402 90.74 113.862 90.2 113.202 90.2H109.602C108.942 90.2 108.402 90.74 108.402 91.4V95C108.402 95.66 108.942 96.2 109.602 96.2H113.202C113.862 96.2 114.402 95.66 114.402 95ZM115.602 91.4V95C115.602 96.32 114.522 97.4 113.202 97.4H109.602C108.27 97.4 107.202 96.332 107.202 95V91.4C107.202 90.08 108.282 89 109.602 89H113.202C114.474 89 115.602 90.092 115.602 91.4Z" fill="#42474B"/>
<path d="M126.646 92.6V91.4C126.646 90.74 126.106 90.2 125.446 90.2H120.646V93.8H125.446C126.106 93.8 126.646 93.26 126.646 92.6ZM127.846 91.4V92.6C127.846 93.872 126.79 95 125.446 95H120.646V97.4H119.446V89H125.446C126.73 89 127.81 90.068 127.846 91.4Z" fill="#42474B"/>
<path d="M138.649 95V91.4C138.649 90.74 138.109 90.2 137.449 90.2H133.849C133.189 90.2 132.649 90.74 132.649 91.4V95C132.649 95.66 133.189 96.2 133.849 96.2H137.449C138.109 96.2 138.649 95.66 138.649 95ZM139.849 91.4V95C139.849 96.32 138.769 97.4 137.449 97.4H133.849C132.517 97.4 131.449 96.332 131.449 95V91.4C131.449 90.08 132.529 89 133.849 89H137.449C138.721 89 139.849 90.092 139.849 91.4Z" fill="#42474B"/>
<path d="M145.492 91.4V96.2H151.492V90.2H146.692C146.032 90.2 145.492 90.74 145.492 91.4ZM143.092 97.4V96.2H144.292V91.4C144.292 90.128 145.348 89 146.692 89H152.692V96.2H153.892V97.4H143.092Z" fill="#42474B"/>
<path d="M50.723 103.4H59.123C62.119 103.4 64.639 105.892 64.723 109H61.923C61.923 107.46 60.663 106.2 59.123 106.2H50.723C49.183 106.2 47.923 107.46 47.923 109V117.4C47.923 118.94 49.183 120.2 50.723 120.2H59.123C60.663 120.2 61.923 118.94 61.923 117.4H64.723C64.723 120.368 62.259 123 59.123 123H50.723C47.727 123 45.123 120.564 45.123 117.4V109C45.123 105.976 47.587 103.484 50.723 103.4Z" fill="#007AFF"/>
<path d="M86.2699 106.2H77.8699V123H75.0699V106.2H66.6699V103.4H86.2699V106.2Z" fill="#007AFF"/>
<path d="M102.249 106.2H93.8485C92.3085 106.2 91.0485 107.46 91.0485 109V114.6H105.049V109C105.049 107.46 103.789 106.2 102.249 106.2ZM107.849 109V123H105.049V117.4H91.0485V123H88.2485V109C88.2485 106.032 90.7125 103.4 93.8485 103.4H102.249C105.245 103.4 107.765 105.892 107.849 109Z" fill="#007AFF"/>
<path d="M117.363 103.4H131.363V123H128.563V106.2H117.363C115.823 106.2 114.563 107.46 114.563 109V123H111.763V109C111.763 105.976 114.227 103.484 117.363 103.4Z" fill="#007AFF"/>
<path d="M152.078 117.4V116C152.078 114.46 150.818 113.2 149.278 113.2H138.078V120.2H149.278C150.818 120.2 152.078 118.94 152.078 117.4ZM154.878 116V117.4C154.878 120.368 152.414 123 149.278 123H135.278V103.4H138.078V110.4H149.278C152.274 110.4 154.794 112.892 154.878 116Z" fill="#007AFF"/>
<path d="M58.7809 129H62.3809C63.6649 129 64.7449 130.068 64.7809 131.4H63.5809C63.5809 130.74 63.0409 130.2 62.3809 130.2H58.7809C58.1209 130.2 57.5809 130.74 57.5809 131.4V135C57.5809 135.66 58.1209 136.2 58.7809 136.2H62.3809C63.0409 136.2 63.5809 135.66 63.5809 135H64.7809C64.7809 136.272 63.7249 137.4 62.3809 137.4H58.7809C57.4969 137.4 56.3809 136.356 56.3809 135V131.4C56.3809 130.104 57.4369 129.036 58.7809 129Z" fill="#42474B"/>
<path d="M73.2952 130.2V132.6H79.2952V133.8H73.2952V136.2H80.4952V137.4H72.0952V129H80.4952V130.2H73.2952Z" fill="#42474B"/>
<path d="M95.0185 132.6V131.4C95.0185 130.74 94.4785 130.2 93.8185 130.2H89.0185V133.8H93.8185C94.4785 133.8 95.0185 133.26 95.0185 132.6ZM96.2185 131.4V132.6C96.2185 133.872 95.1625 135 93.8185 135H89.0185V137.4H87.8185V129H93.8185C95.1025 129 96.1825 130.068 96.2185 131.4Z" fill="#42474B"/>
<path d="M109.542 137.4H103.542V129H109.542C110.802 129 111.942 130.068 111.942 131.4C111.942 132.12 111.666 132.72 111.126 133.2C111.666 133.68 111.942 134.28 111.942 135C111.942 136.296 110.886 137.364 109.542 137.4ZM109.542 133.8H104.742V136.2H109.542C110.202 136.2 110.742 135.66 110.742 135C110.742 134.34 110.202 133.8 109.542 133.8ZM104.742 130.2V132.6H109.542C110.202 132.6 110.742 132.06 110.742 131.4C110.742 130.74 110.202 130.2 109.542 130.2H104.742Z" fill="#42474B"/>
<path d="M119.382 137.4V129H120.582V135.66L126.582 129H127.782V137.4H126.582V130.62L120.582 137.4H119.382Z" fill="#42474B"/>
<path d="M137.62 129H141.22C142.504 129 143.584 130.068 143.62 131.4H142.42C142.42 130.74 141.88 130.2 141.22 130.2H137.62C136.96 130.2 136.42 130.74 136.42 131.4V135C136.42 135.66 136.96 136.2 137.62 136.2H141.22C141.88 136.2 142.42 135.66 142.42 135H143.62C143.62 136.272 142.564 137.4 141.22 137.4H137.62C136.336 137.4 135.22 136.356 135.22 135V131.4C135.22 130.104 136.276 129.036 137.62 129Z" fill="#42474B"/>
</svg>
