<svg width="225" height="79" viewBox="0 0 225 79" fill="none" xmlns="http://www.w3.org/2000/svg">
<path d="M65.9825 12.1799H67.0746C67.0424 12.1903 67.0208 12.1984 66.9887 12.2049C66.8111 12.2409 66.1227 12.2681 65.9825 12.1799Z" fill="#007AFF"/>
<path d="M37.7324 22.6764C37.4368 22.5112 37.1272 22.3758 36.8446 22.1864C36.1126 21.6963 35.463 20.8396 35.2167 19.993C34.9063 18.9254 35.1927 17.7779 35.7182 16.8272C36.0037 16.3103 36.5002 15.7434 37.0841 15.573C37.438 15.4697 37.7979 15.4643 38.1297 15.6465C38.4014 15.7957 38.6265 16.0603 38.7078 16.3631C38.7526 16.5302 38.7588 16.7463 38.6733 16.9023C38.3579 17.4776 37.4615 17.2836 37.2016 18.5963C37.1286 18.965 37.1276 19.3441 37.2172 19.7099C37.4213 20.5439 38.1109 21.2109 38.8223 21.6402C40.405 22.5953 42.3373 22.5869 44.0797 22.1392C45.9632 21.6553 48.3548 20.3986 49.3697 18.677C49.6792 18.1522 49.9708 17.535 49.8076 16.9136C49.6047 16.1412 48.8367 15.5714 48.6573 15.0288C48.6018 14.861 48.6162 14.6851 48.7001 14.5298C48.7997 14.3456 49.0256 14.1208 49.2274 14.0664C49.4727 14.0003 49.7556 14.0652 49.9697 14.1943C50.5459 14.5419 50.8891 15.4083 51.0268 16.0352C51.3137 17.342 51.2252 18.5908 50.4931 19.7368C49.4611 21.3522 47.3219 22.2096 45.5226 22.5926C45.1856 22.6644 43.8517 22.7952 43.6872 22.922C43.6475 23.0068 43.6343 23.018 43.6515 23.1135C43.717 23.1937 43.7855 23.2293 43.8841 23.2599C44.1372 23.3385 44.4156 23.3505 44.6761 23.4005C45.4914 23.5568 46.0865 23.6881 46.9309 23.7712C47.3019 23.807 47.6736 23.8308 48.0461 23.8427C48.4186 23.8546 48.7911 23.8546 49.1637 23.8426C49.5362 23.8306 49.9079 23.8067 50.279 23.7709C50.6499 23.735 51.0194 23.6873 51.3873 23.6278C54.3457 23.1553 59.0916 21.4398 61.4069 19.5168C62.3278 18.7518 63.0807 17.8408 63.6054 16.7589C63.798 16.3616 63.9545 15.9394 64.0852 15.5176C64.3444 14.6816 64.5959 13.1946 65.3152 12.6604C65.6289 12.4275 66.5153 12.4389 66.9112 12.4717C67.2111 12.4965 67.4378 12.6175 67.6314 12.8479C68.0455 13.3409 68.1953 13.9853 68.1397 14.618C67.9627 16.6308 66.1977 17.9922 64.7662 19.1826C63.2468 20.4462 61.7644 21.7127 60.0443 22.701C59.6002 22.9569 59.1384 23.1747 58.6589 23.3545C58.3109 23.4815 57.9452 23.5765 57.6046 23.7211C57.5054 23.7633 57.419 23.7901 57.3534 23.878C57.3569 23.9567 57.347 23.9973 57.4197 24.0466C57.5701 24.1485 57.975 24.1089 58.1602 24.108C60.4118 24.0978 62.9872 23.4201 65.1075 22.6688C66.0278 22.3427 66.9277 21.9798 67.7991 21.5363C69.6832 20.5773 72.8519 18.488 73.8026 16.5075C74.0137 16.0678 74.0165 15.641 74.1084 15.1731C74.1449 14.9872 74.2205 14.8116 74.2704 14.6294C74.4174 14.0922 74.6061 13.6737 75.1607 13.4668C75.3757 13.3866 75.5966 13.4064 75.8005 13.508C76.1359 13.6752 76.3587 14.0035 76.4647 14.3565C76.6947 15.1223 76.4166 15.9738 76.0487 16.6455C75.767 17.1597 75.3877 17.6405 74.9662 18.0462C74.3913 18.5994 73.7002 19.0628 73.0582 19.5331C71.756 20.4964 70.4222 21.4132 69.0567 22.2835C68.8369 22.4217 68.2055 22.6937 68.2935 23.0068C68.4371 23.518 69.5168 24.2451 69.9993 24.4777C71.2203 25.0665 72.514 24.8449 73.738 24.3993C74.238 24.2171 75.1302 23.68 75.6462 23.9116C75.8403 23.9988 76.0563 24.1946 76.1282 24.3997C76.1734 24.5285 76.1497 24.6641 76.0864 24.7823C75.7527 25.4054 74.6778 25.858 74.0338 26.0292C73.535 26.1618 72.9981 26.2661 72.4813 26.2492C70.7702 26.1936 68.7662 25.0289 67.0557 24.6827C66.2353 24.5167 65.2912 24.5355 64.4596 24.6235C63.9814 24.6882 63.5015 24.7452 63.0241 24.8154C62.7175 24.8605 62.4066 24.9298 62.0975 24.9506C61.215 25.0099 59.0251 24.8379 58.3537 25.0929C57.9579 25.3821 57.7416 25.6406 57.5896 26.1121C57.642 26.375 57.7148 26.6368 57.8508 26.8696C58.4192 27.8424 59.6446 27.4924 60.5569 27.7393C60.6269 27.9356 60.6696 28.1243 60.7009 28.3302C60.599 28.6016 60.4688 28.8016 60.224 28.9642C59.8795 29.1933 59.4725 29.184 59.082 29.1107C58.6237 29.0245 58.1931 28.7979 57.8147 28.5304C57.3468 28.1995 56.9204 27.7764 56.5655 27.3263C56.244 26.9185 55.9615 26.4829 55.6798 26.047C55.5009 25.7701 55.3267 25.4652 55.106 25.22C54.9771 25.0768 54.8279 24.9553 54.6493 24.8799C53.9802 24.5974 50.9663 24.771 49.9968 24.7566C49.269 24.7447 48.5421 24.7138 47.8159 24.6638C47.0897 24.6138 46.3653 24.5448 45.6427 24.4567C44.9202 24.3687 44.2004 24.2619 43.4833 24.1361C42.7662 24.0104 42.053 23.8659 41.3435 23.7027C41.1827 23.6657 41.0237 23.6199 40.8644 23.5771C40.681 23.5452 40.498 23.5145 40.3134 23.4903C39.4295 23.2948 38.5643 23.0351 37.7324 22.6764Z" fill="#007AFF"/>
<path d="M25.8644 48.9826C25.9063 49.3535 25.9672 49.7159 26.085 50.0709L26.1643 50.1561C26.4489 50.2496 26.7588 50.2429 27.0557 50.2648C27.1868 50.2694 27.32 50.2688 27.45 50.2879C28.1683 50.367 29.2269 50.4046 29.8883 50.6364C29.3105 50.8251 27.85 50.8288 27.1585 50.8951L25.2081 51.0851C24.9331 51.114 24.6457 51.1778 24.371 51.1864C23.3467 51.3542 22.3395 51.5413 21.329 51.7803C20.5252 52.0296 19.7077 52.2197 18.9101 52.496C17.9167 52.8399 16.9214 53.2889 15.9033 53.5417V53.6354C16.0963 53.6503 16.2886 53.662 16.4788 53.6999C16.5742 53.9854 16.6742 54.2691 16.7789 54.5513C16.8836 54.8334 16.993 55.1137 17.107 55.3921C17.2209 55.6706 17.3395 55.9471 17.4626 56.2216C17.5856 56.4961 17.7132 56.7685 17.8453 57.0388C17.9774 57.3091 18.1139 57.577 18.2548 57.8427C18.3957 58.1084 18.541 58.3717 18.6906 58.6326C18.8402 58.8934 18.9941 59.1517 19.1522 59.4075C19.3104 59.6633 19.4727 59.9163 19.6392 60.1667C19.8056 60.4169 19.9762 60.6644 20.1508 60.9091C20.3255 61.1537 20.5041 61.3954 20.6867 61.6341C20.8694 61.8728 21.0559 62.1084 21.2463 62.3408C21.4367 62.5733 21.6308 62.8025 21.8288 63.0285C22.0268 63.2545 22.2284 63.4771 22.4337 63.6964C22.639 63.9157 22.8479 64.1315 23.0603 64.3437C23.2727 64.5561 23.4886 64.7648 23.7079 64.9699C23.9272 65.175 24.1498 65.3764 24.3758 65.5741C24.6489 65.8163 25.5431 66.7234 25.7807 66.8624C25.8246 66.888 25.8623 66.8921 25.9119 66.894C25.9507 66.8426 25.9706 66.8295 25.9628 66.7613C25.9543 66.6867 25.9094 66.6102 25.8668 66.5502C25.7522 66.3882 25.6075 66.2525 25.4862 66.0962L25.4173 66.0074C25.0324 65.5118 24.6435 65.011 24.2847 64.4975C23.5795 63.4912 22.9313 62.449 22.34 61.3711C22.1603 61.0422 21.9508 60.6906 21.8147 60.3422C21.3219 59.4151 20.9102 58.3979 20.4999 57.4307C20.2343 56.6454 19.2389 54.3946 19.3251 53.6769C19.3336 53.6705 19.3415 53.6633 19.3507 53.6579C19.4215 53.6161 19.5163 53.611 19.5948 53.6317C20.145 53.7765 20.3905 54.6196 20.6438 55.0561C20.721 55.1078 20.8193 55.1137 20.9098 55.122C21.199 55.1483 21.4968 55.1369 21.7875 55.1481C22.4188 55.1723 23.6167 55.2384 24.2137 55.3599C24.8791 55.4953 25.5529 55.5818 26.2179 55.7134C26.5373 55.7766 26.851 55.8662 27.1702 55.9308C27.509 55.9993 27.8538 56.0352 28.1933 56.0995L28.2753 56.115C29.4874 56.3443 30.7178 56.577 31.9437 56.7081C34.5321 56.9849 37.2305 56.8155 39.7943 56.3875C41.195 56.1538 42.6103 55.8322 43.9786 55.4512C46.2781 54.8111 48.3996 53.8766 50.8453 54.2171C52.8828 54.5007 54.7514 56.2583 56.3173 57.4941C59.4042 59.9303 61.2775 60.2214 65.0986 60.4559C66.3546 60.533 67.7457 60.6693 68.9377 61.0979C70.4231 61.6317 71.801 62.5131 73.1533 63.3162C74.8277 64.3106 76.5495 65.3608 78.3752 66.0487C78.7908 66.2053 79.2226 66.3114 79.6457 66.4447C80.3057 66.6525 80.9612 66.9159 81.655 66.9899L81.6554 66.978C81.6575 66.913 81.6581 66.894 81.5978 66.8446C81.4201 66.6988 80.3256 66.2121 80.0033 66.0431C76.8694 64.3996 73.0503 62.0729 70.9167 59.2107C70.5724 58.7488 70.2718 58.2125 69.9957 57.7064C69.8983 57.5278 69.8282 57.3277 69.7165 57.1592C69.5219 57.1073 69.2486 57.3591 69.0392 57.4001C68.8075 57.4453 68.5505 57.4368 68.315 57.4421C67.8397 57.4526 67.347 57.4124 66.8951 57.2546C66.4502 57.0993 66.035 56.8371 65.6547 56.5617C64.2646 55.5552 63.2921 54.1384 62.2811 52.7747C61.9816 52.3706 61.6595 51.9809 61.3515 51.5827C60.4982 50.4798 59.5843 49.3814 58.3393 48.7132C56.4586 47.7033 54.3586 48.1541 52.3437 48.287C51.3532 48.3524 50.3455 48.3407 49.3715 48.1299C47.0345 47.6239 45.399 45.8947 43.3805 44.7614C42.028 44.0018 40.5549 43.4847 39.2754 42.5949C38.2502 41.882 37.4982 40.9944 37.2766 39.7359C36.8913 37.5481 37.9045 33.7307 38.7108 31.6984C39.0174 30.9255 39.3955 30.1777 39.8002 29.4524C40.1133 28.8912 40.4398 28.3559 40.8211 27.8377C40.9957 27.6005 41.2201 27.3854 41.3755 27.1377C41.4932 26.9502 41.0534 26.6734 41.0033 26.4534C40.9849 26.3726 41.0029 26.3022 41.0492 26.2343C41.1194 26.1316 41.2783 26.0646 41.3902 26.0259C42.4346 25.6646 43.4489 27.2054 44.5352 27.0647C44.6573 27.0478 44.7779 27.0231 44.8968 26.9905C45.0157 26.9579 45.1321 26.9177 45.2459 26.87C45.589 26.7271 46.4891 26.2232 46.6896 25.9282C46.7425 25.8502 46.7475 25.8123 46.7355 25.7207C46.5215 25.643 45.8197 25.8152 45.5591 25.8385C45.2951 25.8622 45.0502 25.8556 44.7949 25.9096C43.1623 26.2551 37.6969 23.0189 35.2124 22.4647C34.6531 22.3399 34.1009 22.1668 33.5447 22.0264C32.7075 21.8207 31.865 21.6395 31.0173 21.4828C30.5855 21.4036 30.1471 21.4072 29.716 21.3405C29.4512 21.2996 29.2331 21.1415 28.9561 21.1793C28.8449 21.2604 28.812 21.5877 28.7918 21.722C28.6492 22.672 28.612 24.2383 29.2138 25.0354C29.3686 25.2406 29.5639 25.375 29.8212 25.4076C30.6715 25.5154 31.5295 24.6379 32.1026 24.703C32.2662 24.7215 32.4443 24.8238 32.5905 24.8974C32.9533 25.0797 33.2539 25.3498 33.5098 25.6636C34.4667 26.8372 35.1422 28.2707 36.8163 28.4535C36.8705 28.4599 36.9247 28.4649 36.979 28.4686C37.0333 28.4723 37.0877 28.4746 37.1421 28.4756C37.1966 28.4766 37.2511 28.4762 37.3055 28.4745C37.3599 28.4728 37.4143 28.4697 37.4686 28.4653C37.5229 28.4609 37.577 28.4551 37.631 28.448C37.685 28.4409 37.7388 28.4325 37.7924 28.4228C37.846 28.413 37.8993 28.4019 37.9524 28.3895C38.0054 28.3771 38.0581 28.3634 38.1105 28.3483C38.1629 28.3334 38.2148 28.3171 38.2664 28.2994C38.318 28.2818 38.3691 28.263 38.4197 28.2428C38.4704 28.2227 38.5205 28.2013 38.5702 28.1787C38.6197 28.1561 38.6687 28.1323 38.7171 28.1072C38.7656 28.0821 38.8134 28.0559 38.8605 28.0285C38.9076 28.001 38.9541 27.9725 38.9998 27.9428C39.0455 27.9131 39.0906 27.8822 39.1348 27.8503C39.179 27.8183 39.2224 27.7853 39.265 27.7512C39.5716 27.5024 39.8797 27.1263 40.2566 26.9928L40.3075 27.0116C40.2854 27.2907 39.7956 27.7241 39.5968 27.8945C38.4645 28.8645 36.9241 28.9496 35.7156 29.7808C34.6056 30.5442 33.7507 31.643 32.8269 32.6124C30.3086 35.2548 27.4073 38.0317 26.5026 41.7139C26.4205 42.0479 26.3026 42.4096 26.2713 42.7518C26.2617 42.8552 26.2505 42.9393 26.3127 43.0235C26.3965 43.0144 26.421 43.0048 26.4889 42.9529C26.6728 42.8124 26.8226 42.6028 26.9788 42.4324C27.1686 42.2256 27.3789 42.0352 27.5924 41.8534C28.6225 40.9762 30.0648 40.0571 31.4084 39.8048C31.6221 39.7648 31.8543 39.7617 32.0716 39.7491C32.2625 39.738 32.6355 39.6911 32.7902 39.817C32.8315 39.8507 32.8225 39.8649 32.8301 39.9145C32.5921 40.2156 31.7515 40.2534 31.3918 40.3382C31.0635 40.4156 30.6993 40.512 30.3917 40.6518C29.6372 40.9946 28.9057 41.4455 28.3177 42.0363C26.6955 43.6662 25.6057 46.6952 25.8644 48.9826Z" fill="#007AFF"/>
<path d="M104.755 18.531V21.663H109.975V18.531H111.019V25.839H109.975V22.707H104.755V25.839H103.711V18.531H104.755Z" fill="#090628"/>
<path d="M114.462 25.839V18.531H115.506V24.3252L120.726 18.531H121.77V25.839H120.726V19.9404L115.506 25.839H114.462Z" fill="#090628"/>
<path d="M129.076 21.308V18.531H130.12V21.308L133.252 19.575V18.531H134.296V20.191L130.673 22.1954L134.296 24.1999V25.839H133.252V24.8159L130.12 23.0828V25.839H129.076V23.0828L125.944 24.8159V25.839H124.9V24.1999L128.523 22.1954L124.9 20.191V18.531H125.944V19.575L129.076 21.308Z" fill="#090628"/>
<path d="M138.477 19.575V21.663H143.697V22.707H138.477V24.795H144.741V25.839H137.433V18.531H144.741V19.575H138.477Z" fill="#090628"/>
<path d="M154.244 19.575H149.024V25.839H147.98V18.531H154.244V19.575Z" fill="#090628"/>
<path d="M163.127 23.751V20.619C163.127 20.0448 162.657 19.575 162.083 19.575H158.951C158.377 19.575 157.907 20.0448 157.907 20.619V23.751C157.907 24.3252 158.377 24.795 158.951 24.795H162.083C162.657 24.795 163.127 24.3252 163.127 23.751ZM164.171 20.619V23.751C164.171 24.8994 163.231 25.839 162.083 25.839H158.951C157.792 25.839 156.863 24.9098 156.863 23.751V20.619C156.863 19.4706 157.802 18.531 158.951 18.531H162.083C163.189 18.531 164.171 19.481 164.171 20.619Z" fill="#090628"/>
<path d="M173.778 21.663V20.619C173.778 20.0448 173.309 19.575 172.734 19.575H168.558V22.707H172.734C173.309 22.707 173.778 22.2372 173.778 21.663ZM174.822 20.619V21.663C174.822 22.7696 173.904 23.751 172.734 23.751H168.558V25.839H167.514V18.531H172.734C173.852 18.531 174.791 19.4602 174.822 20.619Z" fill="#090628"/>
<path d="M184.221 23.751V20.619C184.221 20.0448 183.751 19.575 183.177 19.575H180.045C179.471 19.575 179.001 20.0448 179.001 20.619V23.751C179.001 24.3252 179.471 24.795 180.045 24.795H183.177C183.751 24.795 184.221 24.3252 184.221 23.751ZM185.265 20.619V23.751C185.265 24.8994 184.326 25.839 183.177 25.839H180.045C178.886 25.839 177.957 24.9098 177.957 23.751V20.619C177.957 19.4706 178.897 18.531 180.045 18.531H183.177C184.284 18.531 185.265 19.481 185.265 20.619Z" fill="#090628"/>
<path d="M190.175 20.619V24.795H195.395V19.575H191.219C190.645 19.575 190.175 20.0448 190.175 20.619ZM188.087 25.839V24.795H189.131V20.619C189.131 19.5124 190.05 18.531 191.219 18.531H196.439V24.795H197.483V25.839H188.087Z" fill="#090628"/>
<path d="M107.726 31.0591H115.034C117.64 31.0591 119.832 33.2271 119.906 35.9311H117.47C117.47 34.5913 116.373 33.4951 115.034 33.4951H107.726C106.386 33.4951 105.29 34.5913 105.29 35.9311V43.2391C105.29 44.5789 106.386 45.6751 107.726 45.6751H115.034C116.373 45.6751 117.47 44.5789 117.47 43.2391H119.906C119.906 45.8212 117.762 48.1111 115.034 48.1111H107.726C105.119 48.1111 102.854 45.9918 102.854 43.2391V35.9311C102.854 33.3002 104.997 31.1322 107.726 31.0591Z" fill="#007AFF"/>
<path d="M138.651 33.4951H131.343V48.1111H128.907V33.4951H121.599V31.0591H138.651V33.4951Z" fill="#007AFF"/>
<path d="M152.553 33.4951H145.245C143.905 33.4951 142.809 34.5913 142.809 35.9311V40.8031H154.989V35.9311C154.989 34.5913 153.892 33.4951 152.553 33.4951ZM157.425 35.9311V48.1111H154.989V43.2391H142.809V48.1111H140.373V35.9311C140.373 33.3489 142.516 31.0591 145.245 31.0591H152.553C155.159 31.0591 157.352 33.2271 157.425 35.9311Z" fill="#007AFF"/>
<path d="M165.702 31.0591H177.882V48.1111H175.446V33.4951H165.702C164.363 33.4951 163.266 34.5913 163.266 35.9311V48.1111H160.83V35.9311C160.83 33.3002 162.974 31.1322 165.702 31.0591Z" fill="#007AFF"/>
<path d="M195.904 43.2391V42.0211C195.904 40.6813 194.808 39.5851 193.468 39.5851H183.724V45.6751H193.468C194.808 45.6751 195.904 44.5789 195.904 43.2391ZM198.34 42.0211V43.2391C198.34 45.8212 196.196 48.1111 193.468 48.1111H181.288V31.0591H183.724V37.1491H193.468C196.074 37.1491 198.267 39.3171 198.34 42.0211Z" fill="#007AFF"/>
<path d="M114.735 53.3311H117.867C118.985 53.3311 119.924 54.2602 119.955 55.4191H118.911C118.911 54.8449 118.442 54.3751 117.867 54.3751H114.735C114.161 54.3751 113.691 54.8449 113.691 55.4191V58.5511C113.691 59.1253 114.161 59.5951 114.735 59.5951H117.867C118.442 59.5951 118.911 59.1253 118.911 58.5511H119.955C119.955 59.6577 119.037 60.6391 117.867 60.6391H114.735C113.618 60.6391 112.647 59.7308 112.647 58.5511V55.4191C112.647 54.2915 113.566 53.3624 114.735 53.3311Z" fill="#090628"/>
<path d="M127.363 54.3751V56.4631H132.583V57.5071H127.363V59.5951H133.627V60.6391H126.319V53.3311H133.627V54.3751H127.363Z" fill="#090628"/>
<path d="M146.262 56.4631V55.4191C146.262 54.8449 145.792 54.3751 145.218 54.3751H141.042V57.5071H145.218C145.792 57.5071 146.262 57.0373 146.262 56.4631ZM147.306 55.4191V56.4631C147.306 57.5697 146.388 58.5511 145.218 58.5511H141.042V60.6391H139.998V53.3311H145.218C146.335 53.3311 147.275 54.2602 147.306 55.4191Z" fill="#090628"/>
<path d="M158.897 60.6391H153.677V53.3311H158.897C159.994 53.3311 160.985 54.2602 160.985 55.4191C160.985 56.0455 160.745 56.5675 160.276 56.9851C160.745 57.4027 160.985 57.9247 160.985 58.5511C160.985 59.6786 160.067 60.6077 158.897 60.6391ZM158.897 57.5071H154.721V59.5951H158.897C159.472 59.5951 159.941 59.1253 159.941 58.5511C159.941 57.9769 159.472 57.5071 158.897 57.5071ZM154.721 54.3751V56.4631H158.897C159.472 56.4631 159.941 55.9933 159.941 55.4191C159.941 54.8449 159.472 54.3751 158.897 54.3751H154.721Z" fill="#090628"/>
<path d="M167.459 60.6391V53.3311H168.503V59.1253L173.723 53.3311H174.767V60.6391H173.723V54.7405L168.503 60.6391H167.459Z" fill="#090628"/>
<path d="M183.325 53.3311H186.457C187.575 53.3311 188.514 54.2602 188.545 55.4191H187.501C187.501 54.8449 187.032 54.3751 186.457 54.3751H183.325C182.751 54.3751 182.281 54.8449 182.281 55.4191V58.5511C182.281 59.1253 182.751 59.5951 183.325 59.5951H186.457C187.032 59.5951 187.501 59.1253 187.501 58.5511H188.545C188.545 59.6577 187.627 60.6391 186.457 60.6391H183.325C182.208 60.6391 181.237 59.7308 181.237 58.5511V55.4191C181.237 54.2915 182.156 53.3624 183.325 53.3311Z" fill="#090628"/>
</svg>
