<svg width="35" height="29" viewBox="0 0 35 29" fill="none" xmlns="http://www.w3.org/2000/svg">
<path d="M26.657 0H27.2384C27.2212 0.0054662 27.2097 0.00977748 27.1926 0.0132162C27.0981 0.0322457 26.7316 0.0466573 26.657 0Z" fill="#007AFF"/>
<path d="M11.6196 5.55366C11.4622 5.4663 11.2974 5.39461 11.147 5.29445C10.7574 5.03511 10.4115 4.58183 10.2805 4.1339C10.1152 3.56904 10.2677 2.96188 10.5474 2.45886C10.6994 2.18541 10.9636 1.88543 11.2745 1.79525C11.4628 1.7406 11.6544 1.73775 11.831 1.83414C11.9757 1.9131 12.0955 2.05309 12.1388 2.2133C12.1626 2.30173 12.1659 2.41607 12.1204 2.49859C11.9525 2.80298 11.4754 2.70038 11.337 3.39492C11.2981 3.58997 11.2976 3.79055 11.3453 3.98409C11.454 4.42539 11.821 4.77826 12.1997 5.00543C13.0422 5.5108 14.0708 5.50635 14.9982 5.26946C16.0008 5.01341 17.2738 4.34848 17.8141 3.43762C17.9788 3.15995 18.134 2.83335 18.0471 2.50457C17.9392 2.09593 17.5304 1.79441 17.4349 1.50733C17.4053 1.41858 17.413 1.32551 17.4577 1.24332C17.5107 1.14587 17.6309 1.02694 17.7383 0.998149C17.8689 0.963164 18.0195 0.997478 18.1335 1.06579C18.4402 1.24971 18.6228 1.70811 18.6961 2.03985C18.8488 2.73125 18.8017 3.39199 18.4121 3.99832C17.8627 4.85305 16.724 5.30669 15.7663 5.50937C15.5869 5.54731 14.8769 5.61655 14.7893 5.68363C14.7681 5.72848 14.7611 5.73442 14.7703 5.78497C14.8052 5.82736 14.8416 5.84621 14.8941 5.86239C15.0288 5.90402 15.177 5.91037 15.3157 5.93679C15.7497 6.01949 16.0664 6.08898 16.5159 6.13297C16.7134 6.15188 16.9112 6.16448 17.1095 6.17076C17.3078 6.17707 17.5061 6.17706 17.7044 6.17071C17.9027 6.16436 18.1006 6.15171 18.2981 6.13276C18.4955 6.11378 18.6922 6.08856 18.8881 6.05708C20.4628 5.80709 22.989 4.89937 24.2214 3.88192C24.7117 3.47719 25.1124 2.99518 25.3917 2.42274C25.4942 2.21253 25.5775 1.98912 25.6471 1.76596C25.7851 1.32362 25.919 0.53686 26.3018 0.254232C26.4688 0.130997 26.9406 0.137015 27.1514 0.15435C27.311 0.167482 27.4317 0.231501 27.5347 0.353397C27.7551 0.61428 27.8349 0.955217 27.8053 1.29001C27.7111 2.35497 26.7716 3.07526 26.0096 3.70511C25.2008 4.37367 24.4118 5.04379 23.4962 5.56672C23.2598 5.70208 23.0139 5.81733 22.7587 5.91247C22.5735 5.97965 22.3788 6.02994 22.1975 6.10644C22.1447 6.12877 22.0987 6.14295 22.0638 6.18945C22.0657 6.23108 22.0604 6.25259 22.0991 6.27865C22.1791 6.33257 22.3947 6.31163 22.4932 6.31117C23.6918 6.30574 25.0627 5.94719 26.1913 5.54967C26.6811 5.37715 27.1601 5.18513 27.624 4.95044C28.6269 4.44306 30.3136 3.3376 30.8197 2.28969C30.932 2.05707 30.9335 1.83123 30.9824 1.5837C31.0018 1.48535 31.0421 1.3924 31.0686 1.29599C31.1469 1.0118 31.2473 0.790345 31.5426 0.68088C31.657 0.63846 31.7746 0.648932 31.8831 0.702694C32.0617 0.791139 32.1802 0.964864 32.2367 1.15162C32.3591 1.5568 32.2111 2.00731 32.0152 2.36274C31.8653 2.63482 31.6634 2.88921 31.439 3.10384C31.133 3.39656 30.7651 3.64173 30.4234 3.89054C29.7302 4.40026 29.0203 4.88535 28.2934 5.34581C28.1764 5.41894 27.8403 5.56283 27.8871 5.72848C27.9636 5.99896 28.5383 6.38368 28.7952 6.50673C29.4451 6.81827 30.1337 6.70106 30.7853 6.46525C31.0514 6.36888 31.5263 6.08468 31.801 6.20722C31.9043 6.25336 32.0193 6.35695 32.0576 6.46551C32.0816 6.53361 32.069 6.6054 32.0353 6.66793C31.8577 6.9976 31.2855 7.2371 30.9427 7.32768C30.6772 7.39783 30.3914 7.45298 30.1163 7.44407C29.2055 7.41463 28.1388 6.7984 27.2283 6.61524C26.7916 6.52737 26.2891 6.53735 25.8464 6.5839C25.5918 6.61816 25.3364 6.64827 25.0823 6.68544C24.9191 6.7093 24.7536 6.74597 24.589 6.75698C24.1193 6.78837 22.9536 6.69732 22.5962 6.83225C22.3855 6.98526 22.2704 7.12203 22.1895 7.37151C22.2174 7.51059 22.2561 7.64916 22.3285 7.77231C22.6311 8.28699 23.2834 8.10183 23.769 8.23246C23.8062 8.33636 23.829 8.43616 23.8456 8.54513C23.7914 8.68871 23.7221 8.79451 23.5918 8.88059C23.4084 9.00179 23.1918 8.99688 22.9839 8.95806C22.74 8.91249 22.5107 8.79256 22.3093 8.65103C22.0603 8.47595 21.8333 8.25212 21.6444 8.01396C21.4733 7.79817 21.3229 7.56769 21.1729 7.33705C21.0777 7.19055 20.985 7.02925 20.8675 6.89949C20.7989 6.82375 20.7194 6.75944 20.6244 6.71955C20.2682 6.57007 18.6639 6.66194 18.1479 6.65431C17.7605 6.64803 17.3735 6.63166 16.987 6.6052C16.6004 6.57874 16.2149 6.54223 15.8302 6.49567C15.4456 6.4491 15.0624 6.39255 14.6807 6.32602C14.2991 6.25948 13.9194 6.18305 13.5417 6.09671C13.4562 6.0771 13.3715 6.05288 13.2867 6.03025C13.1891 6.01335 13.0917 5.99712 12.9934 5.98431C12.5229 5.88088 12.0624 5.74349 11.6196 5.55366Z" fill="#007AFF"/>
<path d="M5.30225 19.4723C5.32455 19.6685 5.357 19.8603 5.41969 20.0481L5.46188 20.0932C5.61337 20.1427 5.77833 20.1391 5.93637 20.1507C6.00614 20.1532 6.07709 20.1529 6.14625 20.1629C6.52862 20.2048 7.0921 20.2247 7.44418 20.3473C7.1366 20.4472 6.35919 20.4491 5.99112 20.4842L4.95289 20.5847C4.80654 20.6 4.65355 20.6338 4.5073 20.6383C3.96207 20.7271 3.42595 20.8261 2.88807 20.9526C2.46021 21.0845 2.02508 21.1851 1.60051 21.3312C1.0717 21.5132 0.541913 21.7508 0 21.8845V21.9341C0.102731 21.942 0.205085 21.9482 0.306322 21.9682C0.357082 22.1193 0.410333 22.2694 0.466076 22.4187C0.521818 22.568 0.580024 22.7163 0.640692 22.8636C0.701357 23.0109 0.764451 23.1572 0.829976 23.3024C0.895497 23.4477 0.96341 23.5918 1.03372 23.7348C1.10402 23.8778 1.17668 24.0196 1.2517 24.1602C1.32671 24.3008 1.40403 24.4401 1.48367 24.5781C1.56331 24.7161 1.64521 24.8528 1.72939 24.9881C1.81356 25.1235 1.89996 25.2573 1.98857 25.3898C2.07719 25.5222 2.16798 25.6532 2.26095 25.7826C2.35391 25.9121 2.449 26.0399 2.5462 26.1662C2.64341 26.2925 2.74269 26.4172 2.84404 26.5402C2.94539 26.6631 3.04875 26.7844 3.15412 26.904C3.25949 27.0236 3.36681 27.1414 3.4761 27.2574C3.58538 27.3734 3.69656 27.4876 3.80963 27.5999C3.9227 27.7122 4.03761 27.8227 4.15434 27.9312C4.27108 28.0397 4.38959 28.1463 4.50986 28.2509C4.65525 28.379 5.13124 28.859 5.2577 28.9325C5.28108 28.9461 5.30112 28.9482 5.32752 28.9493C5.34818 28.9221 5.35879 28.9151 5.35464 28.879C5.35013 28.8396 5.32619 28.7991 5.30353 28.7673C5.24253 28.6816 5.16553 28.6098 5.10094 28.5271L5.06428 28.4802C4.85938 28.2179 4.65237 27.9529 4.46141 27.6813C4.08602 27.1488 3.74095 26.5974 3.4262 26.0271C3.33055 25.8531 3.21905 25.667 3.14659 25.4827C2.88432 24.9922 2.66515 24.4539 2.44675 23.9422C2.30534 23.5267 1.7755 22.3358 1.82142 21.9561C1.82595 21.9527 1.83015 21.9489 1.83501 21.946C1.87272 21.9239 1.92318 21.9212 1.96495 21.9321C2.25785 22.0087 2.38851 22.4549 2.52337 22.6858C2.56442 22.7132 2.61677 22.7163 2.66495 22.7207C2.81889 22.7346 2.97738 22.7286 3.13213 22.7345C3.46817 22.7473 4.10584 22.7823 4.42359 22.8465C4.7778 22.9182 5.13646 22.964 5.49044 23.0336C5.66042 23.067 5.82744 23.1144 5.99733 23.1486C6.17767 23.1849 6.36119 23.2039 6.54195 23.2379L6.5856 23.2461C7.23079 23.3674 7.88572 23.4905 8.53824 23.5599C9.91603 23.7063 11.3524 23.6167 12.7171 23.3903C13.4627 23.2666 14.216 23.0964 14.9444 22.8948C16.1684 22.5562 17.2977 22.0617 18.5996 22.2419C19.6841 22.3919 20.6787 23.3219 21.5123 23.9758C23.1554 25.2648 24.1526 25.4188 26.1865 25.5429C26.8551 25.5836 27.5956 25.6558 28.23 25.8825C29.0207 26.165 29.7542 26.6313 30.474 27.0562C31.3653 27.5824 32.2818 28.138 33.2536 28.502C33.4748 28.5849 33.7047 28.641 33.9299 28.7115C34.2812 28.8215 34.6302 28.9608 34.9995 29L34.9996 28.9937C35.0008 28.9593 35.0011 28.9493 34.969 28.9231C34.8744 28.846 34.2918 28.5884 34.1202 28.499C32.4521 27.6294 30.4192 26.3984 29.2835 24.884C29.1002 24.6396 28.9402 24.3559 28.7932 24.0881C28.7414 23.9936 28.7041 23.8877 28.6446 23.7985C28.5411 23.7711 28.3956 23.9043 28.2841 23.926C28.1607 23.9499 28.024 23.9455 27.8986 23.9482C27.6456 23.9538 27.3833 23.9325 27.1428 23.849C26.906 23.7668 26.685 23.6281 26.4825 23.4824C25.7426 22.9499 25.225 22.2003 24.6868 21.4787C24.5274 21.2649 24.3559 21.0587 24.1919 20.848C23.7378 20.2645 23.2513 19.6833 22.5886 19.3297C21.5875 18.7955 20.4696 19.0339 19.3971 19.1043C18.8699 19.1388 18.3335 19.1327 17.815 19.0211C16.5711 18.7534 15.7005 17.8385 14.626 17.2389C13.9061 16.837 13.122 16.5634 12.4409 16.0926C11.8952 15.7154 11.4949 15.2457 11.3769 14.5799C11.1718 13.4223 11.7112 11.4025 12.1403 10.3272C12.3036 9.9183 12.5048 9.52262 12.7202 9.13888C12.8869 8.84193 13.0607 8.5587 13.2637 8.28454C13.3566 8.15903 13.4761 8.04519 13.5588 7.91416C13.6214 7.81497 13.3873 7.66851 13.3607 7.55212C13.3509 7.50936 13.3605 7.47208 13.3851 7.43619C13.4224 7.38186 13.507 7.34637 13.5666 7.32589C14.1225 7.13473 14.6624 7.95 15.2407 7.87555C15.3057 7.8666 15.3699 7.85351 15.4332 7.83627C15.4965 7.81903 15.5584 7.79778 15.619 7.77252C15.8016 7.69693 16.2807 7.4303 16.3874 7.27422C16.4156 7.23295 16.4183 7.21287 16.4119 7.16443C16.298 7.12331 15.9244 7.21441 15.7857 7.22675C15.6452 7.23929 15.5148 7.23579 15.3789 7.26437C14.5099 7.4472 11.6006 5.73491 10.2782 5.44167C9.98047 5.37567 9.68653 5.28406 9.39049 5.20976C8.9448 5.10094 8.49635 5.00508 8.04514 4.92218C7.81527 4.88023 7.58192 4.88213 7.35247 4.84686C7.21149 4.8252 7.09538 4.74158 6.94795 4.76159C6.88879 4.8045 6.87126 4.97768 6.86049 5.0487C6.78457 5.55136 6.76479 6.38009 7.08513 6.80184C7.16756 6.91039 7.27147 6.98152 7.40845 6.99878C7.86105 7.05582 8.31775 6.59153 8.62282 6.62594C8.70992 6.63577 8.8047 6.6899 8.88257 6.72881C9.07568 6.82529 9.23567 6.96821 9.37188 7.13422C9.88123 7.75516 10.2408 8.51364 11.1319 8.61037C11.1608 8.61375 11.1896 8.61641 11.2185 8.61835C11.2474 8.6203 11.2764 8.62153 11.3054 8.62204C11.3344 8.62255 11.3634 8.62237 11.3923 8.62148C11.4213 8.62056 11.4502 8.61894 11.4791 8.61661C11.508 8.61426 11.5368 8.6112 11.5656 8.60745C11.5944 8.60369 11.623 8.59924 11.6515 8.59408C11.68 8.58893 11.7084 8.58306 11.7366 8.57647C11.7649 8.56991 11.7929 8.56266 11.8208 8.5547C11.8487 8.54679 11.8764 8.53817 11.9038 8.52884C11.9313 8.51953 11.9585 8.50954 11.9854 8.49889C12.0124 8.48824 12.0391 8.47692 12.0655 8.46494C12.0919 8.45299 12.118 8.44039 12.1437 8.42715C12.1695 8.41387 12.195 8.39997 12.2201 8.38547C12.2451 8.37096 12.2698 8.35585 12.2942 8.34015C12.3186 8.32441 12.3425 8.30809 12.3661 8.29119C12.3896 8.27429 12.4127 8.25682 12.4354 8.23876C12.5986 8.1071 12.7626 7.90811 12.9632 7.8375L12.9903 7.84743C12.9785 7.99511 12.7178 8.22442 12.612 8.31459C12.0093 8.82779 11.1893 8.87285 10.546 9.31262C9.9552 9.71654 9.50014 10.2979 9.00837 10.8108C7.66789 12.2089 6.12354 13.6782 5.64197 15.6265C5.59829 15.8032 5.5355 15.9945 5.51884 16.1756C5.51376 16.2303 5.50776 16.2748 5.54088 16.3193C5.58548 16.3145 5.59855 16.3095 5.63469 16.282C5.73255 16.2077 5.81232 16.0967 5.89547 16.0066C5.99651 15.8972 6.10841 15.7965 6.22206 15.7002C6.77037 15.2361 7.53814 14.7498 8.25331 14.6163C8.36707 14.5951 8.49066 14.5935 8.60631 14.5868C8.70797 14.581 8.90651 14.5562 8.98884 14.6228C9.01083 14.6406 9.00601 14.6481 9.01006 14.6744C8.88339 14.8337 8.43596 14.8537 8.2445 14.8985C8.06974 14.9395 7.87586 14.9905 7.71213 15.0645C7.31053 15.2459 6.92114 15.4844 6.60813 15.797C5.74465 16.6594 5.16456 18.262 5.30225 19.4723Z" fill="#007AFF"/>
</svg>
