<svg width="225" height="79" viewBox="0 0 225 79" fill="none" xmlns="http://www.w3.org/2000/svg">
<path d="M65.9829 12.1799H67.075C67.0427 12.1903 67.0212 12.1984 66.9891 12.2049C66.8115 12.2409 66.123 12.2681 65.9829 12.1799Z" fill="#007AFF"/>
<path d="M37.7328 22.6764C37.4372 22.5112 37.1276 22.3758 36.8449 22.1864C36.113 21.6963 35.4633 20.8396 35.2171 19.993C34.9067 18.9254 35.1931 17.7779 35.7185 16.8272C36.0041 16.3103 36.5005 15.7434 37.0844 15.573C37.4384 15.4697 37.7982 15.4643 38.13 15.6465C38.4018 15.7957 38.6269 16.0603 38.7081 16.3631C38.753 16.5302 38.7592 16.7463 38.6737 16.9023C38.3583 17.4776 37.4618 17.2836 37.2019 18.5963C37.1289 18.965 37.128 19.3441 37.2175 19.7099C37.4217 20.5439 38.1112 21.2109 38.8226 21.6402C40.4053 22.5953 42.3377 22.5869 44.0801 22.1392C45.9636 21.6553 48.3551 20.3986 49.3701 18.677C49.6795 18.1522 49.9712 17.535 49.8079 16.9136C49.6051 16.1412 48.8371 15.5714 48.6576 15.0288C48.6022 14.861 48.6165 14.6851 48.7005 14.5298C48.8001 14.3456 49.026 14.1208 49.2278 14.0664C49.4731 14.0003 49.756 14.0652 49.9701 14.1943C50.5463 14.5419 50.8894 15.4083 51.0271 16.0352C51.314 17.342 51.2255 18.5908 50.4935 19.7368C49.4615 21.3522 47.3223 22.2096 45.523 22.5926C45.1859 22.6644 43.8521 22.7952 43.6876 22.922C43.6478 23.0068 43.6346 23.018 43.6519 23.1135C43.7174 23.1937 43.7858 23.2293 43.8845 23.2599C44.1375 23.3385 44.416 23.3505 44.6765 23.4005C45.4918 23.5568 46.0869 23.6881 46.9313 23.7712C47.3022 23.807 47.674 23.8308 48.0465 23.8427C48.419 23.8546 48.7915 23.8546 49.164 23.8426C49.5365 23.8306 49.9083 23.8067 50.2793 23.7709C50.6503 23.735 51.0198 23.6873 51.3877 23.6278C54.346 23.1553 59.092 21.4398 61.4072 19.5168C62.3282 18.7518 63.0811 17.8408 63.6058 16.7589C63.7984 16.3616 63.9549 15.9394 64.0856 15.5176C64.3447 14.6816 64.5963 13.1946 65.3156 12.6604C65.6293 12.4275 66.5157 12.4389 66.9116 12.4717C67.2115 12.4965 67.4382 12.6175 67.6317 12.8479C68.0459 13.3409 68.1957 13.9853 68.14 14.618C67.963 16.6308 66.198 17.9922 64.7666 19.1826C63.2471 20.4462 61.7648 21.7127 60.0447 22.701C59.6006 22.9569 59.1388 23.1747 58.6593 23.3545C58.3113 23.4815 57.9455 23.5765 57.605 23.7211C57.5058 23.7633 57.4193 23.7901 57.3537 23.878C57.3573 23.9567 57.3474 23.9973 57.4201 24.0466C57.5704 24.1485 57.9754 24.1089 58.1606 24.108C60.4122 24.0978 62.9876 23.4201 65.1079 22.6688C66.0282 22.3427 66.928 21.9798 67.7995 21.5363C69.6835 20.5773 72.8523 18.488 73.803 16.5075C74.0141 16.0678 74.0169 15.641 74.1088 15.1731C74.1453 14.9872 74.2209 14.8116 74.2707 14.6294C74.4178 14.0922 74.6065 13.6737 75.1611 13.4668C75.376 13.3866 75.597 13.4064 75.8008 13.508C76.1363 13.6752 76.359 14.0035 76.4651 14.3565C76.695 15.1223 76.417 15.9738 76.049 16.6455C75.7673 17.1597 75.3881 17.6405 74.9666 18.0462C74.3917 18.5994 73.7005 19.0628 73.0585 19.5331C71.7564 20.4964 70.4225 21.4132 69.0571 22.2835C68.8373 22.4217 68.2059 22.6937 68.2938 23.0068C68.4374 23.518 69.5172 24.2451 69.9997 24.4777C71.2207 25.0665 72.5143 24.8449 73.7384 24.3993C74.2384 24.2171 75.1306 23.68 75.6466 23.9116C75.8406 23.9988 76.0566 24.1946 76.1286 24.3997C76.1737 24.5285 76.1501 24.6641 76.0868 24.7823C75.7531 25.4054 74.6782 25.858 74.0341 26.0292C73.5354 26.1618 72.9985 26.2661 72.4817 26.2492C70.7705 26.1936 68.7666 25.0289 67.056 24.6827C66.2357 24.5167 65.2916 24.5355 64.4599 24.6235C63.9818 24.6882 63.5019 24.7452 63.0245 24.8154C62.7178 24.8605 62.407 24.9298 62.0978 24.9506C61.2154 25.0099 59.0255 24.8379 58.3541 25.0929C57.9582 25.3821 57.7419 25.6406 57.59 26.1121C57.6424 26.375 57.7152 26.6368 57.8512 26.8696C58.4195 27.8424 59.6449 27.4924 60.5572 27.7393C60.6273 27.9356 60.6699 28.1243 60.7012 28.3302C60.5993 28.6016 60.4692 28.8016 60.2244 28.9642C59.8798 29.1933 59.4728 29.184 59.0823 29.1107C58.6241 29.0245 58.1934 28.7979 57.815 28.5304C57.3472 28.1995 56.9207 27.7764 56.5659 27.3263C56.2444 26.9185 55.9618 26.4829 55.6801 26.047C55.5013 25.7701 55.3271 25.4652 55.1064 25.22C54.9775 25.0768 54.8282 24.9553 54.6497 24.8799C53.9805 24.5974 50.9667 24.771 49.9972 24.7566C49.2694 24.7447 48.5424 24.7138 47.8162 24.6638C47.0901 24.6138 46.3657 24.5448 45.6431 24.4567C44.9205 24.3687 44.2007 24.2619 43.4836 24.1361C42.7666 24.0104 42.0533 23.8659 41.3438 23.7027C41.1831 23.6657 41.0241 23.6199 40.8648 23.5771C40.6813 23.5452 40.4984 23.5145 40.3137 23.4903C39.4299 23.2948 38.5646 23.0351 37.7328 22.6764Z" fill="#007AFF"/>
<path d="M25.8647 48.9826C25.9066 49.3535 25.9676 49.7159 26.0854 50.0709L26.1646 50.1561C26.4492 50.2496 26.7591 50.2429 27.056 50.2648C27.1871 50.2694 27.3204 50.2688 27.4503 50.2879C28.1687 50.367 29.2273 50.4046 29.8887 50.6364C29.3108 50.8251 27.8504 50.8288 27.1589 50.8951L25.2084 51.0851C24.9335 51.114 24.6461 51.1778 24.3713 51.1864C23.347 51.3542 22.3398 51.5413 21.3294 51.7803C20.5255 52.0296 19.7081 52.2197 18.9105 52.496C17.917 52.8399 16.9218 53.2889 15.9037 53.5417V53.6354C16.0967 53.6503 16.289 53.662 16.4792 53.6999C16.5745 53.9854 16.6746 54.2691 16.7793 54.5513C16.884 54.8334 16.9933 55.1137 17.1073 55.3921C17.2213 55.6706 17.3398 55.9471 17.4629 56.2216C17.586 56.4961 17.7136 56.7685 17.8457 57.0388C17.9778 57.3091 18.1143 57.577 18.2552 57.8427C18.3961 58.1084 18.5414 58.3717 18.691 58.6326C18.8406 58.8934 18.9945 59.1517 19.1526 59.4075C19.3107 59.6633 19.473 59.9163 19.6395 60.1667C19.806 60.4169 19.9766 60.6644 20.1512 60.9091C20.3259 61.1537 20.5045 61.3954 20.6871 61.6341C20.8697 61.8728 21.0562 62.1084 21.2466 62.3408C21.437 62.5733 21.6312 62.8025 21.8292 63.0285C22.0271 63.2545 22.2287 63.4771 22.4341 63.6964C22.6394 63.9157 22.8482 64.1315 23.0606 64.3437C23.2731 64.5561 23.4889 64.7648 23.7082 64.9699C23.9276 65.175 24.1502 65.3764 24.3761 65.5741C24.6493 65.8163 25.5435 66.7234 25.7811 66.8624C25.825 66.888 25.8626 66.8921 25.9122 66.894C25.951 66.8426 25.971 66.8295 25.9632 66.7613C25.9547 66.6867 25.9097 66.6102 25.8672 66.5502C25.7526 66.3882 25.6079 66.2525 25.4866 66.0962L25.4177 66.0074C25.0328 65.5118 24.6439 65.011 24.2851 64.4975C23.5799 63.4912 22.9316 62.449 22.3403 61.3711C22.1606 61.0422 21.9512 60.6906 21.815 60.3422C21.3223 59.4151 20.9106 58.3979 20.5003 57.4307C20.2346 56.6454 19.2392 54.3946 19.3255 53.6769C19.334 53.6705 19.3419 53.6633 19.351 53.6579C19.4219 53.6161 19.5167 53.611 19.5951 53.6317C20.1454 53.7765 20.3909 54.6196 20.6442 55.0561C20.7213 55.1078 20.8197 55.1137 20.9102 55.122C21.1994 55.1483 21.4971 55.1369 21.7879 55.1481C22.4192 55.1723 23.6171 55.2384 24.2141 55.3599C24.8795 55.4953 25.5533 55.5818 26.2183 55.7134C26.5376 55.7766 26.8514 55.8662 27.1706 55.9308C27.5094 55.9993 27.8541 56.0352 28.1937 56.0995L28.2757 56.115C29.4878 56.3443 30.7182 56.577 31.944 56.7081C34.5324 56.9849 37.2309 56.8155 39.7947 56.3875C41.1953 56.1538 42.6106 55.8322 43.9789 55.4512C46.2784 54.8111 48.3999 53.8766 50.8457 54.2171C52.8831 54.5007 54.7518 56.2583 56.3177 57.4941C59.4046 59.9303 61.2779 60.2214 65.099 60.4559C66.3549 60.533 67.7461 60.6693 68.938 61.0979C70.4234 61.6317 71.8014 62.5131 73.1537 63.3162C74.8281 64.3106 76.5499 65.3608 78.3756 66.0487C78.7911 66.2053 79.223 66.3114 79.646 66.4447C80.306 66.6525 80.9616 66.9159 81.6554 66.9899L81.6557 66.978C81.6579 66.913 81.6585 66.894 81.5981 66.8446C81.4205 66.6988 80.326 66.2121 80.0036 66.0431C76.8697 64.3996 73.0507 62.0729 70.9171 59.2107C70.5727 58.7488 70.2721 58.2125 69.996 57.7064C69.8987 57.5278 69.8286 57.3277 69.7169 57.1592C69.5223 57.1073 69.249 57.3591 69.0395 57.4001C68.8078 57.4453 68.5509 57.4368 68.3153 57.4421C67.84 57.4526 67.3474 57.4124 66.8955 57.2546C66.4506 57.0993 66.0354 56.8371 65.6551 56.5617C64.265 55.5552 63.2925 54.1384 62.2815 52.7747C61.982 52.3706 61.6598 51.9809 61.3519 51.5827C60.4986 50.4798 59.5847 49.3814 58.3397 48.7132C56.459 47.7033 54.3589 48.1541 52.344 48.287C51.3535 48.3524 50.3459 48.3407 49.3718 48.1299C47.0349 47.6239 45.3993 45.8947 43.3809 44.7614C42.0284 44.0018 40.5553 43.4847 39.2758 42.5949C38.2506 41.882 37.4985 40.9944 37.2769 39.7359C36.8916 37.5481 37.9049 33.7307 38.7111 31.6984C39.0178 30.9255 39.3959 30.1777 39.8005 29.4524C40.1137 28.8912 40.4402 28.3559 40.8215 27.8377C40.9961 27.6005 41.2205 27.3854 41.3759 27.1377C41.4936 26.9502 41.0538 26.6734 41.0037 26.4534C40.9853 26.3726 41.0033 26.3022 41.0496 26.2343C41.1197 26.1316 41.2786 26.0646 41.3905 26.0259C42.435 25.6646 43.4493 27.2054 44.5356 27.0647C44.6577 27.0478 44.7782 27.0231 44.8972 26.9905C45.0161 26.9579 45.1325 26.9177 45.2462 26.87C45.5894 26.7271 46.4894 26.2232 46.6899 25.9282C46.7429 25.8502 46.7479 25.8123 46.7359 25.7207C46.5219 25.643 45.8201 25.8152 45.5595 25.8385C45.2955 25.8622 45.0505 25.8556 44.7953 25.9096C43.1626 26.2551 37.6972 23.0189 35.2127 22.4647C34.6535 22.3399 34.1013 22.1668 33.5451 22.0264C32.7078 21.8207 31.8653 21.6395 31.0177 21.4828C30.5858 21.4036 30.1475 21.4072 29.7164 21.3405C29.4515 21.2996 29.2334 21.1415 28.9564 21.1793C28.8453 21.2604 28.8124 21.5877 28.7921 21.722C28.6495 22.672 28.6123 24.2383 29.2142 25.0354C29.369 25.2406 29.5642 25.375 29.8216 25.4076C30.6718 25.5154 31.5298 24.6379 32.1029 24.703C32.2666 24.7215 32.4446 24.8238 32.5909 24.8974C32.9537 25.0797 33.2543 25.3498 33.5101 25.6636C34.467 26.8372 35.1425 28.2707 36.8167 28.4535C36.8708 28.4599 36.925 28.4649 36.9794 28.4686C37.0337 28.4723 37.0881 28.4746 37.1425 28.4756C37.197 28.4766 37.2515 28.4762 37.3058 28.4745C37.3603 28.4728 37.4147 28.4697 37.469 28.4653C37.5232 28.4609 37.5774 28.4551 37.6313 28.448C37.6854 28.4409 37.7392 28.4325 37.7928 28.4228C37.8464 28.413 37.8997 28.4019 37.9527 28.3895C38.0058 28.3771 38.0585 28.3634 38.1109 28.3483C38.1632 28.3334 38.2152 28.3171 38.2668 28.2994C38.3183 28.2818 38.3694 28.263 38.4201 28.2428C38.4707 28.2227 38.5209 28.2013 38.5705 28.1787C38.6201 28.1561 38.6691 28.1323 38.7175 28.1072C38.766 28.0821 38.8138 28.0559 38.8609 28.0285C38.908 28.001 38.9544 27.9725 39.0001 27.9428C39.0459 27.9131 39.0909 27.8822 39.1352 27.8503C39.1793 27.8183 39.2227 27.7853 39.2654 27.7512C39.572 27.5024 39.8801 27.1263 40.2569 26.9928L40.3079 27.0116C40.2858 27.2907 39.796 27.7241 39.5971 27.8945C38.4649 28.8645 36.9245 28.9496 35.7159 29.7808C34.606 30.5442 33.7511 31.643 32.8272 32.6124C30.309 35.2548 27.4077 38.0317 26.503 41.7139C26.4209 42.0479 26.3029 42.4096 26.2716 42.7518C26.2621 42.8552 26.2508 42.9393 26.3131 43.0235C26.3968 43.0144 26.4214 43.0048 26.4893 42.9529C26.6731 42.8124 26.823 42.6028 26.9792 42.4324C27.169 42.2256 27.3792 42.0352 27.5928 41.8534C28.6228 40.9762 30.0652 40.0571 31.4088 39.8048C31.6225 39.7648 31.8547 39.7617 32.0719 39.7491C32.2629 39.738 32.6359 39.6911 32.7906 39.817C32.8319 39.8507 32.8228 39.8649 32.8304 39.9145C32.5925 40.2156 31.7519 40.2534 31.3922 40.3382C31.0639 40.4156 30.6997 40.512 30.3921 40.6518C29.6376 40.9946 28.9061 41.4455 28.318 42.0363C26.6959 43.6662 25.6061 46.6952 25.8647 48.9826Z" fill="#007AFF"/>
<path d="M104.754 18.531V21.663H109.974V18.531H111.018V25.839H109.974V22.707H104.754V25.839H103.71V18.531H104.754Z" fill="white"/>
<path d="M114.461 25.839V18.531H115.505V24.3252L120.725 18.531H121.769V25.839H120.725V19.9404L115.505 25.839H114.461Z" fill="white"/>
<path d="M129.075 21.308V18.531H130.119V21.308L133.251 19.575V18.531H134.295V20.191L130.673 22.1954L134.295 24.1999V25.839H133.251V24.8159L130.119 23.0828V25.839H129.075V23.0828L125.943 24.8159V25.839H124.899V24.1999L128.522 22.1954L124.899 20.191V18.531H125.943V19.575L129.075 21.308Z" fill="white"/>
<path d="M138.476 19.575V21.663H143.696V22.707H138.476V24.795H144.74V25.839H137.432V18.531H144.74V19.575H138.476Z" fill="white"/>
<path d="M154.243 19.575H149.023V25.839H147.979V18.531H154.243V19.575Z" fill="white"/>
<path d="M163.126 23.751V20.619C163.126 20.0448 162.656 19.575 162.082 19.575H158.95C158.376 19.575 157.906 20.0448 157.906 20.619V23.751C157.906 24.3252 158.376 24.795 158.95 24.795H162.082C162.656 24.795 163.126 24.3252 163.126 23.751ZM164.17 20.619V23.751C164.17 24.8994 163.231 25.839 162.082 25.839H158.95C157.791 25.839 156.862 24.9098 156.862 23.751V20.619C156.862 19.4706 157.802 18.531 158.95 18.531H162.082C163.189 18.531 164.17 19.481 164.17 20.619Z" fill="white"/>
<path d="M173.778 21.663V20.619C173.778 20.0448 173.308 19.575 172.734 19.575H168.558V22.707H172.734C173.308 22.707 173.778 22.2372 173.778 21.663ZM174.822 20.619V21.663C174.822 22.7696 173.903 23.751 172.734 23.751H168.558V25.839H167.514V18.531H172.734C173.851 18.531 174.79 19.4602 174.822 20.619Z" fill="white"/>
<path d="M184.221 23.751V20.619C184.221 20.0448 183.751 19.575 183.177 19.575H180.045C179.47 19.575 179.001 20.0448 179.001 20.619V23.751C179.001 24.3252 179.47 24.795 180.045 24.795H183.177C183.751 24.795 184.221 24.3252 184.221 23.751ZM185.265 20.619V23.751C185.265 24.8994 184.325 25.839 183.177 25.839H180.045C178.886 25.839 177.957 24.9098 177.957 23.751V20.619C177.957 19.4706 178.896 18.531 180.045 18.531H183.177C184.283 18.531 185.265 19.481 185.265 20.619Z" fill="white"/>
<path d="M190.174 20.619V24.795H195.394V19.575H191.218C190.644 19.575 190.174 20.0448 190.174 20.619ZM188.086 25.839V24.795H189.13V20.619C189.13 19.5124 190.049 18.531 191.218 18.531H196.438V24.795H197.482V25.839H188.086Z" fill="white"/>
<path d="M107.725 31.0591H115.033C117.64 31.0591 119.832 33.2271 119.905 35.9311H117.469C117.469 34.5913 116.373 33.4951 115.033 33.4951H107.725C106.385 33.4951 105.289 34.5913 105.289 35.9311V43.2391C105.289 44.5789 106.385 45.6751 107.725 45.6751H115.033C116.373 45.6751 117.469 44.5789 117.469 43.2391H119.905C119.905 45.8212 117.761 48.1111 115.033 48.1111H107.725C105.119 48.1111 102.853 45.9918 102.853 43.2391V35.9311C102.853 33.3002 104.997 31.1322 107.725 31.0591Z" fill="#007AFF"/>
<path d="M138.651 33.4951H131.343V48.1111H128.907V33.4951H121.599V31.0591H138.651V33.4951Z" fill="#007AFF"/>
<path d="M152.552 33.4951H145.244C143.904 33.4951 142.808 34.5913 142.808 35.9311V40.8031H154.988V35.9311C154.988 34.5913 153.892 33.4951 152.552 33.4951ZM157.424 35.9311V48.1111H154.988V43.2391H142.808V48.1111H140.372V35.9311C140.372 33.3489 142.516 31.0591 145.244 31.0591H152.552C155.159 31.0591 157.351 33.2271 157.424 35.9311Z" fill="#007AFF"/>
<path d="M165.702 31.0591H177.882V48.1111H175.446V33.4951H165.702C164.362 33.4951 163.266 34.5913 163.266 35.9311V48.1111H160.83V35.9311C160.83 33.3002 162.974 31.1322 165.702 31.0591Z" fill="#007AFF"/>
<path d="M195.903 43.2391V42.0211C195.903 40.6813 194.807 39.5851 193.467 39.5851H183.723V45.6751H193.467C194.807 45.6751 195.903 44.5789 195.903 43.2391ZM198.339 42.0211V43.2391C198.339 45.8212 196.196 48.1111 193.467 48.1111H181.287V31.0591H183.723V37.1491H193.467C196.074 37.1491 198.266 39.3171 198.339 42.0211Z" fill="#007AFF"/>
<path d="M114.735 53.3311H117.867C118.984 53.3311 119.924 54.2602 119.955 55.4191H118.911C118.911 54.8449 118.442 54.3751 117.867 54.3751H114.735C114.161 54.3751 113.691 54.8449 113.691 55.4191V58.5511C113.691 59.1253 114.161 59.5951 114.735 59.5951H117.867C118.442 59.5951 118.911 59.1253 118.911 58.5511H119.955C119.955 59.6577 119.037 60.6391 117.867 60.6391H114.735C113.618 60.6391 112.647 59.7308 112.647 58.5511V55.4191C112.647 54.2915 113.566 53.3624 114.735 53.3311Z" fill="white"/>
<path d="M127.363 54.3751V56.4631H132.583V57.5071H127.363V59.5951H133.627V60.6391H126.319V53.3311H133.627V54.3751H127.363Z" fill="white"/>
<path d="M146.262 56.4631V55.4191C146.262 54.8449 145.792 54.3751 145.218 54.3751H141.042V57.5071H145.218C145.792 57.5071 146.262 57.0373 146.262 56.4631ZM147.306 55.4191V56.4631C147.306 57.5697 146.387 58.5511 145.218 58.5511H141.042V60.6391H139.998V53.3311H145.218C146.335 53.3311 147.275 54.2602 147.306 55.4191Z" fill="white"/>
<path d="M158.897 60.6391H153.677V53.3311H158.897C159.994 53.3311 160.985 54.2602 160.985 55.4191C160.985 56.0455 160.745 56.5675 160.275 56.9851C160.745 57.4027 160.985 57.9247 160.985 58.5511C160.985 59.6786 160.067 60.6077 158.897 60.6391ZM158.897 57.5071H154.721V59.5951H158.897C159.472 59.5951 159.941 59.1253 159.941 58.5511C159.941 57.9769 159.472 57.5071 158.897 57.5071ZM154.721 54.3751V56.4631H158.897C159.472 56.4631 159.941 55.9933 159.941 55.4191C159.941 54.8449 159.472 54.3751 158.897 54.3751H154.721Z" fill="white"/>
<path d="M167.459 60.6391V53.3311H168.503V59.1253L173.723 53.3311H174.767V60.6391H173.723V54.7405L168.503 60.6391H167.459Z" fill="white"/>
<path d="M183.325 53.3311H186.457C187.574 53.3311 188.514 54.2602 188.545 55.4191H187.501C187.501 54.8449 187.032 54.3751 186.457 54.3751H183.325C182.751 54.3751 182.281 54.8449 182.281 55.4191V58.5511C182.281 59.1253 182.751 59.5951 183.325 59.5951H186.457C187.032 59.5951 187.501 59.1253 187.501 58.5511H188.545C188.545 59.6577 187.627 60.6391 186.457 60.6391H183.325C182.208 60.6391 181.237 59.7308 181.237 58.5511V55.4191C181.237 54.2915 182.156 53.3624 183.325 53.3311Z" fill="white"/>
</svg>
