<svg width="146" height="125" viewBox="0 0 146 125" fill="none" xmlns="http://www.w3.org/2000/svg">
<rect width="145.158" height="124.4" transform="translate(0.421143)" fill="white"/>
<path d="M87.3514 17.4189H88.2624C88.2355 17.4275 88.2175 17.4343 88.1908 17.4397C88.0426 17.4697 87.4683 17.4925 87.3514 17.4189Z" fill="#007AFF"/>
<path d="M63.784 26.1754C63.5374 26.0377 63.2791 25.9247 63.0433 25.7667C62.4327 25.3578 61.8907 24.6431 61.6853 23.9369C61.4264 23.0462 61.6653 22.0889 62.1037 21.2958C62.3419 20.8647 62.756 20.3917 63.2431 20.2495C63.5384 20.1633 63.8386 20.1588 64.1154 20.3108C64.3421 20.4353 64.5299 20.656 64.5977 20.9086C64.6351 21.0481 64.6403 21.2283 64.5689 21.3585C64.3058 21.8384 63.558 21.6766 63.3412 22.7717C63.2803 23.0792 63.2795 23.3955 63.3542 23.7007C63.5245 24.3965 64.0997 24.9528 64.6932 25.311C66.0136 26.1078 67.6256 26.1008 69.0792 25.7273C70.6505 25.3236 72.6456 24.2752 73.4923 22.839C73.7505 22.4012 73.9937 21.8863 73.8576 21.3679C73.6884 20.7236 73.0476 20.2482 72.898 19.7955C72.8517 19.6556 72.8637 19.5088 72.9337 19.3793C73.0168 19.2256 73.2053 19.0381 73.3736 18.9927C73.5782 18.9375 73.8143 18.9916 73.9929 19.0993C74.4735 19.3893 74.7598 20.1121 74.8747 20.6352C75.114 21.7253 75.0402 22.7671 74.4295 23.7231C73.5686 25.0708 71.7839 25.786 70.2829 26.1056C70.0017 26.1654 68.889 26.2746 68.7518 26.3803C68.7186 26.4511 68.7076 26.4604 68.722 26.5401C68.7766 26.607 68.8337 26.6367 68.916 26.6622C69.1271 26.7278 69.3594 26.7379 69.5767 26.7795C70.2569 26.9099 70.7533 27.0195 71.4578 27.0888C71.7672 27.1186 72.0774 27.1385 72.3881 27.1484C72.6989 27.1584 73.0096 27.1583 73.3204 27.1483C73.6312 27.1383 73.9413 27.1184 74.2508 27.0885C74.5603 27.0586 74.8685 27.0188 75.1755 26.9692C77.6434 26.575 81.6027 25.1438 83.5342 23.5396C84.3025 22.9014 84.9306 22.1414 85.3683 21.2389C85.529 20.9074 85.6595 20.5552 85.7685 20.2033C85.9847 19.5059 86.1946 18.2654 86.7947 17.8198C87.0563 17.6254 87.7958 17.6349 88.1261 17.6623C88.3763 17.683 88.5654 17.7839 88.7269 17.9761C89.0724 18.3874 89.1974 18.925 89.1509 19.4529C89.0033 21.132 87.5308 22.2677 86.3366 23.2608C85.0691 24.3149 83.8325 25.3715 82.3975 26.196C82.027 26.4094 81.6417 26.5911 81.2417 26.7412C80.9514 26.8471 80.6463 26.9264 80.3622 27.047C80.2794 27.0822 80.2073 27.1046 80.1526 27.1779C80.1556 27.2435 80.1473 27.2774 80.2079 27.3185C80.3333 27.4035 80.6712 27.3705 80.8257 27.3698C82.7041 27.3612 84.8526 26.7959 86.6214 26.1691C87.3891 25.8971 88.1398 25.5943 88.8668 25.2243C90.4386 24.4243 93.0821 22.6813 93.8752 21.0291C94.0513 20.6623 94.0536 20.3062 94.1303 19.9159C94.1607 19.7609 94.2238 19.6143 94.2654 19.4623C94.3881 19.0142 94.5455 18.665 95.0082 18.4925C95.1875 18.4256 95.3718 18.4421 95.5419 18.5268C95.8217 18.6663 96.0075 18.9402 96.096 19.2347C96.2878 19.8735 96.0559 20.5839 95.7489 21.1443C95.5139 21.5733 95.1975 21.9744 94.8459 22.3128C94.3663 22.7743 93.7897 23.1609 93.2541 23.5532C92.1678 24.3568 91.0551 25.1217 89.9159 25.8477C89.7326 25.963 89.2059 26.1899 89.2792 26.4511C89.399 26.8775 90.2998 27.4841 90.7023 27.6781C91.7209 28.1694 92.8001 27.9845 93.8213 27.6127C94.2384 27.4608 94.9827 27.0127 95.4132 27.2059C95.5751 27.2786 95.7553 27.442 95.8153 27.6131C95.853 27.7205 95.8332 27.8337 95.7804 27.9323C95.502 28.4521 94.6053 28.8297 94.068 28.9725C93.6519 29.0832 93.204 29.1701 92.7729 29.1561C91.3454 29.1096 89.6736 28.138 88.2466 27.8492C87.5623 27.7107 86.7747 27.7264 86.0808 27.7998C85.6819 27.8538 85.2816 27.9013 84.8833 27.9599C84.6275 27.9975 84.3682 28.0553 84.1103 28.0727C83.3741 28.1222 81.5472 27.9786 80.9871 28.1914C80.6569 28.4326 80.4764 28.6483 80.3497 29.0417C80.3934 29.2609 80.4541 29.4794 80.5675 29.6736C81.0417 30.4851 82.064 30.1931 82.8251 30.3991C82.8835 30.5629 82.9191 30.7203 82.9452 30.8921C82.8602 31.1185 82.7516 31.2853 82.5474 31.421C82.2599 31.6121 81.9204 31.6044 81.5946 31.5432C81.2124 31.4713 80.8531 31.2822 80.5374 31.0591C80.1471 30.783 79.7914 30.4301 79.4953 30.0546C79.2271 29.7144 78.9914 29.351 78.7564 28.9873C78.6072 28.7563 78.4619 28.502 78.2777 28.2974C78.1702 28.178 78.0457 28.0766 77.8967 28.0137C77.3385 27.778 74.8242 27.9229 74.0154 27.9108C73.4083 27.9009 72.8018 27.8751 72.196 27.8334C71.5902 27.7917 70.9859 27.7341 70.3831 27.6607C69.7803 27.5873 69.1798 27.4981 68.5816 27.3932C67.9834 27.2883 67.3884 27.1678 66.7965 27.0317C66.6624 27.0007 66.5298 26.9625 66.3969 26.9269C66.2438 26.9002 66.0912 26.8746 65.9372 26.8544C65.1998 26.6913 64.478 26.4747 63.784 26.1754Z" fill="#007AFF"/>
<path d="M53.8832 48.1211C53.9182 48.4305 53.9691 48.7329 54.0673 49.029L54.1334 49.1001C54.3708 49.1781 54.6294 49.1725 54.8771 49.1907C54.9864 49.1946 55.0976 49.1941 55.206 49.21C55.8053 49.276 56.6884 49.3074 57.2402 49.5008C56.7581 49.6582 55.5397 49.6613 54.9629 49.7166L53.3357 49.8751C53.1064 49.8992 52.8666 49.9524 52.6374 49.9596C51.7829 50.0996 50.9426 50.2557 50.0996 50.455C49.4291 50.663 48.7471 50.8217 48.0817 51.0521C47.253 51.339 46.4227 51.7136 45.5733 51.9245V52.0026C45.7343 52.0151 45.8948 52.0248 46.0534 52.0565C46.133 52.2946 46.2164 52.5314 46.3038 52.7667C46.3912 53.0021 46.4824 53.2359 46.5775 53.4682C46.6725 53.7005 46.7714 53.9311 46.8741 54.1601C46.9768 54.3892 47.0832 54.6164 47.1934 54.8419C47.3036 55.0674 47.4175 55.2909 47.5351 55.5126C47.6526 55.7342 47.7738 55.9539 47.8986 56.1715C48.0234 56.3891 48.1518 56.6046 48.2837 56.818C48.4156 57.0313 48.551 57.2424 48.6899 57.4513C48.8288 57.6601 48.9711 57.8665 49.1168 58.0706C49.2625 58.2747 49.4115 58.4763 49.5639 58.6754C49.7162 58.8746 49.8718 59.0711 50.0306 59.2651C50.1895 59.459 50.3515 59.6502 50.5166 59.8387C50.6817 60.0273 50.85 60.213 51.0212 60.3959C51.1925 60.5789 51.3667 60.7589 51.544 60.936C51.7212 61.1131 51.9013 61.2872 52.0842 61.4583C52.2672 61.6295 52.4529 61.7975 52.6414 61.9624C52.8692 62.1644 53.6152 62.9212 53.8134 63.0371C53.8501 63.0585 53.8815 63.0619 53.9229 63.0635C53.9552 63.0206 53.9719 63.0097 53.9654 62.9528C53.9583 62.8906 53.9208 62.8267 53.8853 62.7766C53.7897 62.6416 53.669 62.5283 53.5678 62.3979L53.5103 62.3239C53.1892 61.9104 52.8647 61.4926 52.5655 61.0643C51.9771 60.2247 51.4363 59.3553 50.943 58.4561C50.7931 58.1817 50.6184 57.8884 50.5048 57.5977C50.0938 56.8243 49.7503 55.9757 49.408 55.1689C49.1864 54.5137 48.356 52.636 48.428 52.0373C48.435 52.0319 48.4416 52.026 48.4492 52.0214C48.5084 51.9866 48.5874 51.9823 48.6529 51.9996C49.1119 52.1203 49.3167 52.8237 49.5281 53.1879C49.5924 53.231 49.6745 53.2359 49.75 53.2429C49.9912 53.2648 50.2396 53.2553 50.4821 53.2646C51.0088 53.2848 52.0082 53.34 52.5062 53.4413C53.0613 53.5543 53.6234 53.6264 54.1782 53.7362C54.4446 53.7889 54.7063 53.8637 54.9726 53.9176C55.2552 53.9748 55.5429 54.0047 55.8262 54.0583L55.8946 54.0713C56.9057 54.2625 57.9322 54.4566 58.9548 54.566C61.1142 54.7969 63.3653 54.6556 65.5041 54.2986C66.6726 54.1036 67.8533 53.8353 68.9948 53.5174C70.9131 52.9834 72.683 52.2039 74.7233 52.4879C76.423 52.7245 77.9819 54.1908 79.2883 55.2218C81.8635 57.2541 83.4263 57.497 86.614 57.6926C87.6617 57.7569 88.8223 57.8706 89.8166 58.2281C91.0558 58.6735 92.2054 59.4088 93.3335 60.0788C94.7303 60.9084 96.1668 61.7845 97.6898 62.3583C98.0365 62.489 98.3967 62.5775 98.7497 62.6886C99.3003 62.8621 99.8471 63.0818 100.426 63.1435L100.426 63.1336C100.428 63.0793 100.429 63.0635 100.378 63.0223C100.23 62.9007 99.3169 62.4946 99.048 62.3537C96.4336 60.9826 93.2476 59.0415 91.4677 56.6538C91.1804 56.2685 90.9296 55.8211 90.6993 55.3988C90.618 55.2499 90.5596 55.0829 90.4664 54.9423C90.3041 54.899 90.0761 55.1091 89.9013 55.1433C89.708 55.181 89.4937 55.174 89.2972 55.1783C88.9007 55.1871 88.4896 55.1536 88.1127 55.0219C87.7415 54.8923 87.3951 54.6736 87.0779 54.4439C85.9182 53.6042 85.1069 52.4223 84.2635 51.2846C84.0136 50.9475 83.7449 50.6224 83.488 50.2902C82.7761 49.3701 82.0137 48.4538 80.9751 47.8963C79.4061 47.0539 77.6542 47.4299 75.9733 47.5408C75.147 47.5953 74.3064 47.5856 73.4938 47.4097C71.5442 46.9876 70.1798 45.5451 68.4959 44.5996C67.3676 43.966 66.1387 43.5346 65.0712 42.7923C64.216 42.1975 63.5886 41.457 63.4037 40.4072C63.0823 38.582 63.9276 35.3974 64.6002 33.702C64.856 33.0572 65.1714 32.4333 65.509 31.8283C65.7703 31.3601 66.0426 30.9135 66.3607 30.4812C66.5064 30.2833 66.6936 30.1039 66.8232 29.8972C66.9214 29.7408 66.5545 29.5099 66.5127 29.3264C66.4974 29.259 66.5124 29.2002 66.551 29.1436C66.6095 29.058 66.7421 29.002 66.8355 28.9697C67.7068 28.6683 68.5529 29.9538 69.4592 29.8364C69.5611 29.8223 69.6616 29.8016 69.7609 29.7744C69.8601 29.7473 69.9571 29.7137 70.052 29.6739C70.3383 29.5547 71.0891 29.1343 71.2564 28.8882C71.3006 28.8232 71.3048 28.7915 71.2947 28.7151C71.1162 28.6503 70.5308 28.7939 70.3134 28.8134C70.0931 28.8332 69.8888 28.8277 69.6759 28.8727C68.3138 29.161 63.7544 26.4612 61.6817 25.9988C61.2152 25.8948 60.7545 25.7503 60.2905 25.6332C59.592 25.4616 58.8892 25.3105 58.182 25.1798C57.8218 25.1136 57.456 25.1166 57.0964 25.061C56.8755 25.0268 56.6935 24.895 56.4625 24.9266C56.3697 24.9942 56.3423 25.2673 56.3254 25.3792C56.2064 26.1718 56.1754 27.4785 56.6775 28.1434C56.8066 28.3146 56.9695 28.4267 57.1842 28.454C57.8935 28.5439 58.6093 27.8118 59.0874 27.8661C59.2239 27.8816 59.3724 27.9669 59.4945 28.0283C59.7971 28.1804 60.0479 28.4058 60.2613 28.6675C61.0596 29.6465 61.6231 30.8424 63.0198 30.995C63.0649 31.0003 63.1102 31.0045 63.1555 31.0076C63.2008 31.0106 63.2462 31.0126 63.2916 31.0134C63.3371 31.0142 63.3825 31.0139 63.4278 31.0125C63.4733 31.011 63.5186 31.0085 63.5639 31.0048C63.6092 31.0011 63.6544 30.9963 63.6994 30.9904C63.7445 30.9844 63.7894 30.9774 63.8341 30.9693C63.8788 30.9612 63.9233 30.9519 63.9675 30.9415C64.0117 30.9312 64.0557 30.9197 64.0994 30.9072C64.1431 30.8947 64.1865 30.8811 64.2295 30.8664C64.2725 30.8517 64.3151 30.836 64.3574 30.8192C64.3997 30.8024 64.4415 30.7846 64.4829 30.7657C64.5242 30.7468 64.5651 30.727 64.6055 30.7061C64.6459 30.6851 64.6858 30.6632 64.7251 30.6404C64.7644 30.6175 64.8032 30.5937 64.8413 30.5689C64.8795 30.5441 64.917 30.5184 64.9539 30.4917C64.9908 30.4651 65.027 30.4375 65.0626 30.409C65.3184 30.2015 65.5754 29.8877 65.8898 29.7764L65.9323 29.792C65.9139 30.0249 65.5052 30.3864 65.3393 30.5286C64.3948 31.3378 63.1097 31.4088 62.1015 32.1022C61.1755 32.7391 60.4624 33.6557 59.6916 34.4645C57.5908 36.6689 55.1704 38.9854 54.4157 42.0573C54.3472 42.3359 54.2488 42.6377 54.2227 42.9231C54.2147 43.0094 54.2053 43.0795 54.2572 43.1498C54.3271 43.1422 54.3476 43.1342 54.4043 43.0909C54.5576 42.9737 54.6826 42.7988 54.813 42.6567C54.9713 42.4842 55.1467 42.3254 55.3248 42.1736C56.1842 41.4418 57.3874 40.6751 58.5083 40.4647C58.6866 40.4312 58.8803 40.4286 59.0615 40.4181C59.2208 40.4089 59.532 40.3698 59.661 40.4748C59.6955 40.5029 59.6879 40.5148 59.6943 40.5561C59.4958 40.8073 58.7945 40.8389 58.4945 40.9096C58.2206 40.9742 57.9167 41.0546 57.6601 41.1713C57.0307 41.4573 56.4204 41.8333 55.9299 42.3262C54.5766 43.686 53.6675 46.2128 53.8832 48.1211Z" fill="#007AFF"/>
<path d="M34.7568 71.853V74.4658H39.1116V71.853H39.9825V77.9496H39.1116V75.3368H34.7568V77.9496H33.8859V71.853H34.7568Z" fill="#090628"/>
<path d="M42.8549 77.9496V71.853H43.7259V76.6867L48.0806 71.853H48.9515V77.9496H48.0806V73.0288L43.7259 77.9496H42.8549Z" fill="#090628"/>
<path d="M55.0464 74.1697V71.853H55.9174V74.1697L58.5302 72.7239V71.853H59.4012V73.2378L56.379 74.91L59.4012 76.5822V77.9496H58.5302V77.0961L55.9174 75.6503V77.9496H55.0464V75.6503L52.4336 77.0961V77.9496H51.5627V76.5822L54.5848 74.91L51.5627 73.2378V71.853H52.4336V72.7239L55.0464 74.1697Z" fill="#090628"/>
<path d="M62.8887 72.7239V74.4658H67.2434V75.3368H62.8887V77.0786H68.1144V77.9496H62.0178V71.853H68.1144V72.7239H62.8887Z" fill="#090628"/>
<path d="M76.0424 72.7239H71.6876V77.9496H70.8167V71.853H76.0424V72.7239Z" fill="#090628"/>
<path d="M83.4529 76.2077V73.5949C83.4529 73.1158 83.0609 72.7239 82.5819 72.7239H79.9691C79.4901 72.7239 79.0981 73.1158 79.0981 73.5949V76.2077C79.0981 76.6867 79.4901 77.0786 79.9691 77.0786H82.5819C83.0609 77.0786 83.4529 76.6867 83.4529 76.2077ZM84.3238 73.5949V76.2077C84.3238 77.1657 83.54 77.9496 82.5819 77.9496H79.9691C79.0023 77.9496 78.2272 77.1744 78.2272 76.2077V73.5949C78.2272 72.6368 79.0111 71.853 79.9691 71.853H82.5819C83.5051 71.853 84.3238 72.6455 84.3238 73.5949Z" fill="#090628"/>
<path d="M92.3389 74.4658V73.5949C92.3389 73.1158 91.947 72.7239 91.4679 72.7239H87.9842V75.3368H91.4679C91.947 75.3368 92.3389 74.9448 92.3389 74.4658ZM93.2098 73.5949V74.4658C93.2098 75.389 92.4434 76.2077 91.4679 76.2077H87.9842V77.9496H87.1132V71.853H91.4679C92.3999 71.853 93.1837 72.6281 93.2098 73.5949Z" fill="#090628"/>
<path d="M101.051 76.2077V73.5949C101.051 73.1158 100.659 72.7239 100.18 72.7239H97.5669C97.0879 72.7239 96.696 73.1158 96.696 73.5949V76.2077C96.696 76.6867 97.0879 77.0786 97.5669 77.0786H100.18C100.659 77.0786 101.051 76.6867 101.051 76.2077ZM101.922 73.5949V76.2077C101.922 77.1657 101.138 77.9496 100.18 77.9496H97.5669C96.6002 77.9496 95.8251 77.1744 95.8251 76.2077V73.5949C95.8251 72.6368 96.6089 71.853 97.5669 71.853H100.18C101.103 71.853 101.922 72.6455 101.922 73.5949Z" fill="#090628"/>
<path d="M106.017 73.5949V77.0786H110.372V72.7239H106.888C106.409 72.7239 106.017 73.1158 106.017 73.5949ZM104.276 77.9496V77.0786H105.147V73.5949C105.147 72.6717 105.913 71.853 106.888 71.853H111.243V77.0786H112.114V77.9496H104.276Z" fill="#090628"/>
<path d="M37.2352 82.3043H43.3318C45.5062 82.3043 47.3352 84.113 47.3962 86.3687H45.364C45.364 85.251 44.4495 84.3365 43.3318 84.3365H37.2352C36.1175 84.3365 35.203 85.251 35.203 86.3687V92.4653C35.203 93.5831 36.1175 94.4975 37.2352 94.4975H43.3318C44.4495 94.4975 45.364 93.5831 45.364 92.4653H47.3962C47.3962 94.6195 45.6079 96.5298 43.3318 96.5298H37.2352C35.0607 96.5298 33.1708 94.7617 33.1708 92.4653V86.3687C33.1708 84.1739 34.9591 82.3653 37.2352 82.3043Z" fill="#007AFF"/>
<path d="M63.0347 84.3365H56.938V96.5298H54.9058V84.3365H48.8092V82.3043H63.0347V84.3365Z" fill="#007AFF"/>
<path d="M74.6317 84.3365H68.5351C67.4174 84.3365 66.5029 85.251 66.5029 86.3687V90.4331H76.6639V86.3687C76.6639 85.251 75.7494 84.3365 74.6317 84.3365ZM78.6961 86.3687V96.5298H76.6639V92.4653H66.5029V96.5298H64.4707V86.3687C64.4707 84.2146 66.259 82.3043 68.5351 82.3043H74.6317C76.8062 82.3043 78.6352 84.113 78.6961 86.3687Z" fill="#007AFF"/>
<path d="M85.6017 82.3043H95.7627V96.5298H93.7305V84.3365H85.6017C84.4839 84.3365 83.5694 85.251 83.5694 86.3687V96.5298H81.5372V86.3687C81.5372 84.1739 83.3256 82.3653 85.6017 82.3043Z" fill="#007AFF"/>
<path d="M110.797 92.4653V91.4492C110.797 90.3315 109.883 89.417 108.765 89.417H100.636V94.4975H108.765C109.883 94.4975 110.797 93.5831 110.797 92.4653ZM112.829 91.4492V92.4653C112.829 94.6195 111.041 96.5298 108.765 96.5298H98.6038V82.3043H100.636V87.3848H108.765C110.939 87.3848 112.768 89.1935 112.829 91.4492Z" fill="#007AFF"/>
<path d="M43.0834 100.884H45.6962C46.6281 100.884 47.412 101.66 47.4381 102.626H46.5672C46.5672 102.147 46.1752 101.755 45.6962 101.755H43.0834C42.6044 101.755 42.2124 102.147 42.2124 102.626V105.239C42.2124 105.718 42.6044 106.11 43.0834 106.11H45.6962C46.1752 106.11 46.5672 105.718 46.5672 105.239H47.4381C47.4381 106.162 46.6717 106.981 45.6962 106.981H43.0834C42.1515 106.981 41.3415 106.223 41.3415 105.239V102.626C41.3415 101.686 42.1079 100.911 43.0834 100.884Z" fill="#090628"/>
<path d="M53.6177 101.755V103.497H57.9725V104.368H53.6177V106.11H58.8434V106.981H52.7468V100.884H58.8434V101.755H53.6177Z" fill="#090628"/>
<path d="M69.3842 103.497V102.626C69.3842 102.147 68.9923 101.755 68.5133 101.755H65.0295V104.368H68.5133C68.9923 104.368 69.3842 103.976 69.3842 103.497ZM70.2552 102.626V103.497C70.2552 104.421 69.4887 105.239 68.5133 105.239H65.0295V106.981H64.1585V100.884H68.5133C69.4452 100.884 70.229 101.66 70.2552 102.626Z" fill="#090628"/>
<path d="M79.925 106.981H75.5703V100.884H79.925C80.8395 100.884 81.6669 101.66 81.6669 102.626C81.6669 103.149 81.4666 103.584 81.0747 103.933C81.4666 104.281 81.6669 104.717 81.6669 105.239C81.6669 106.18 80.9005 106.955 79.925 106.981ZM79.925 104.368H76.4413V106.11H79.925C80.4041 106.11 80.796 105.718 80.796 105.239C80.796 104.76 80.4041 104.368 79.925 104.368ZM76.4413 101.755V103.497H79.925C80.4041 103.497 80.796 103.105 80.796 102.626C80.796 102.147 80.4041 101.755 79.925 101.755H76.4413Z" fill="#090628"/>
<path d="M87.0671 106.981V100.884H87.9381V105.718L92.2928 100.884H93.1637V106.981H92.2928V102.06L87.9381 106.981H87.0671Z" fill="#090628"/>
<path d="M100.304 100.884H102.917C103.849 100.884 104.632 101.66 104.659 102.626H103.788C103.788 102.147 103.396 101.755 102.917 101.755H100.304C99.8248 101.755 99.4328 102.147 99.4328 102.626V105.239C99.4328 105.718 99.8248 106.11 100.304 106.11H102.917C103.396 106.11 103.788 105.718 103.788 105.239H104.659C104.659 106.162 103.892 106.981 102.917 106.981H100.304C99.3719 106.981 98.5619 106.223 98.5619 105.239V102.626C98.5619 101.686 99.3283 100.911 100.304 100.884Z" fill="#090628"/>
</svg>
